<?xml version="1.0" encoding="UTF-8" standalone="no"?>
<!-- Created with Inkscape (http://www.inkscape.org/) -->

<svg
   version="1.1"
   id="svg2"
   xml:space="preserve"
   width="3177.3333"
   height="2666.6667"
   viewBox="0 0 3177.3333 2666.6667"
   sodipodi:docname="iStock-1285857826.eps"
   xmlns:inkscape="http://www.inkscape.org/namespaces/inkscape"
   xmlns:sodipodi="http://sodipodi.sourceforge.net/DTD/sodipodi-0.dtd"
   xmlns="http://www.w3.org/2000/svg"
   xmlns:svg="http://www.w3.org/2000/svg"><defs
     id="defs6" /><sodipodi:namedview
     id="namedview4"
     pagecolor="#ffffff"
     bordercolor="#666666"
     borderopacity="1.0"
     inkscape:pageshadow="2"
     inkscape:pageopacity="0.0"
     inkscape:pagecheckerboard="0" /><g
     id="g8"
     inkscape:groupmode="layer"
     inkscape:label="ink_ext_XXXXXX"
     transform="matrix(1.3333333,0,0,-1.3333333,0,2666.6667)"><g
       id="g10"
       transform="scale(0.1)"><path
         d="M 0,0 H 23830 V 20000 H 0 Z"
         style="fill:#ffffff;fill-opacity:1;fill-rule:nonzero;stroke:none"
         id="path12" /><path
         d="m 18227.5,13267.3 c 0,0 2885,-107.2 3010,26.8 125.1,134 160.8,500.2 -535.9,437.7 0,0 634.2,821.7 -339.4,973.5 -973.5,151.9 -857.4,-616.3 -857.4,-616.3 0,0 -964.6,544.9 -705.6,-339.4 0,0 -241.2,178.7 -312.6,-133.9 0,0 -1500.6,-285.9 -259.1,-348.4"
         style="fill:#d6e6ed;fill-opacity:1;fill-rule:nonzero;stroke:none"
         id="path14" /><path
         d="m 8868.75,15576.7 c 0,0 1203.15,-21.8 1039.61,280.8 -163.59,302.6 -1323.17,243 -1323.17,243 0,0 93.52,478.9 -268.94,638 -362.47,159.1 -732.55,43.2 -732.55,43.2 0,0 460.05,1294.3 -535.02,1379.2 -995.08,84.9 -866.43,-1065.2 -866.43,-1065.2 0,0 -180.47,520.9 -670.82,202.1 -490.36,-318.9 -118,-948.4 -118,-948.4 0,0 -287.69,374.9 -695.32,145.4 -407.62,-229.4 -325.82,-587.1 -325.82,-587.1 0,0 -1195.53,-115.9 -844.84,-286.1 350.68,-170.3 5341.3,-44.9 5341.3,-44.9"
         style="fill:#d6e6ed;fill-opacity:1;fill-rule:nonzero;stroke:none"
         id="path16" /><path
         d="M 20600,3745.4 C 20600,2527.4 15857.3,1540 10007,1540 5220,1540 1830,1442 1830,2660 1830,3878 5970,5170 9954.71,5280 15802.9,5441.4 20600,4963.4 20600,3745.4"
         style="fill:#d6e6ed;fill-opacity:1;fill-rule:nonzero;stroke:none"
         id="path18" /><path
         d="m 8302.69,4717.9 c -65.43,0 -2663.83,-168.3 -2532.97,-523.4 130.85,-355.2 6907.28,-1663.7 7869.98,-1598.3 962.7,65.4 6606.4,1656.6 5944.5,1822.6 -3093.8,775.8 -11281.51,299.1 -11281.51,299.1"
         style="fill:#b6d0d8;fill-opacity:1;fill-rule:nonzero;stroke:none"
         id="path20" /><path
         d="m 10797.1,13619.7 c 0,0 -51.9,1769.9 10.4,1816 62.3,46.2 1167.5,113.6 1173.9,39.5 6.4,-74 25.4,-1487.6 25.4,-1487.6 l -1209.7,-367.9"
         style="fill:#f1f1f1;fill-opacity:1;fill-rule:nonzero;stroke:none"
         id="path22" /><path
         d="m 11451.8,13818.8 555,168.8 c 0,0 -19,1413.6 -25.4,1487.6 -2.9,34.4 -242.5,38.3 -504.6,28 l -12.8,-5.8 -12.2,-1678.6"
         style="fill:#d8d8d8;fill-opacity:1;fill-rule:nonzero;stroke:none"
         id="path24" /><path
         d="m 6577.77,10085.2 2224.45,-109.8 2997.88,3733.3 -1963.56,703 -3258.77,-4326.5"
         style="fill:#8c0331;fill-opacity:1;fill-rule:nonzero;stroke:none"
         id="path26" /><path
         d="m 7630.53,4254.3 c 0,0 5336.77,-991.8 5583.67,-977.7 247,14.1 4980.7,835.6 4966.6,983.8 -14.1,148.1 -58.7,6005.4 -122.2,6252.4 -34.5,133.9 -1753.5,2416.1 -2839.4,3313 l -4986.7,4.1 c -642.01,-610 -2524.47,-2885.1 -2638.33,-3155.5 -225.76,-536.2 36.36,-6420.1 36.36,-6420.1"
         style="fill:#f1f1f1;fill-opacity:1;fill-rule:nonzero;stroke:none"
         id="path28" /><path
         d="m 10795.8,13829.4 -563.3,0.5 c -642.01,-610 -2524.47,-2885.1 -2638.33,-3155.5 -36.71,-87.2 -60.52,-315.8 -74.65,-637.6 154.48,145 2446.41,2292.3 2680.68,2354.7 242.4,64.7 2959,-2481.3 2959,-2481.3 l 636.8,873.3 c 0,0 -1941.6,2191.7 -3000.2,3045.9"
         style="fill:#e8e8e8;fill-opacity:1;fill-rule:nonzero;stroke:none"
         id="path30" /><path
         d="m 15219.2,13825.8 -4832.9,-101.1 c 945,-1014.4 2735.5,-2949.7 2759.2,-3074.6 29.8,-156.1 52.7,-6404.7 56.2,-7404.7 350.9,33.9 4993,868.6 4979.1,1015 -14.1,148.1 -58.7,6005.4 -122.2,6252.4 -34.5,133.9 -1753.5,2416.1 -2839.4,3313"
         style="fill:#d8d8d8;fill-opacity:1;fill-rule:nonzero;stroke:none"
         id="path32" /><path
         d="m 13820.3,9805.7 c 0,0 -3644.4,4048.4 -3886.79,4080.7 -242.42,32.4 -3034.34,-3814 -3167.6,-3814 -161.61,0 -323.22,16.1 -323.22,16.1 0,0 3167.59,4428.2 3385.77,4500.9 218.14,72.8 5567.54,-24.2 5826.14,-129.2 258.6,-105.1 3434.2,-3919.1 3434.2,-4153.5 0,-234.3 -5268.5,-501 -5268.5,-501"
         style="fill:#cc234b;fill-opacity:1;fill-rule:nonzero;stroke:none"
         id="path34" /><path
         d="m 14173.1,9824.5 c 1180.2,64.7 4915.7,284.9 4915.7,482.2 0,234.4 -3175.6,4048.4 -3434.2,4153.5 -250.9,101.9 -5294.5,196.2 -5793.32,135.3 l -32.82,-6.1 c 0,0 4324.94,-4509 4344.24,-4759.5 0.1,-1.8 0.3,-3.6 0.4,-5.4"
         style="fill:#af0b3a;fill-opacity:1;fill-rule:nonzero;stroke:none"
         id="path36" /><path
         d="m 11317.5,4440.1 c -1708.58,259.3 -3888.98,598.1 -3888.98,598.1 0,0 16.16,-735.4 24.24,-832.3 4.99,-60 1357.54,-290.9 1357.54,-290.9 l 2507.2,525.1"
         style="fill:#aa3b30;fill-opacity:1;fill-rule:nonzero;stroke:none"
         id="path38" /><path
         d="m 14507.1,5789.7 c -96.9,145.4 -145.4,3030.2 -72.7,3102.9 72.7,72.7 2666.6,412.1 2739.3,274.8 72.8,-137.4 105.1,-2892.9 -24.2,-3038.4 -110.6,-124.3 -2565.8,-454.2 -2642.4,-339.3"
         style="fill:#b3b3b3;fill-opacity:1;fill-rule:nonzero;stroke:none"
         id="path40" /><path
         d="m 14402.1,8811.8 c 0,0 -40.4,-2900.9 88.9,-2973.7 129.3,-72.7 2278.7,218.2 2302.9,323.3 24.3,105 153.6,2900.9 -32.3,2933.2 -185.8,32.4 -2335.3,-161.6 -2359.5,-282.8"
         style="fill:#f1f1f1;fill-opacity:1;fill-rule:nonzero;stroke:none"
         id="path42" /><path
         d="m 14607.1,8670.1 c 0,0 -38.7,-2651.3 77.6,-2659.1 116.2,-7.7 1031,85.3 1046.5,147.3 15.5,62.1 23.3,2604.8 -31,2620.3 -54.3,15.5 -1031,-62 -1093.1,-108.5"
         style="fill:#2f8ac2;fill-opacity:1;fill-rule:nonzero;stroke:none"
         id="path44" /><path
         d="m 15879.8,8786.3 c 0,0 -15.5,-914.7 38.8,-930.2 54.3,-15.5 705.4,7.7 736.4,62 31.1,54.3 46.6,907 -38.7,914.8 -85.3,7.7 -736.5,-46.6 -736.5,-46.6"
         style="fill:#2f8ac2;fill-opacity:1;fill-rule:nonzero;stroke:none"
         id="path46" /><path
         d="m 15918.3,7701 c 0,0 -46.6,-1496.2 -7.8,-1511.7 38.8,-15.5 689.9,23.3 728.7,100.8 38.8,77.5 85.3,1441.9 7.8,1465.2 -77.6,23.3 -728.7,-54.3 -728.7,-54.3"
         style="fill:#2f8ac2;fill-opacity:1;fill-rule:nonzero;stroke:none"
         id="path48" /><path
         d="M 15646.5,8472.4 14693,6452.3 c 0,0 0,-234.4 32.3,-266.7 32.3,-32.3 420.2,541.4 420.2,541.4 l -72.7,-331.3 153.5,-32.3 452.5,1777.7 -32.3,331.3"
         style="fill:#479bdb;fill-opacity:1;fill-rule:nonzero;stroke:none"
         id="path50" /><path
         d="m 16018.2,7914.9 c 0,0 396,824.2 428.3,832.3 32.3,8 121.2,-40.4 121.2,-40.4 l -363.6,-783.9 -185.9,-8"
         style="fill:#479bdb;fill-opacity:1;fill-rule:nonzero;stroke:none"
         id="path52" /><path
         d="m 16357.6,8068.4 258.6,541.4 16.1,-145.5 c 0,0 -242.4,-460.6 -266.6,-420.1 -24.3,40.4 -8.1,24.2 -8.1,24.2"
         style="fill:#479bdb;fill-opacity:1;fill-rule:nonzero;stroke:none"
         id="path54" /><path
         d="m 16632.3,7624 c 0,0 -686.8,-1252.5 -686.8,-1284.9 0,-32.3 8.1,-96.9 24.2,-96.9 16.2,0 56.6,8.1 56.6,8.1 l 630.3,1236.3 -24.3,137.4"
         style="fill:#479bdb;fill-opacity:1;fill-rule:nonzero;stroke:none"
         id="path56" /><path
         d="m 8812.18,3915.1 c 0,0 -26.12,5599.7 62.77,5615.9 88.88,16.1 2658.55,-72.7 2674.65,-177.8 16.2,-105 -8.1,-5809.9 -8.1,-5809.9 l -2424.14,428.2 -305.18,-56.4"
         style="fill:#d8d8d8;fill-opacity:1;fill-rule:nonzero;stroke:none"
         id="path58" /><path
         d="m 9214.33,9417.9 c -60.73,-30.4 -92.93,-4847 -96.61,-5443.9 l 2423.78,-430.7 c 0,0 22.3,5218.2 10,5766 -562.7,77.1 -2282.76,135.8 -2337.17,108.6"
         style="fill:#cc234b;fill-opacity:1;fill-rule:nonzero;stroke:none"
         id="path60" /><path
         d="m 9453.33,8983.3 c 0,0 -95.49,-1511.7 -6.1,-1591.9 89.4,-80.3 810.17,-124 848.77,-51.2 55.9,105.4 57.6,1123.6 57.6,1123.6 0,0 -82.4,-1034.9 -106.4,-1067.4 -24,-32.4 -638.21,-28.2 -654.83,44.4 -16.62,72.6 -0.8,1406 39.45,1430.5 40.25,24.5 670.58,12.3 687.18,-44.1 16.5,-56.5 34.1,-282.6 34.1,-282.6 0,0 62.2,388.2 -18.9,428.1 -81.1,39.9 -857.39,132 -880.87,10.6"
         style="fill:#af0b3a;fill-opacity:1;fill-rule:nonzero;stroke:none"
         id="path62" /><path
         d="m 9433.06,7076.1 c 0,0 -95.49,-1511.7 -6.1,-1591.9 89.4,-80.3 810.24,-124 848.84,-51.2 55.9,105.4 57.5,1123.6 57.5,1123.6 0,0 -82.3,-1034.9 -106.4,-1067.4 -24,-32.4 -638.17,-28.2 -654.8,44.4 -16.62,72.6 -0.8,1406 39.45,1430.5 40.25,24.5 670.65,12.3 687.15,-44.1 16.5,-56.5 34.1,-282.6 34.1,-282.6 0,0 62.2,388.2 -18.9,428.1 -81,39.9 -857.36,132 -880.84,10.6"
         style="fill:#af0b3a;fill-opacity:1;fill-rule:nonzero;stroke:none"
         id="path64" /><path
         d="m 10585.3,8877.3 c 0,0 -95.5,-1511.7 -6.1,-1591.9 89.4,-80.2 810.2,-124 848.8,-51.2 55.9,105.4 57.6,1123.6 57.6,1123.6 0,0 -82.4,-1034.9 -106.4,-1067.4 -24.1,-32.4 -638.2,-28.2 -654.8,44.4 -16.7,72.6 -0.9,1406 39.4,1430.5 40.2,24.5 670.6,12.4 687.1,-44.1 16.6,-56.5 34.1,-282.6 34.1,-282.6 0,0 62.2,388.3 -18.8,428.1 -81.1,39.9 -857.4,132 -880.9,10.6"
         style="fill:#af0b3a;fill-opacity:1;fill-rule:nonzero;stroke:none"
         id="path66" /><path
         d="m 10557,6945.9 c 0,0 -95.5,-1511.7 -6.1,-1591.9 89.4,-80.3 810.2,-124 848.8,-51.2 55.9,105.4 57.5,1123.6 57.5,1123.6 0,0 -82.3,-1034.9 -106.4,-1067.4 -24,-32.5 -638.2,-28.3 -654.8,44.4 -16.6,72.6 -0.8,1406 39.4,1430.5 40.3,24.5 670.7,12.3 687.2,-44.1 16.5,-56.5 34.1,-282.6 34.1,-282.6 0,0 62.2,388.2 -18.9,428.1 -81,39.9 -857.4,132 -880.8,10.6"
         style="fill:#af0b3a;fill-opacity:1;fill-rule:nonzero;stroke:none"
         id="path68" /><path
         d="m 9190.09,6064.4 c 0,0 -16.16,541.4 8.08,541.4 24.24,0 105.05,8.1 113.13,-8.1 8.08,-16.1 0,-541.4 -24.24,-557.5 -24.24,-16.2 -96.97,-16.2 -96.97,24.2"
         style="fill:#ffb002;fill-opacity:1;fill-rule:nonzero;stroke:none"
         id="path70" /><path
         d="m 9303.22,6363.4 c 0,66.9 -54.27,121.2 -121.21,121.2 -66.94,0 -121.21,-54.3 -121.21,-121.2 0,-67 54.27,-121.2 121.21,-121.2 66.94,0 121.21,54.2 121.21,121.2"
         style="fill:#ef9500;fill-opacity:1;fill-rule:nonzero;stroke:none"
         id="path72" /><path
         d="m 9246.66,6379.5 c 0,49.1 -39.8,88.9 -88.89,88.9 -49.09,0 -88.89,-39.8 -88.89,-88.9 0,-49.1 39.8,-88.8 88.89,-88.8 49.09,0 88.89,39.7 88.89,88.8"
         style="fill:#ffb002;fill-opacity:1;fill-rule:nonzero;stroke:none"
         id="path74" /><path
         d="m 9238.57,6161.4 -16.16,-48.5 h 40.41 l -16.16,48.5 c 0,0 32.31,8 24.24,40.4 -8.08,32.3 -56.57,24.2 -56.57,0 0,-24.3 8.08,-32.4 24.24,-40.4"
         style="fill:#1a1a1a;fill-opacity:1;fill-rule:nonzero;stroke:none"
         id="path76" /><path
         d="m 13293.3,4176.2 4872.6,887.2 -1.9,36.1 c 0,0 173.3,-37.1 173.3,-61.3 0,-24.3 -614.1,-307.1 -614.1,-307.1 l -4412,-735.3 -17.9,180.4"
         style="fill:#aa3b30;fill-opacity:1;fill-rule:nonzero;stroke:none"
         id="path78" /><path
         d="m 13335.4,4141.2 -24.2,40.4 -1767,261.5 v 40.6 l -179.4,-46.7 110.4,-59.5 -62.9,-131.2 1923.1,-105.1"
         style="fill:#891a1a;fill-opacity:1;fill-rule:nonzero;stroke:none"
         id="path80" /><path
         d="m 18337.3,5038.2 c -32.3,88.9 -4848.3,-888.9 -5018,-888.9 -62.4,0 -953.3,136.2 -1955.5,288 v -976.2 c 989.6,-168.4 1869,-313.8 1931.2,-313.8 169.7,0 4993.9,1034.3 5034.3,1074.7 40.4,40.4 40.4,727.3 8,816.2"
         style="fill:#aa3b30;fill-opacity:1;fill-rule:nonzero;stroke:none"
         id="path82" /><path
         d="m 13312.9,3148.8 c 360.9,43.3 4976.8,1033.7 5016.4,1073.2 40.4,40.4 40.4,727.3 8,816.2 -31.9,87.9 -4744.9,-867.9 -5010.7,-888.5 -5,-365.9 -10.9,-791.1 -13.7,-1000.9"
         style="fill:#891a1a;fill-opacity:1;fill-rule:nonzero;stroke:none"
         id="path84" /><path
         d="m 7597.31,5071.8 c 0.9,-1.3 -168.79,-33.6 -168.79,-33.6 l 1379.77,-213.8 2.01,-909.4 307.06,56.5 8.08,929.3 -315.14,-40.4 -1210,183.8 -2.99,27.6"
         style="fill:#891a1a;fill-opacity:1;fill-rule:nonzero;stroke:none"
         id="path86" /><path
         d="m 11182.4,11711.7 c 86.4,-554.6 -247.3,-1067.1 -745.2,-1144.6 -497.91,-77.5 -971.57,309.2 -1057.93,863.8 -86.36,554.7 247.28,1067.1 745.23,1144.7 497.9,77.5 971.6,-309.3 1057.9,-863.9"
         style="fill:#b3b3b3;fill-opacity:1;fill-rule:nonzero;stroke:none"
         id="path88" /><path
         d="m 11186.6,11694.1 c 75.5,-485 -216.2,-933 -651.6,-1000.8 -435.4,-67.8 -849.51,270.3 -925.02,755.3 -75.51,484.9 216.21,933 651.62,1000.8 435.3,67.8 849.5,-270.4 925,-755.3"
         style="fill:#ffffff;fill-opacity:1;fill-rule:nonzero;stroke:none"
         id="path90" /><path
         d="m 11047.8,11664 c 57,-366.2 -163.3,-704.5 -492.1,-755.7 -328.7,-51.2 -641.46,204.1 -698.48,570.3 -57.02,366.2 163.28,704.6 491.98,755.8 328.8,51.2 641.5,-204.2 698.6,-570.4"
         style="fill:#2f8ac2;fill-opacity:1;fill-rule:nonzero;stroke:none"
         id="path92" /><path
         d="m 10881.6,11959.8 c 0,0 -623.3,-948.6 -650.4,-939.5 -27.1,9 -108.5,36.1 -108.5,99.3 0,63.3 704.7,903.4 704.7,903.4 l 54.2,-63.2"
         style="fill:#479bdb;fill-opacity:1;fill-rule:nonzero;stroke:none"
         id="path94" /><path
         d="m 10258.3,11499.1 c 0,0 483.3,555.6 438.1,591.7 -45.2,36.1 -169.7,115.7 -215.8,85 -46.2,-30.8 -308.2,-609 -308.2,-609 l 85.9,-67.7"
         style="fill:#479bdb;fill-opacity:1;fill-rule:nonzero;stroke:none"
         id="path96" /><path
         d="m 13812.2,4965.4 c 0,0 711.1,145.5 727.3,88.9 16.1,-56.5 32.3,-258.6 0,-290.9 -32.4,-32.3 -703.1,-177.8 -727.3,-105 -24.2,72.7 -24.2,266.6 -24.2,266.6 0,0 32.3,-242.4 80.8,-250.5 48.4,-8 630.3,64.7 638.3,113.2 8.1,48.4 16.2,234.3 -24.2,234.3 -40.4,0 -670.7,-56.6 -670.7,-56.6"
         style="fill:#d1d1d1;fill-opacity:1;fill-rule:nonzero;stroke:none"
         id="path98" /><path
         d="m 14507.1,5353.3 c 0,0 711.1,145.5 727.3,88.9 16.1,-56.6 32.3,-258.6 0,-290.9 -32.3,-32.3 -703,-177.8 -727.3,-105.1 -24.2,72.8 -24.2,266.7 -24.2,266.7 0,0 32.3,-242.4 80.8,-250.5 48.5,-8.1 630.3,64.7 638.4,113.1 8,48.5 16.1,234.4 -24.3,234.4 -40.4,0 -670.7,-56.6 -670.7,-56.6"
         style="fill:#d1d1d1;fill-opacity:1;fill-rule:nonzero;stroke:none"
         id="path100" /><path
         d="m 17214.1,6153.3 c 0,0 711.1,145.4 727.3,88.9 16.1,-56.6 32.3,-258.6 0,-290.9 -32.3,-32.4 -703,-177.8 -727.3,-105.1 -24.2,72.7 -24.2,266.7 -24.2,266.7 0,0 32.3,-242.4 80.8,-250.5 48.5,-8.1 630.3,64.6 638.4,113.1 8,48.5 16.1,234.4 -24.3,234.4 -40.4,0 -670.7,-56.6 -670.7,-56.6"
         style="fill:#d1d1d1;fill-opacity:1;fill-rule:nonzero;stroke:none"
         id="path102" /><path
         d="m 12380,6295.9 c 0,0 -716,118.9 -730.1,61.8 -14,-57.2 -22.6,-259.6 10.9,-290.7 33.5,-31.1 709.1,-151.5 730.6,-77.9 21.5,73.6 14.3,267.4 14.3,267.4 0,0 -23.2,-243.5 -71.4,-253.4 -48.1,-9.8 -632.3,41.1 -642.1,89.3 -9.9,48.1 -24.9,233.6 15.4,235.1 40.4,1.5 672.4,-31.6 672.4,-31.6"
         style="fill:#e8e8e8;fill-opacity:1;fill-rule:nonzero;stroke:none"
         id="path104" /><path
         d="m 8711.39,5496 c 0,0 -716.03,118.8 -730.07,61.7 -14.04,-57.1 -22.66,-259.6 10.85,-290.7 33.5,-31.1 709.15,-151.5 730.66,-77.9 21.52,73.6 14.29,267.4 14.29,267.4 0,0 -23.26,-243.5 -71.41,-253.3 -48.15,-9.9 -632.26,41.1 -642.15,89.2 -9.88,48.2 -24.88,233.6 15.49,235.1 40.38,1.5 672.34,-31.5 672.34,-31.5"
         style="fill:#e8e8e8;fill-opacity:1;fill-rule:nonzero;stroke:none"
         id="path106" /><path
         d="m 8436.65,5875.8 c 0,0 -716.03,118.8 -730.07,61.7 -14.04,-57.2 -22.66,-259.6 10.85,-290.7 33.5,-31.1 709.15,-151.5 730.67,-77.9 21.5,73.6 14.28,267.4 14.28,267.4 0,0 -23.26,-243.5 -71.41,-253.4 -48.15,-9.8 -632.26,41.2 -642.15,89.3 -9.88,48.2 -24.88,233.6 15.49,235.1 40.38,1.5 672.34,-31.5 672.34,-31.5"
         style="fill:#e8e8e8;fill-opacity:1;fill-rule:nonzero;stroke:none"
         id="path108" /><path
         d="m 9155.61,10131.4 c 0,0 -721.92,75.2 -732.47,17.3 -10.55,-57.9 -6.88,-260.5 28.46,-289.5 35.32,-29 717.03,-108.2 734.04,-33.4 17.01,74.7 -1.96,267.7 -1.96,267.7 0,0 -8.46,-244.4 -55.92,-257.2 -47.46,-12.7 -633.59,2.7 -646.37,50.2 -12.78,47.4 -39,231.6 1.21,235.6 40.21,3.9 673.01,9.3 673.01,9.3"
         style="fill:#e8e8e8;fill-opacity:1;fill-rule:nonzero;stroke:none"
         id="path110" /><path
         d="m 16123.3,9733 c 0,0 711,145.4 727.2,88.9 16.2,-56.6 32.3,-258.6 0,-290.9 -32.3,-32.3 -703,-177.8 -727.2,-105.1 -24.3,72.8 -24.3,266.7 -24.3,266.7 0,0 32.3,-242.4 80.8,-250.5 48.5,-8.1 630.3,64.6 638.4,113.1 8.1,48.5 16.1,234.4 -24.3,234.4 -40.4,0 -670.6,-56.6 -670.6,-56.6"
         style="fill:#d1d1d1;fill-opacity:1;fill-rule:nonzero;stroke:none"
         id="path112" /><path
         d="m 13626.3,7729 c 0,0 711.1,145.5 727.3,88.9 16.2,-56.6 32.3,-258.6 0,-290.9 -32.3,-32.3 -703,-177.8 -727.3,-105.1 -24.2,72.8 -24.2,266.7 -24.2,266.7 0,0 32.3,-242.4 80.8,-250.5 48.5,-8.1 630.3,64.6 638.4,113.1 8.1,48.5 16.1,234.4 -24.3,234.4 -40.4,0 -670.7,-56.6 -670.7,-56.6"
         style="fill:#d1d1d1;fill-opacity:1;fill-rule:nonzero;stroke:none"
         id="path114" /><path
         d="m 10809.3,14139.9 c -124.8,0 -314.7,33.2 -562.5,172.3 -163.4,91.9 -273.34,185.2 -277.93,189.2 -8.48,7.2 -9.49,20 -2.24,28.4 7.25,8.5 20,9.5 28.48,2.3 4.39,-3.8 443.19,-374.3 850.29,-350.8 99,5.7 167.5,37.4 203.8,94.3 67.2,105.2 5.5,264.4 4.9,266 -4.1,10.4 1,22.1 11.3,26.2 10.4,4.1 22.2,-0.9 26.3,-11.3 2.8,-7.3 69.8,-180.2 -8.4,-302.7 -43.7,-68.4 -122.9,-106.3 -235.5,-112.8 -12.1,-0.7 -24.9,-1.1 -38.5,-1.1"
         style="fill:#8c0331;fill-opacity:1;fill-rule:nonzero;stroke:none"
         id="path116" /><path
         d="m 11884,13832.9 c -124.8,0 -314.7,33.1 -562.4,172.3 -163.5,91.8 -273.4,185.2 -278,189.1 -8.5,7.2 -9.5,20 -2.2,28.5 7.2,8.5 19.9,9.5 28.4,2.2 4.4,-3.7 443.2,-374.3 850.4,-350.7 98.9,5.7 167.4,37.4 203.7,94.2 67.2,105.2 5.5,264.4 4.9,266.1 -4.1,10.3 1,22.1 11.4,26.2 10.3,4.1 22.1,-1 26.2,-11.4 2.9,-7.3 69.8,-180.2 -8.4,-302.7 -43.7,-68.3 -122.9,-106.3 -235.5,-112.8 -12,-0.7 -24.9,-1 -38.5,-1"
         style="fill:#8c0331;fill-opacity:1;fill-rule:nonzero;stroke:none"
         id="path118" /><path
         d="m 14518.3,13978.3 c -124.8,0 -314.7,33.2 -562.5,172.3 -163.4,91.9 -273.3,185.2 -277.9,189.2 -8.5,7.2 -9.5,19.9 -2.3,28.4 7.3,8.5 20,9.5 28.5,2.3 4.4,-3.8 443.2,-374.3 850.4,-350.8 98.9,5.7 167.4,37.4 203.7,94.2 67.2,105.3 5.5,264.5 4.9,266.1 -4.1,10.4 1,22.1 11.3,26.2 10.4,4.1 22.2,-1 26.3,-11.3 2.8,-7.3 69.8,-180.2 -8.4,-302.7 -43.7,-68.4 -122.9,-106.3 -235.5,-112.8 -12.1,-0.7 -24.9,-1.1 -38.5,-1.1"
         style="fill:#8c0331;fill-opacity:1;fill-rule:nonzero;stroke:none"
         id="path120" /><path
         d="m 13896.1,13202.6 c -124.8,0 -314.7,33.1 -562.5,172.3 -163.4,91.8 -273.3,185.2 -277.9,189.1 -8.5,7.3 -9.5,20 -2.3,28.5 7.3,8.5 20,9.5 28.5,2.2 4.4,-3.7 443.2,-374.3 850.3,-350.7 99,5.7 167.5,37.4 203.8,94.2 67.2,105.2 5.5,264.5 4.9,266.1 -4.1,10.3 1,22.1 11.3,26.2 10.4,4.1 22.1,-1 26.2,-11.4 2.9,-7.3 69.9,-180.2 -8.4,-302.7 -43.6,-68.3 -122.8,-106.2 -235.4,-112.7 -12.1,-0.8 -24.9,-1.1 -38.5,-1.1"
         style="fill:#8c0331;fill-opacity:1;fill-rule:nonzero;stroke:none"
         id="path122" /><path
         d="m 16628.1,12520.1 c -124.8,0 -314.7,33.2 -562.4,172.3 -163.5,91.9 -273.4,185.2 -278,189.2 -8.5,7.2 -9.5,19.9 -2.3,28.4 7.3,8.5 20,9.5 28.5,2.3 4.4,-3.8 443.2,-374.4 850.4,-350.8 98.9,5.7 167.4,37.4 203.7,94.2 67.2,105.3 5.5,264.5 4.9,266.1 -4.1,10.4 1,22.1 11.4,26.2 10.3,4.1 22.1,-0.9 26.2,-11.3 2.9,-7.3 69.8,-180.2 -8.4,-302.7 -43.7,-68.4 -122.9,-106.3 -235.5,-112.8 -12,-0.7 -24.9,-1.1 -38.5,-1.1"
         style="fill:#8c0331;fill-opacity:1;fill-rule:nonzero;stroke:none"
         id="path124" /><path
         d="m 16078.6,11526 c -124.7,0 -314.7,33.1 -562.4,172.3 -163.5,91.8 -273.4,185.2 -278,189.1 -8.5,7.3 -9.5,20 -2.2,28.5 7.2,8.5 20,9.5 28.5,2.2 4.3,-3.7 443.1,-374.3 850.3,-350.7 98.9,5.7 167.5,37.4 203.7,94.2 67.3,105.3 5.6,264.5 4.9,266.1 -4.1,10.3 1,22.1 11.4,26.2 10.3,4.1 22.1,-1 26.2,-11.4 2.9,-7.3 69.8,-180.2 -8.4,-302.6 -43.7,-68.4 -122.9,-106.3 -235.5,-112.8 -12,-0.7 -24.9,-1.1 -38.5,-1.1"
         style="fill:#8c0331;fill-opacity:1;fill-rule:nonzero;stroke:none"
         id="path126" /><path
         d="m 15496,10325.9 c -124.7,0 -314.7,33.1 -562.4,172.3 -163.5,91.8 -273.4,185.2 -278,189.1 -8.5,7.3 -9.5,20 -2.2,28.5 7.2,8.5 20,9.5 28.5,2.2 4.4,-3.7 443.1,-374.3 850.3,-350.7 98.9,5.7 167.5,37.4 203.8,94.2 67.2,105.3 5.5,264.5 4.8,266.1 -4.1,10.3 1,22.1 11.4,26.2 10.3,4.1 22.1,-1 26.2,-11.4 2.9,-7.3 69.8,-180.2 -8.4,-302.6 -43.6,-68.4 -122.9,-106.4 -235.5,-112.9 -12,-0.6 -24.9,-1 -38.5,-1"
         style="fill:#8c0331;fill-opacity:1;fill-rule:nonzero;stroke:none"
         id="path128" /><path
         d="m 14421.3,10641 c -124.7,0 -314.7,33.2 -562.4,172.3 -163.5,91.9 -273.4,185.2 -278,189.2 -8.5,7.2 -9.5,19.9 -2.2,28.4 7.2,8.5 20,9.5 28.4,2.3 4.4,-3.8 443.2,-374.3 850.4,-350.8 98.9,5.7 167.5,37.4 203.7,94.2 67.2,105.3 5.5,264.5 4.9,266.1 -4.1,10.4 1,22.1 11.4,26.2 10.3,4.1 22.1,-1 26.2,-11.3 2.9,-7.3 69.8,-180.2 -8.4,-302.7 -43.7,-68.3 -122.9,-106.3 -235.5,-112.8 -12,-0.7 -24.9,-1.1 -38.5,-1.1"
         style="fill:#8c0331;fill-opacity:1;fill-rule:nonzero;stroke:none"
         id="path130" /><path
         d="m 17702,11036.9 c -124.7,0 -314.7,33.2 -562.4,172.4 -163.5,91.8 -273.4,185.2 -278,189.1 -8.5,7.3 -9.5,20 -2.2,28.5 7.2,8.5 20,9.5 28.5,2.2 4.4,-3.7 443.2,-374.3 850.3,-350.7 98.9,5.7 167.5,37.4 203.8,94.2 67.2,105.3 5.5,264.5 4.8,266.1 -4.1,10.3 1,22.1 11.4,26.2 10.4,4.1 22.1,-1 26.2,-11.4 2.9,-7.3 69.8,-180.2 -8.4,-302.6 -43.6,-68.4 -122.9,-106.4 -235.5,-112.9 -12,-0.6 -24.9,-1.1 -38.5,-1.1"
         style="fill:#8c0331;fill-opacity:1;fill-rule:nonzero;stroke:none"
         id="path132" /><path
         d="m 13495.5,12432.2 c -124.8,0 -314.8,33.2 -562.5,172.3 -163.5,91.8 -273.4,185.2 -278,189.1 -8.4,7.3 -9.4,20 -2.2,28.5 7.3,8.5 20,9.5 28.5,2.3 4.4,-3.8 443.2,-374.4 850.3,-350.8 99,5.7 167.5,37.4 203.8,94.2 67.2,105.3 5.5,264.5 4.9,266.1 -4.1,10.4 1,22.1 11.3,26.2 10.4,4.1 22.1,-1 26.2,-11.4 2.9,-7.3 69.8,-180.1 -8.4,-302.6 -43.6,-68.4 -122.8,-106.3 -235.4,-112.8 -12.1,-0.7 -24.9,-1.1 -38.5,-1.1"
         style="fill:#8c0331;fill-opacity:1;fill-rule:nonzero;stroke:none"
         id="path134" /><path
         d="m 10669.6,15464.8 c 0,0 1463.3,-47.5 1475.1,7.7 11.7,55.2 47.8,593.9 -19.7,617.7 -67.6,23.9 -1384.5,115.6 -1444.6,-1.2 -60.1,-116.9 -60,-606.3 -10.8,-624.2"
         style="fill:#cc234b;fill-opacity:1;fill-rule:nonzero;stroke:none"
         id="path136" /><path
         d="m 12125,16090.2 c -27.3,9.7 -258.4,30.4 -528.2,44 l -10.3,-688.1 c 297.3,-1.8 553.3,3.4 558.2,26.4 11.7,55.2 47.8,593.9 -19.7,617.7"
         style="fill:#af0b3a;fill-opacity:1;fill-rule:nonzero;stroke:none"
         id="path138" /><path
         d="m 14101.6,12000.9 c 0,0 2822.7,79.8 2807.3,136.8 -15.4,57.1 -464.6,379.4 -464.6,379.4 0,0 -2840.4,17 -2827.7,-86.7 12.7,-103.8 485,-429.5 485,-429.5"
         style="fill:#000000;fill-opacity:1;fill-rule:nonzero;stroke:none"
         id="path140" /><path
         d="m 16908.9,12137.7 c -15.4,57.1 -464.6,379.4 -464.6,379.4 0,0 -2840.4,17 -2827.7,-86.7 3.5,-28.7 40.7,-68.6 92.6,-111.3 370.7,16.5 2647.1,116.9 2715.8,91.2 50.6,-19 239.8,-218.4 344.9,-297 89.9,8.4 141.1,16.6 139,24.4"
         style="fill:#8c0331;fill-opacity:1;fill-rule:nonzero;stroke:none"
         id="path142" /><path
         d="m 14472.5,16914 c 0,0 678.3,92.5 1001.7,58.6 323.4,-33.8 1254.7,-306.6 1585.3,-243.1 330.6,63.5 868.1,1139.6 868.1,1139.6 L 16395.2,19128.9 14472.5,16914"
         style="fill:#e55857;fill-opacity:1;fill-rule:nonzero;stroke:none"
         id="path144" /><path
         d="m 14094.1,17586.6 c 0,0 -1568.1,-700.8 -1551.2,-993.8 16.9,-293 566.3,-353.5 1222.7,97.9 656.5,451.4 328.5,895.9 328.5,895.9"
         style="fill:#ed685a;fill-opacity:1;fill-rule:nonzero;stroke:none"
         id="path146" /><path
         d="m 14181.4,17711.2 c 0,0 -416.8,-149.6 -493.1,-367.5 -76.3,-217.9 -230.7,-558.3 -330.3,-714.3 -99.5,-156 -469.9,-1338.7 -333.3,-1567 136.6,-228.3 550.4,-108.1 690.8,382.4 140.5,490.5 523.4,1053.8 528.4,1074 5.1,20.3 -62.5,1192.4 -62.5,1192.4"
         style="fill:#f27461;fill-opacity:1;fill-rule:nonzero;stroke:none"
         id="path148" /><path
         d="m 14181.4,17711.2 c 0,0 -416.8,-149.6 -493.1,-367.5 -9.5,-27.2 -20.3,-56.3 -32,-86.7 10.7,18.8 98.7,169.1 163.3,120.5 68.9,-51.8 -9.7,-519 -68.7,-685.2 -59,-166.2 -150.6,-531.1 -173.2,-775.4 -22.6,-244.3 -114.4,-781.5 -340.6,-841 -211,-55.6 -240.8,76.5 -242.2,162 -0.9,-77.6 7.9,-138.9 29.8,-175.5 136.6,-228.3 550.4,-108.1 690.8,382.4 140.5,490.5 523.4,1053.8 528.4,1074 5.1,20.3 -62.5,1192.4 -62.5,1192.4"
         style="fill:#ed685a;fill-opacity:1;fill-rule:nonzero;stroke:none"
         id="path150" /><path
         d="m 16523,19157.2 c 0,0 -319.3,101.7 -442.9,141.4 -123.7,39.7 -341.6,29.8 -516.3,-219.4 -174.7,-249.2 -872.8,-815.1 -1089.9,-958.8 -217.1,-143.7 -421.2,-389.8 -442.7,-595.6 -21.5,-205.8 -298.2,-1032.7 -298.4,-1205.1 -0.2,-172.3 -9.7,-1342.2 203.1,-1438.8 212.8,-96.5 574,174.7 537,645.2 -36.9,470.4 -11,548 -11,548 0,0 357.7,720.3 334.6,954.6 l 283,62.5 c 0,0 1024.6,1016.2 1450.5,1167.7 426,151.6 -7,898.3 -7,898.3"
         style="fill:#f27461;fill-opacity:1;fill-rule:nonzero;stroke:none"
         id="path152" /><path
         d="m 16080.1,19298.6 c -34.9,11.2 -77.3,18.4 -124.2,17.5 24.7,-9.1 168.8,-45.9 3.2,-293.1 -154.4,-230.6 -672.1,-856.9 -877.1,-1055.4 -205,-198.4 -485,-317.8 -489.1,-385.7 -4.1,-67.9 -214.2,-1109.8 -347.2,-1330.7 -133.1,-220.8 249.2,-997.9 -39,-1253 -149.8,-132.6 -259.2,-108.9 -329.6,-55.5 17.4,-30.4 36.9,-51.9 58.8,-61.8 212.8,-96.5 574,174.7 537,645.2 -36.9,470.4 -11,548 -11,548 0,0 357.7,720.3 334.6,954.6 l 283,62.5 c 0,0 1024.6,1016.2 1450.5,1167.7 426,151.6 -7,898.3 -7,898.3 0,0 -319.3,101.7 -442.9,141.4"
         style="fill:#ed685a;fill-opacity:1;fill-rule:nonzero;stroke:none"
         id="path154" /><path
         d="m 14796.5,17028.7 283,62.5 c 0,0 122.8,121.8 301.1,287.4 58.7,320.6 116,761.6 -59.7,562.4 -265.2,-300.8 -597.5,-560 -620.8,-584.3 -23.3,-24.3 11,-179.4 11,-179.4 13.8,-322.4 -286.1,-1001.3 -326.7,-1077.3 -40.6,-76 88.5,-573.9 88.5,-573.9 -36.9,470.4 -11,548 -11,548 0,0 357.7,720.3 334.6,954.6"
         style="fill:#e55857;fill-opacity:1;fill-rule:nonzero;stroke:none"
         id="path156" /><path
         d="m 16792.3,16704 c 0,0 -962.1,-500.5 -1241.4,-921.4 -21.2,96.1 -58.7,187.2 -116.8,267 0,0 218.8,699.3 308.1,814.8 89.4,115.4 659.9,825.4 916.4,748.1 256.3,-77.3 133.7,-908.5 133.7,-908.5 m 2237.3,3293.3 c -413.5,-344.3 -1295.5,-1047.8 -1503.1,-962.9 -273.6,111.8 -1055,312.4 -1245.7,222.4 -190.7,-90 -1521.8,-1820 -1529.2,-2089.7 -7.4,-269.7 -142.1,-1046.1 -80.6,-1281.3 61.6,-235.3 300.8,-1187.5 531,-1146.2 58.9,10.5 124.5,71.9 183.9,164.8 15.5,-43.3 35.4,-82 58.9,-116 126.6,-182.6 355.8,-93.6 440,1.6 84.3,95.2 320.8,367.6 488.2,433.3 167.3,65.7 625.9,416 827.9,585 201.9,169.1 217.1,143.7 683.7,371.3 466.6,227.6 841.9,348.8 969.1,769.4 127.2,420.6 42.9,325.4 251,553.2 208.1,227.9 1048.2,844.3 1048.2,844.3 l -817.3,1650.8 h -306"
         style="fill:#f27461;fill-opacity:1;fill-rule:nonzero;stroke:none"
         id="path158" /><path
         d="m 18853.7,16949 c 127.2,420.6 42.9,325.4 251,553.2 208.1,227.9 1048.2,844.3 1048.2,844.3 l -237.1,479 c -389.3,-542.2 -1339.5,-771.7 -1444.2,-841 -108.5,-71.8 34.2,-696 -90.9,-1039.5 -125.1,-343.6 -654,-570.6 -841.6,-631.2 -125.3,-40.4 -238.1,-119.5 -340.7,-199.8 -67.9,-53 -133.9,-109.4 -195.7,-169.3 -37,-35.8 -80.8,-141.8 -147.2,-114.5 -13.1,5.3 -23.2,16 -33,26.3 -137.9,143.1 -317,246.1 -510.1,293.4 184.3,-72.1 372.7,-174.4 461.6,-351.2 11.6,-23 21.5,-48.4 18,-73.9 -4.1,-29.4 -25.1,-53.3 -46,-74.2 -34.8,-34.9 -72.2,-67.1 -111.7,-96.4 -11,-8 -23.9,-16.3 -37.2,-13.4 -13.9,3 -22.3,16.8 -28.7,29.6 -60,118.9 -99.3,257.7 -206.4,336.9 40,-75.4 77.5,-152.1 112.6,-229.9 21.3,-47.2 61,-132.3 34.6,-184.4 -17.3,-34.3 -63.2,-43.8 -94.8,-61.7 -105.4,-59.9 -206.5,-123 -319.9,-167.7 -131.8,-52 -375.9,-123.8 -442.2,58.9 -109.6,301.7 254.9,780.3 331.7,876.5 -178.9,-133.9 -342.1,-279.4 -433.1,-416.4 -21.2,96.1 -58.7,187.2 -116.8,267 0,0 218.8,699.3 308.1,814.8 89.4,115.4 659.9,825.4 916.3,748.1 243.6,-73.5 145.2,-827.1 134.7,-902.4 189,106.8 274.7,383.3 333.9,576.1 37.8,122.9 67.6,248.5 89.8,375.2 9.9,56.6 16.7,108.6 14,165.5 -1.8,37.2 0,74 -8.2,110.6 -2.5,11.6 -39.3,89.2 -37.4,92.4 -54.1,-92.9 -71.8,-201.7 -101.3,-305.1 -29.5,-103.3 -77,-209.5 -168.3,-266.2 -42.1,100 5.2,212.2 35.3,316.5 55.3,192 49.9,400.9 -15.1,589.8 -18.4,53.5 -49.5,112.2 -105,123 0.7,-62.7 35.4,-119.1 57.6,-177.7 39.5,-104.3 39.7,-219.8 22.5,-329.9 -10.9,-70.1 -30.2,-142.2 -78.1,-194.4 -36.3,-39.5 -105.5,-73.3 -159.9,-53.9 -46.5,16.5 -50.5,62.1 -58.7,107.1 -19.3,105.6 -15.1,215 -38.3,319.9 -32.2,146.1 -61.1,-243.2 -150.5,-444.8 -89.5,-201.7 -920.3,-643.8 -920.3,-643.8 73.1,-139.1 -40.7,-380 -90.7,-509.5 -38.3,-99.1 -81,-196.5 -126.3,-292.6 -49.8,-105.6 -75.8,-204 -214.3,-216.1 -36.6,-3.2 -73.2,2.1 -109.8,7.4 -38.9,5.7 -77.8,11.4 -116.5,6.8 1.6,-12 12.8,-20 23.4,-25.9 61.4,-34.5 133.3,-46.7 203.7,-46.1 63.3,0.5 132.4,-2.8 166,-64 74.8,-136.3 117.4,-266 71.2,-419.3 -28.9,-95.7 -71.7,-190.9 -65.3,-290.7 4.6,-72.1 71,-206.4 21.4,-271.3 -32.3,-42.3 -121.1,-71.2 -171.8,-55.8 -75.1,1.1 -199.8,256.4 -199.8,256.4 l -0.2,-1.3 c 91.6,-235.7 199.6,-427.9 305.8,-408.8 58.9,10.5 124.5,71.9 183.9,164.8 15.5,-43.3 35.4,-82 58.9,-116 126.6,-182.6 355.8,-93.6 440,1.6 84.3,95.2 320.8,367.6 488.2,433.3 167.3,65.7 625.9,416 827.9,585 201.9,169.1 217.1,143.7 683.7,371.3 466.6,227.6 841.9,348.8 969.1,769.4"
         style="fill:#ed685a;fill-opacity:1;fill-rule:nonzero;stroke:none"
         id="path160" /><path
         d="m 16773.5,16168.4 c -18.2,0 -38.3,1.8 -60.3,6 -139.9,26.5 668.8,655.1 837.2,759.4 154.4,95.5 373,591.2 537.2,591.2 14.9,0 29.4,-4.1 43.4,-13 167.1,-106.7 -192.5,-731.8 -412.6,-818.7 -220.1,-86.9 -804.5,-474.6 -804.5,-474.6 0,0 -43.2,-50.3 -140.4,-50.3"
         style="fill:#f37c6a;fill-opacity:1;fill-rule:nonzero;stroke:none"
         id="path162" /><path
         d="m 14995.6,17512.9 c 31.4,41.6 32.9,109.5 78.2,159.5 46.8,51.6 87.1,94.1 126.6,156 94.4,147.8 194.2,293.1 313.6,422.1 76.4,82.5 160.1,157.9 238.2,238.7 140.1,145 262.1,307.8 359.8,484.1 42.2,76.1 84.2,159.3 160.6,200.9 37.9,20.7 79.4,28.5 122.2,28.5 62.7,0 128.1,-16.9 188.8,-35 30.8,-9.2 62.9,-19.4 85.7,-42.2 22.8,-22.7 32.3,-62.1 12.3,-87.3 -17.4,-21.7 -46.8,-24.3 -75.9,-24.3 -8.5,0 -17,0.2 -25.1,0.3 -0.2,0 -0.4,0 -0.7,0 -137.2,0 -255.2,-92.8 -358.5,-183.3 -452.4,-395.8 -863.8,-838.2 -1225.8,-1318"
         style="fill:#f37c6a;fill-opacity:1;fill-rule:nonzero;stroke:none"
         id="path164" /><path
         d="m 15005.1,16206.2 c -13.6,0 -26.8,3.1 -38,10.5 -16.4,10.8 -26.3,29.1 -33.6,47.3 -49.8,122.6 -14.1,263.7 43.7,382.7 57.8,119 137.1,228 180.5,353 20.6,59.2 32.8,121.3 58,178.7 30.6,69.6 79.2,129.6 127.1,188.7 153.1,188.3 310.5,380.5 518.4,505.5 20.1,12 44.7,23.2 67.2,23.2 11.9,0 23.3,-3.2 33,-11.1 26.2,-21.4 21.2,-62.8 8.6,-94.2 -30.8,-76.4 -19.9,-135.2 -73,-204.6 -46.2,-60.4 -103.9,-110.7 -161.7,-159.5 -112.4,-94.6 -238.9,-185.7 -302.3,-322.9 -31.9,-68.8 -45.3,-145.1 -78.1,-213.5 -46,-96 -128.7,-173.1 -161.5,-274.4 -23.2,-71.9 -19.1,-149.5 -31.8,-224 -12.8,-74.5 -50.1,-153.3 -121.2,-178.9 -11.2,-4.1 -23.4,-6.5 -35.3,-6.5"
         style="fill:#f37c6a;fill-opacity:1;fill-rule:nonzero;stroke:none"
         id="path166" /><path
         d="m 13941,15923.3 c -104.1,126.1 -116.3,337.6 -83.6,491.7 40.2,189.2 77.8,379.1 118.3,568.3 42.9,200.1 102.7,400.3 216.5,570.3 48.3,72.3 106.1,138.4 171.2,196.1 32.7,28.9 68.1,56.2 109.4,70.3 17.3,5.9 35.9,9.2 54.3,9.2 25.4,0 50.6,-6.3 71.5,-20.7 -37.1,-60.9 -72.5,-122.8 -106.1,-185.7 -46.8,-87.4 -90.8,-178.8 -103.1,-277.2 -13,-103.9 10.2,-209.8 -3.1,-313.7 -19.8,-155.4 -118,-288.2 -175.6,-434 -45,-114 -65.2,-236.2 -98.2,-354.3 -33.1,-118.1 -81.9,-236.5 -171.5,-320.3"
         style="fill:#f37c6a;fill-opacity:1;fill-rule:nonzero;stroke:none"
         id="path168" /><path
         d="m 13192.5,15510.3 c -0.9,0 -1.8,0 -2.7,0.1 -29.1,2.7 -34,43.1 -30.2,72.1 16.7,128.4 39.2,256.2 67.5,382.6 41.4,185.3 110.4,357.6 162.8,538.4 28.4,97.6 56.9,192.7 100.8,284.9 22,46.1 46.5,91.1 73.3,134.6 13.5,21.9 82.7,95.3 81,117.5 31.3,-405.8 -143.8,-794.7 -243,-1189.4 -16.1,-63.8 -30.3,-128.6 -57.7,-188.4 -27.4,-59.8 -69.5,-115.3 -128.1,-145.2 -7.4,-3.8 -15.4,-7.2 -23.7,-7.2"
         style="fill:#f37c6a;fill-opacity:1;fill-rule:nonzero;stroke:none"
         id="path170" /><path
         d="m 16917.7,16851.4 c 0,0 193,339.4 258.4,736.7 65.3,397.3 23,675.2 -7.4,639.7 -30.5,-35.4 -32.1,-591 -105.4,-865.7 -73.3,-274.6 -212.5,-554.3 -185.2,-548.2 27.4,6 39.6,37.5 39.6,37.5"
         style="fill:#e55857;fill-opacity:1;fill-rule:nonzero;stroke:none"
         id="path172" /><path
         d="m 16812.1,17545.9 c 0,0 219.3,307 144.7,644.6 -74.7,337.7 39.4,-48.7 -39.9,-295.9 -79.4,-247.3 -179.9,-355.7 -104.8,-348.7"
         style="fill:#e55857;fill-opacity:1;fill-rule:nonzero;stroke:none"
         id="path174" /><path
         d="m 15623.6,15143.5 c 0,0 281.8,354.6 345.7,368.7 63.9,14.1 227.1,11.9 279.6,-139.2 52.6,-151.1 -73.8,-277.2 -73.8,-277.2 l -551.5,47.7"
         style="fill:#e55857;fill-opacity:1;fill-rule:nonzero;stroke:none"
         id="path176" /><path
         d="m 14920.9,15404.9 c -63.4,27 -110.1,25.9 -122.1,25 22.4,-71.7 46.8,-145.1 72.7,-216.2 108.8,-100.5 333.2,-291.5 333.2,-291.5 0,0 -209.8,451.2 -283.8,482.7"
         style="fill:#e55857;fill-opacity:1;fill-rule:nonzero;stroke:none"
         id="path178" /><path
         d="m 14807.3,15399 c 0,0 102.5,13 174.3,-95.5 71.9,-108.6 236.8,-378.4 239.8,-435.2 3,-56.8 -51.9,-155.1 -101.6,-146.9 -49.6,8.2 -267.2,343 -312.5,677.6"
         style="fill:#f98275;fill-opacity:1;fill-rule:nonzero;stroke:none"
         id="path180" /><path
         d="m 13751.9,15610.1 h -0.1 c 11.8,-174.2 30.9,-348.5 61.6,-483.7 l 279.3,-116.3 c 0,0 -42.7,393.8 -101.3,486.1 -58.7,92.3 -144.5,186.9 -239.5,113.9"
         style="fill:#e55857;fill-opacity:1;fill-rule:nonzero;stroke:none"
         id="path182" /><path
         d="m 13752,15575 c 0,0 29.4,36.4 70.2,27.5 40.8,-8.9 131.7,-63 166.1,-160.3 34.4,-97.4 115,-414.4 106.1,-455.3 -8.9,-40.8 -203.5,-148.1 -221.7,-114.2 -18.3,33.9 -112.3,289.7 -120.7,702.3"
         style="fill:#f98275;fill-opacity:1;fill-rule:nonzero;stroke:none"
         id="path184" /><path
         d="m 13230.6,15127.1 c 0,0 46.1,440.9 -18.6,560.6 -47.9,88.6 -115.3,52.3 -147.2,27.5 -28,-124.6 -50.1,-245.2 -61.4,-349.9 l 227.2,-238.2"
         style="fill:#e55857;fill-opacity:1;fill-rule:nonzero;stroke:none"
         id="path186" /><path
         d="m 13064.2,15017 c 0,0 -16.6,43.7 -7.9,47 8.8,3.3 155.2,38.9 174.8,66.3 19.6,27.5 19.8,527.4 -79.9,579.5 -99.8,52.1 -157.9,-189.9 -183.8,-279.7 -25.9,-89.8 -86.7,-482.7 96.8,-413.1"
         style="fill:#f98275;fill-opacity:1;fill-rule:nonzero;stroke:none"
         id="path188" /><path
         d="m 12623.6,16645.2 c 0,0 363.6,189.4 392,233.9 26.3,41.2 -2.7,111 -12.1,143 -131.2,-80.8 -247.9,-161.5 -331,-235.3 l -48.9,-141.6"
         style="fill:#e55857;fill-opacity:1;fill-rule:nonzero;stroke:none"
         id="path190" /><path
         d="m 12983.7,17004.9 c 0,0 29.6,-79.3 -8.9,-117.9 -38.5,-38.6 -341.9,-249.9 -378.1,-259.1 -36.3,-9.1 -124.7,-2.5 -108.9,49.7 15.8,52.2 29.3,113.4 495.9,327.3"
         style="fill:#f98275;fill-opacity:1;fill-rule:nonzero;stroke:none"
         id="path192" /><path
         d="m 15385.7,14904.6 c 0,0 -156.4,310.3 169.3,879.8 0,0 -405.9,-329 -169.3,-879.8"
         style="fill:#e55857;fill-opacity:1;fill-rule:nonzero;stroke:none"
         id="path194" /><path
         d="m 17934.4,19184.1 c 0,0 1082.1,-394.7 1166.8,-1687.4 0,0 792.2,443.1 778.2,593.2 -14,150 -951.2,1749.6 -1079.8,1746.3 -128.7,-3.3 -865.2,-652.1 -865.2,-652.1"
         style="fill:#f1f1f1;fill-opacity:1;fill-rule:nonzero;stroke:none"
         id="path196" /><path
         d="m 19879.4,18089.9 c -5.4,57.9 -148.4,332 -329.4,646.4 l -660.5,-443.4 c 110.1,-216.4 190.9,-479.3 211.7,-796.2 0,0 792.2,443.1 778.2,593.2"
         style="fill:#d8d8d8;fill-opacity:1;fill-rule:nonzero;stroke:none"
         id="path198" /><path
         d="m 18478.7,19997.3 -417.2,-308.6 c 505.8,-42.8 991.1,-781.3 1323.9,-1377.8 332.9,-596.5 211.2,-799.5 211.2,-799.5 0,0 3741.5,2252.7 3779.2,2471.6 0.8,4.5 -0.1,9.3 -2.2,14.3 h -4894.9"
         style="fill:#333333;fill-opacity:1;fill-rule:nonzero;stroke:none"
         id="path200" /><path
         d="m 23368,19997.3 h -2393.4 c -494.8,-512.7 -1742.2,-1416.2 -1742.2,-1416.2 0,0 0.7,-3.2 2.1,-9.3 53.1,-88.2 103.6,-176 150.9,-260.9 332.9,-596.5 211.2,-799.5 211.2,-799.5 0,0 3660.9,2058.5 3779.2,2471.6 1.5,5.2 -1.2,9.9 -7.8,14.3"
         style="fill:#232323;fill-opacity:1;fill-rule:nonzero;stroke:none"
         id="path202" /><path
         d="m 18068.8,19304.6 c 0,0 -154.4,313.3 -7.3,384.1 147.1,70.8 569.6,-151.7 1074.6,-920.8 505,-769 799.6,-1544.9 142.9,-1169 l 292.8,196.2 c 0,0 -192.9,567 -558.3,1051 -365.4,484 -520,622.5 -654.4,688.3 l -290.3,-229.8"
         style="fill:#000000;fill-opacity:1;fill-rule:nonzero;stroke:none"
         id="path204" /><path
         d="m 15444.8,14788.4 c 126.5,-182.6 355.8,-93.6 440,1.6 21.9,24.7 54.3,61.6 92.9,103.6 85.5,-264.6 140.3,-601.4 147.7,-969.2 17.4,-858.5 -229.8,-1559.8 -552.1,-1566.3 l -289.2,-5.9 c -322.4,-6.5 -597.7,684.2 -615.1,1542.8 -17.4,858.6 229.8,1559.9 552.2,1566.4 l 186.4,3.7 c -97.8,-302.6 -62.6,-532.5 37.2,-676.7"
         style="fill:#ed9300;fill-opacity:1;fill-rule:nonzero;stroke:none"
         id="path206" /><path
         d="m 15444.8,14788.4 c 126.5,-182.6 355.8,-93.6 440,1.6 21.9,24.7 54.3,61.6 92.9,103.6 85.5,-264.6 140.3,-601.4 147.7,-969.2 17.4,-858.5 -229.8,-1559.8 -552.1,-1566.3 -322.4,-6.5 -597.7,684.2 -615.1,1542.8 -15.3,756.1 174.7,1390.2 440.4,1535.1 -86.4,-288.2 -50.4,-508.1 46.2,-647.6"
         style="fill:#fdae04;fill-opacity:1;fill-rule:nonzero;stroke:none"
         id="path208" /><path
         d="m 15444.8,14788.4 c 126.4,-182.4 355.4,-93.8 439.8,1.3 76,-228.2 125.6,-532.5 132.4,-867.4 14.4,-714.2 -171.6,-1297.2 -415.4,-1302.1 -243.9,-5 -453.3,570 -467.8,1284.2 -6.5,321.7 27.7,616.8 89.5,844.4 35,128.9 78.8,236.1 129.2,314.3 9.6,-111.4 43,-203.5 92.3,-274.7"
         style="fill:#ed9300;fill-opacity:1;fill-rule:nonzero;stroke:none"
         id="path210" /><path
         d="m 14653.5,13894.7 c 15.8,-782.2 241.9,-1430.5 537.6,-1541.5 8,-3 17,1 20,9 3,8 -1.1,17 -9.1,20 -279.7,105 -502.2,755.5 -517.5,1513.1 -11.1,550 89.2,1064.8 261.9,1343.5 4.5,7.2 2.3,16.8 -5,21.3 -7.3,4.5 -16.8,2.3 -21.4,-5 -175.6,-283.5 -277.7,-804.8 -266.5,-1360.4"
         style="fill:#d37301;fill-opacity:1;fill-rule:nonzero;stroke:none"
         id="path212" /><path
         d="m 15601.9,12604.7 c -74.6,-1.5 -146.1,44.8 -212.5,137.7 -5,7 -3.4,16.6 3.6,21.6 7,5 16.6,3.4 21.6,-3.6 60.1,-84.1 122.9,-126 186.6,-124.7 109.2,2.2 215,138.6 290.2,374.2 77.9,244.4 117,568.3 110.1,912 -6.5,319.8 -52.1,620.7 -129.1,855.2 4.4,4.3 8.6,8.5 12.4,12.9 3.6,4 7.5,8.4 11.6,13 81.2,-239.6 129.4,-550.2 136.1,-880.4 7,-347.1 -32.6,-674.6 -111.6,-922.1 -80.6,-252.7 -193.9,-393.3 -319,-395.8"
         style="fill:#d37301;fill-opacity:1;fill-rule:nonzero;stroke:none"
         id="path214" /><path
         d="m 15238.2,14744.7 c -2.2,-8.3 -10.7,-13.1 -19,-10.9 -6.8,1.9 -11.3,8 -11.4,14.6 -0.1,1.5 0.1,3 0.5,4.4 38.5,142 87.3,255.1 142.6,334.7 0.8,-16.8 2.2,-33.2 4.1,-49.1 -44.2,-73.8 -83.9,-172.7 -116.8,-293.7"
         style="fill:#d37301;fill-opacity:1;fill-rule:nonzero;stroke:none"
         id="path216" /><path
         d="m 15073.2,15370.5 c 0.1,-8.5 7.2,-15.3 15.8,-15.1 l 165.2,3.3 c 8.6,0.2 15.4,7.2 15.2,15.8 -0.2,8.6 -7.2,15.4 -15.8,15.2 l -165.3,-3.3 c -8.5,-0.2 -15.3,-7.3 -15.1,-15.9"
         style="fill:#d37301;fill-opacity:1;fill-rule:nonzero;stroke:none"
         id="path218" /><path
         d="m 14887.8,15082.6 c 0.2,-8.5 7.3,-15.3 15.8,-15.2 l 165.3,3.4 c 8.6,0.1 15.3,7.2 15.2,15.8 -0.2,8.5 -7.3,15.3 -15.8,15.2 l -165.3,-3.4 c -8.6,-0.1 -15.4,-7.2 -15.2,-15.8"
         style="fill:#d37301;fill-opacity:1;fill-rule:nonzero;stroke:none"
         id="path220" /><path
         d="m 14818.9,14915.9 c 0.1,-8.6 7.2,-15.4 15.8,-15.2 l 165.2,3.4 c 8.6,0.1 15.4,7.2 15.2,15.8 -0.2,8.5 -7.2,15.3 -15.8,15.1 l -165.3,-3.3 c -8.5,-0.2 -15.3,-7.3 -15.1,-15.8"
         style="fill:#d37301;fill-opacity:1;fill-rule:nonzero;stroke:none"
         id="path222" /><path
         d="m 14707.3,13787.3 c 0.2,-8.6 7.3,-15.4 15.9,-15.2 l 165.2,3.3 c 8.6,0.2 15.4,7.3 15.2,15.8 -0.2,8.6 -7.3,15.4 -15.8,15.2 l -165.3,-3.3 c -8.5,-0.2 -15.3,-7.3 -15.2,-15.8"
         style="fill:#d37301;fill-opacity:1;fill-rule:nonzero;stroke:none"
         id="path224" /><path
         d="m 14743.3,13540 c 0.2,-8.6 7.3,-15.4 15.9,-15.2 l 165.2,3.4 c 8.6,0.1 15.4,7.2 15.2,15.8 -0.2,8.5 -7.2,15.3 -15.8,15.2 l -165.3,-3.4 c -8.5,-0.2 -15.3,-7.2 -15.2,-15.8"
         style="fill:#d37301;fill-opacity:1;fill-rule:nonzero;stroke:none"
         id="path226" /><path
         d="m 14814.5,13086.8 c 0.2,-8.6 7.3,-15.4 15.8,-15.2 l 165.3,3.3 c 8.5,0.2 15.3,7.3 15.2,15.8 -0.2,8.6 -7.3,15.4 -15.8,15.2 l -165.3,-3.3 c -8.6,-0.2 -15.4,-7.3 -15.2,-15.8"
         style="fill:#d37301;fill-opacity:1;fill-rule:nonzero;stroke:none"
         id="path228" /><path
         d="m 15030.9,12605.5 c 0.2,-8.6 7.3,-15.4 15.8,-15.2 l 165.3,3.3 c 8.5,0.2 15.4,7.3 15.2,15.8 -0.2,8.6 -7.3,15.4 -15.8,15.2 l -165.3,-3.3 c -8.6,-0.2 -15.4,-7.3 -15.2,-15.8"
         style="fill:#d37301;fill-opacity:1;fill-rule:nonzero;stroke:none"
         id="path230" /><path
         d="m 15053.3,12523.2 c 0.1,-8.5 7.2,-15.3 15.8,-15.1 l 165.2,3.3 c 8.6,0.2 15.4,7.3 15.2,15.8 -0.2,8.6 -7.2,15.4 -15.8,15.2 l -165.3,-3.3 c -8.5,-0.2 -15.3,-7.3 -15.1,-15.9"
         style="fill:#d37301;fill-opacity:1;fill-rule:nonzero;stroke:none"
         id="path232" /><path
         d="m 15635.2,13289.5 9.6,185.2 c 37.7,-119.6 30.1,-179.7 -9.6,-185.2 z m -6,1126.1 -22.9,-489.5 c -18.1,43.9 -35.6,86.4 -51.6,126.8 l 19.9,426.2 c 16.3,-15.2 34.4,-36.4 54.6,-63.5 z m -89.4,-678.5 c 17.5,-41.9 34.9,-82.8 51.8,-122.5 l -14.4,-308.2 c -16.7,9.4 -35.4,22.8 -55.7,39.8 z m -22.8,767.6 -15.9,-304.9 c -16.5,52.1 -26.3,96.3 -26,129.5 0.9,110.4 14.9,165.7 41.9,175.4 z m 144.3,-713.7 28,537.1 c 33.7,-52.2 71.4,-114.8 113.2,-186.3 0,0 1.1,128.5 1.7,198.5 0,0 -44,81 -105.4,171.4 l 9.3,178.4 c -21.7,-5 -44,-7.7 -66.4,-7.6 l -4,-86.3 c -17.7,22.8 -36,44.7 -54.5,64.7 l 1.3,28.2 c -34.7,8.3 -68.2,25 -98.4,52.2 -51,26.4 -96.8,18.5 -126.8,-52.3 -85,-200.9 8.3,-517.4 124.8,-814.5 l -24.5,-470.3 c -39.1,40.2 -82.1,90.4 -128.2,150.6 l -1.6,-198.6 c 0,0 51.2,-67.3 120.2,-137.4 l -7.1,-135.9 62.9,-72.7 6.9,149.2 c 18.2,-15.8 36.9,-30.8 55.5,-44 l -8.6,-184.2 54,-55.6 10.8,206.2 c 73.5,-35.3 139.9,-28 169.8,78.9 43.1,154.2 -40.5,399.1 -132.9,630.3"
         style="fill:#d37301;fill-opacity:1;fill-rule:nonzero;stroke:none"
         id="path234" /><path
         d="m 15966.9,15467.9 c 0,0 -402.4,-355.5 -397.6,-383.1 4.9,-27.7 87,-440.3 114.7,-435.4 27.6,4.9 351.4,213.7 477.1,416.2 125.7,202.5 51,303.2 13.7,353.6 -37.3,50.3 -137.5,80.1 -207.9,48.7"
         style="fill:#f98275;fill-opacity:1;fill-rule:nonzero;stroke:none"
         id="path236" /><path
         d="m 6726.75,2276.4 c 0,-110.4 -830.78,-199.8 -1855.6,-199.8 -1024.82,0 -1855.6,89.4 -1855.6,199.8 0,110.3 830.78,199.8 1855.6,199.8 1024.82,0 1855.6,-89.5 1855.6,-199.8"
         style="fill:#b6d0d8;fill-opacity:1;fill-rule:nonzero;stroke:none"
         id="path238" /><path
         d="m 7288.5,6671.4 c 0,0 163.01,132.3 192.94,102.3 29.92,-30 -63.4,-77.9 -37.98,-92 25.42,-14.2 200.71,61.3 230.06,18.3 24.98,-36.6 -169.64,-65.3 -162.3,-76.1 7.33,-10.7 175.73,-31.3 187.57,-57.8 11.84,-26.6 -48.65,-39.5 -156.56,-6.1 0,0 -46.34,12.5 -44.09,4.6 2.26,-7.9 145.17,-74.2 133.85,-94.6 -11.33,-20.3 -49.75,-5.5 -159.33,48.8 0,0 -20.34,11.4 -13,0.6 7.33,-10.7 115.76,-91.1 66.01,-96.7 -49.74,-5.6 -279,168.8 -279,168.8 l 41.83,79.9"
         style="fill:#f07461;fill-opacity:1;fill-rule:nonzero;stroke:none"
         id="path240" /><path
         d="m 7148.99,6721.3 134.39,-34.7 c 0,0 18.24,-92.7 -26.31,-128 l -118.37,-1.8 10.29,164.5"
         style="fill:#ffffff;fill-opacity:1;fill-rule:nonzero;stroke:none"
         id="path242" /><path
         d="m 3904.83,2273.9 c 10.12,-3 20.46,-4.8 30.97,-5.6 71.61,-5 447.47,-28.7 456.79,31.8 10.3,66.9 -106.85,221.9 -391.28,113.3 -226.35,-86.5 -140.17,-126.8 -96.48,-139.5"
         style="fill:#2b2b2b;fill-opacity:1;fill-rule:nonzero;stroke:none"
         id="path244" /><path
         d="m 4001.31,2413.4 c 12.95,4.9 25.54,9.3 37.79,13.2 -54.73,-56 47.58,-126.5 209.33,-126.5 99.41,0 128.7,25.2 134,49.4 8.99,-18.2 12.27,-35.6 10.16,-49.4 -9.32,-60.5 -385.18,-36.8 -456.79,-31.8 -10.51,0.8 -20.85,2.6 -30.97,5.6 -43.69,12.7 -129.87,53 96.48,139.5"
         style="fill:#1a1a1a;fill-opacity:1;fill-rule:nonzero;stroke:none"
         id="path246" /><path
         d="m 3917.69,2376.8 144.97,501.2 c 3.11,10.8 14.19,17.2 25.06,14.5 l 61.33,-15.4 c 11.89,-3 18.66,-15.5 14.61,-27.1 l -158.79,-453.7 c -8.49,-24.2 -29.97,-41.6 -55.47,-44.8 l -9.09,-1.1 c -14.86,-1.9 -26.77,12 -22.62,26.4"
         style="fill:#e85653;fill-opacity:1;fill-rule:nonzero;stroke:none"
         id="path248" /><path
         d="m 5245.04,2215.3 c 10.12,-2.9 20.46,-4.7 30.98,-5.5 71.61,-5 447.47,-28.8 456.78,31.8 10.3,66.9 -106.85,221.8 -391.28,113.2 -226.35,-86.4 -140.17,-126.7 -96.48,-139.5"
         style="fill:#2b2b2b;fill-opacity:1;fill-rule:nonzero;stroke:none"
         id="path250" /><path
         d="m 5341.52,2354.8 c 12.95,5 25.54,9.4 37.8,13.3 -54.74,-56 47.58,-126.5 209.33,-126.5 99.4,0 128.69,25.2 133.99,49.3 9,-18.1 12.28,-35.6 10.16,-49.3 -9.31,-60.6 -385.17,-36.8 -456.78,-31.8 -10.52,0.8 -20.86,2.6 -30.98,5.5 -43.69,12.8 -129.87,53.1 96.48,139.5"
         style="fill:#1a1a1a;fill-opacity:1;fill-rule:nonzero;stroke:none"
         id="path252" /><path
         d="m 5257.91,2318.3 31.69,573.3 c 3.12,10.7 14.2,17.1 25.07,14.4 l 61.33,-15.3 c 11.89,-3 18.66,-15.6 14.61,-27.1 l -45.53,-525.8 c -8.49,-24.3 -29.97,-41.6 -55.46,-44.8 l -9.1,-1.2 c -14.86,-1.8 -26.77,12.1 -22.61,26.5"
         style="fill:#f5735d;fill-opacity:1;fill-rule:nonzero;stroke:none"
         id="path254" /><path
         d="m 4422.92,6218.7 c 0,0 -41.19,-1570.2 -30.9,-1765.9 C 4402.32,4257.2 4030,2822.7 4030,2822.7 c 0,0 -41.18,25.7 -51.48,-5.2 -10.3,-30.9 -66.93,-154.4 -10.3,-175 56.64,-20.6 175.05,-72.1 190.5,-36.1 15.44,36.1 87.52,175.1 0,190.5 0,0 583.39,1377.9 629.73,1599.3 46.34,221.4 139.01,772.2 139.01,772.2 0,0 308.9,-808.3 319.2,-849.4 10.29,-41.2 15.44,-1576.3 15.44,-1576.3 0,0 -51.48,5.2 -56.63,-30.9 -5.15,-36 -20.59,-144.1 20.59,-154.4 41.19,-10.3 221.39,-36 231.68,0 10.3,36 41.19,180.2 -56.63,185.3 0,0 267.72,1576.3 252.27,1730.7 -15.45,154.5 -216.23,1719.6 -216.23,1719.6 l -1014.23,25.7"
         style="fill:#333333;fill-opacity:1;fill-rule:nonzero;stroke:none"
         id="path256" /><path
         d="m 4927.46,5168.4 c 0,0 -100.4,301.2 -133.86,494.3 0,0 -357.81,-12.9 -374.21,418.2 -9.74,-387.4 -35.79,-1468 -27.37,-1628.1 C 4402.32,4257.2 4030,2822.7 4030,2822.7 c 0,0 -41.18,25.7 -51.48,-5.2 -10.3,-30.9 -66.93,-154.4 -10.3,-175 56.64,-20.6 175.05,-72.1 190.5,-36.1 15.44,36.1 87.52,175.1 0,190.5 0,0 583.39,1377.9 629.73,1599.3 46.34,221.4 139.01,772.2 139.01,772.2"
         style="fill:#2b2b2b;fill-opacity:1;fill-rule:nonzero;stroke:none"
         id="path258" /><path
         d="m 4792.3,5663.5 c -1.21,7 -7.85,11.7 -14.87,10.5 -7.01,-1.2 -11.7,-7.8 -10.5,-14.8 0.4,-2.4 37.33,-212.4 151.53,-543.9 5.68,33.4 9,53.1 9,53.1 0,0 0.35,-0.9 1.02,-2.6 -102.24,304.8 -135.79,495.5 -136.18,497.7"
         style="fill:#1a1a1a;fill-opacity:1;fill-rule:nonzero;stroke:none"
         id="path260" /><path
         d="m 4140.42,2792.9 h 0.88 c 6.71,0.1 12.28,5.3 12.65,12.1 0.37,7.1 -5.07,13.2 -12.16,13.6 -0.61,0 -49.65,3 -104.91,29.7 -3.95,-14.8 -6.3,-23.5 -6.78,-25.3 57.87,-27 107.71,-30 110.32,-30.1"
         style="fill:#1a1a1a;fill-opacity:1;fill-rule:nonzero;stroke:none"
         id="path262" /><path
         d="m 5111.95,8739.8 -21.99,-538.8 208.94,-16.5 -16.5,219.9 c 0,0 115.47,-77 208.94,-16.5 83.22,53.9 38.49,439.9 38.49,439.9 l -417.88,-88"
         style="fill:#f5735d;fill-opacity:1;fill-rule:nonzero;stroke:none"
         id="path264" /><path
         d="m 5384.3,8231.4 c 0,0 -21.4,104.3 -35.99,105.4 -14.59,1.1 -319.84,39.1 -351.24,12.1 -31.4,-26.9 -35.85,-85.3 -35.85,-85.3 l 423.08,-32.2"
         style="fill:#efefef;fill-opacity:1;fill-rule:nonzero;stroke:none"
         id="path266" /><path
         d="m 5555.05,7968.9 c 0,0 -68.63,254.7 -124.76,288.3 -56.13,33.6 -448.92,78.2 -496.02,37.8 -47.1,-40.4 -41.27,-349 -41.27,-349 l 662.05,22.9"
         style="fill:#2b2b2b;fill-opacity:1;fill-rule:nonzero;stroke:none"
         id="path268" /><path
         d="m 7227.1,6718.7 c -546.99,213.5 -800.47,533.7 -800.47,533.7 -453.61,693.7 -542.28,829.3 -968.89,933 -228.59,55.6 -988.91,99.4 -1148.09,-319.2 -151.76,-399 51.48,-1831.7 51.48,-1831.7 777.03,-366.9 1163.54,-3.3 1163.54,-3.3 87.52,288.3 288.26,901 288.26,901 0,0 287.19,-226.4 532.91,-304.2 387.64,-122.8 867.92,-96.1 867.92,-96.1 26.68,53.4 40.02,133.4 13.34,186.8"
         style="fill:#333333;fill-opacity:1;fill-rule:nonzero;stroke:none"
         id="path270" /><path
         d="m 5290.65,8566.6 c 0,0 -115.46,-192.4 -258.42,-110 -142.96,82.5 -65.98,258.5 -65.98,258.5 0,0 -87.98,-33 -87.98,0 0,32.9 82.48,27.4 82.48,27.4 0,0 -115.47,49.5 -82.48,110 32.99,60.5 104.47,-11 104.47,-11 0,0 60.48,225.5 373.89,285.9 313.41,60.5 406.88,-351.9 -49.49,-434.3 0,0 -97.68,88.9 -120.96,-27.5 -32.99,-165 104.47,-99 104.47,-99"
         style="fill:#2f8ac2;fill-opacity:1;fill-rule:nonzero;stroke:none"
         id="path272" /><path
         d="m 4960.75,8742.5 c 0,0 -82.48,5.5 -82.48,-27.4 0,-33 87.98,0 87.98,0 0,0 -76.98,-176 65.98,-258.5 142.96,-82.4 258.42,110 258.42,110 0,0 -137.46,-66 -104.47,99 23.28,116.4 120.96,27.5 120.96,27.5 241.79,43.7 329.21,179.9 311.39,289.5 -22.41,-169.2 -392.89,-259.7 -520.32,-212.6 -93.84,34.8 -80.03,120.1 -57.17,178.1 -45.25,-58 -58.3,-106.6 -58.3,-106.6 0,0 -71.48,71.5 -104.47,11 -32.99,-60.5 82.48,-110 82.48,-110"
         style="fill:#1279a9;fill-opacity:1;fill-rule:nonzero;stroke:none"
         id="path274" /><path
         d="m 7115.29,6586.8 c -0.84,-8.1 -17.81,-12.9 -37.9,-10.8 -20.09,2.1 -35.7,10.3 -34.86,18.4 0.84,8 17.81,12.8 37.9,10.7 20.09,-2.1 35.7,-10.3 34.86,-18.3"
         style="fill:#1a1a1a;fill-opacity:1;fill-rule:nonzero;stroke:none"
         id="path276" /><path
         d="m 5620.33,7158.5 c -81.09,-307.6 -284.31,-758.6 -777.82,-741.6 -335.56,11.6 -496.34,244.8 -571.69,497.9 33.37,-442.5 90.31,-880.3 90.31,-880.3 777.03,-366.9 1163.54,-3.3 1163.54,-3.3 64.82,213.6 215.73,676.8 289.67,899.4 -58.14,49 -137.67,127.5 -194.01,227.9"
         style="fill:#2b2b2b;fill-opacity:1;fill-rule:nonzero;stroke:none"
         id="path278" /><path
         d="m 7112.95,6521 c -359.68,0 -632.05,36.2 -810.61,107.9 -277.44,111.4 -459.91,258.6 -564.12,362.6 -113.28,113 -160.13,198.5 -162.06,202.1 -2.98,5.5 -0.94,12.4 4.57,15.4 5.52,3 12.38,0.9 15.37,-4.6 0.46,-0.9 47.66,-86.8 158.9,-197.6 102.65,-102.2 282.39,-247.1 555.79,-356.9 192.08,-77.1 495.74,-112.5 902.75,-105.3 h 0.2 c 6.17,0 11.23,-5 11.33,-11.2 0.12,-6.2 -4.87,-11.4 -11.14,-11.5 -34.38,-0.6 -68.06,-0.9 -100.98,-0.9"
         style="fill:#1a1a1a;fill-opacity:1;fill-rule:nonzero;stroke:none"
         id="path280" /><path
         d="m 5010.2,5857.1 c -173.56,0 -390.1,40.5 -649.41,162.1 -7,3.3 -10.01,11.6 -6.73,18.6 3.27,7 11.63,10 18.61,6.7 718.69,-336.9 1097.55,-41.4 1138.41,-6.6 5.85,5 14.71,4.3 19.73,-1.6 5.01,-5.9 4.3,-14.7 -1.58,-19.7 -27.33,-23.3 -200.96,-159.5 -519.03,-159.5"
         style="fill:#1a1a1a;fill-opacity:1;fill-rule:nonzero;stroke:none"
         id="path282" /><path
         d="m 14560,2211.2 c 0,-159.5 -1501.2,-288.9 -3352.9,-288.9 -1851.8,0 -3352.96,129.4 -3352.96,288.9 0,159.6 1501.16,288.9 3352.96,288.9 1851.7,0 3352.9,-129.3 3352.9,-288.9"
         style="fill:#b6d0d8;fill-opacity:1;fill-rule:nonzero;stroke:none"
         id="path284" /><path
         d="m 13834,5968.7 c 0,0 -110.9,-144.1 -84.2,-169.4 26.6,-25.2 66,56.7 78.8,35 12.9,-21.7 -48.5,-175.1 -10.7,-199.6 32.3,-20.8 52.8,148.4 62.2,142.3 9.5,-6.1 31.1,-151.5 54.4,-161.1 23.3,-9.6 33.1,43 1.7,135.7 0,0 -11.9,39.8 -5,38 6.9,-1.7 67.6,-123.9 84.9,-113.7 17.3,10.3 3.7,43.2 -45.9,136.8 0,0 -10.2,17.4 -0.8,11.3 9.5,-6.1 81.6,-98.2 85.3,-55 3.7,43.2 -152.5,237.7 -152.5,237.7 l -68.2,-38"
         style="fill:#f27461;fill-opacity:1;fill-rule:nonzero;stroke:none"
         id="path286" /><path
         d="m 12356.7,2272 -55.5,527 -101.3,-25.3 76,-491.6 80.8,-10.1"
         style="fill:#f87258;fill-opacity:1;fill-rule:nonzero;stroke:none"
         id="path288" /><path
         d="m 12360.7,2200.6 c -10,-2.9 -20.2,-4.7 -30.5,-5.4 -70.5,-5 -440.4,-28.4 -449.6,31.2 -10.1,65.9 105.2,218.4 385.1,111.5 222.8,-85.1 138,-124.8 95,-137.3"
         style="fill:#2f8ac2;fill-opacity:1;fill-rule:nonzero;stroke:none"
         id="path290" /><path
         d="m 12265.7,2337.9 c -12.7,4.9 -25.1,9.2 -37.2,13 53.9,-55.1 -46.8,-124.5 -206,-124.5 -97.8,0 -126.7,24.8 -131.9,48.6 -8.8,-17.9 -12.1,-35 -10,-48.6 9.2,-59.6 379.1,-36.2 449.6,-31.2 10.3,0.7 20.5,2.5 30.5,5.4 43,12.5 127.8,52.2 -95,137.3"
         style="fill:#1279a9;fill-opacity:1;fill-rule:nonzero;stroke:none"
         id="path292" /><path
         d="m 13264.6,3003.2 -349.5,398.3 -68.2,-79.2 345.8,-357.5 71.9,38.4"
         style="fill:#eb544f;fill-opacity:1;fill-rule:nonzero;stroke:none"
         id="path294" /><path
         d="m 13300.1,2966.9 c -5.3,-8.9 -11.5,-17.2 -18.5,-24.8 -48.1,-51.8 -302,-321.8 -349.5,-284.6 -52.4,41.1 -72.5,231.2 204.8,344.7 220.7,90.2 186,3.2 163.2,-35.3"
         style="fill:#2f8ac2;fill-opacity:1;fill-rule:nonzero;stroke:none"
         id="path296" /><path
         d="m 13136.9,3002.2 c -12.6,-5.2 -24.6,-10.5 -36,-16 77,-3.3 50.9,-122.8 -65.2,-231.7 -71.4,-66.9 -109.4,-68.5 -129.5,-54.7 5.8,-19.1 15.2,-33.9 25.9,-42.3 47.5,-37.2 301.4,232.8 349.5,284.6 7,7.6 13.2,15.9 18.5,24.8 22.8,38.5 57.5,125.5 -163.2,35.3"
         style="fill:#1279a9;fill-opacity:1;fill-rule:nonzero;stroke:none"
         id="path298" /><path
         d="M 11884.3,6174 11741,4451.5 c -1.2,-18.2 5.3,-36.1 17.9,-49.3 l 1222.3,-1281.4 120.8,127.9 -954.6,1160.2 333.6,1737.4 -596.7,27.7"
         style="fill:#4c1854;fill-opacity:1;fill-rule:nonzero;stroke:none"
         id="path300" /><path
         d="m 12813.4,6142.4 -621.1,-1952.5 162.1,-1555.6 -182.4,-20.3 -265.3,1635.4 164,1937 742.7,-44"
         style="fill:#5a2960;fill-opacity:1;fill-rule:nonzero;stroke:none"
         id="path302" /><path
         d="m 12302.8,2628.6 51.6,5.7 -162.1,1555.6 621.1,1952.5 -742.7,44 -31,-370.9 c 52.7,61.9 226.5,229.8 403.4,39 192.5,-207.8 -354.7,-1667.1 -354.7,-1667.1 l 214.4,-1558.8"
         style="fill:#4c1854;fill-opacity:1;fill-rule:nonzero;stroke:none"
         id="path304" /><path
         d="m 11906.7,4247.3 149.2,1650.9 c 0.2,2.2 -0.2,4.5 -1.2,6.5 l -46.1,97.1 c -3,6.3 -10.5,9 -16.9,6 -6.3,-3 -9,-10.6 -6,-16.9 l 44.6,-94 -148.7,-1623.3 25.1,-26.3"
         style="fill:#3a0d45;fill-opacity:1;fill-rule:nonzero;stroke:none"
         id="path306" /><path
         d="m 12298.6,8156.7 c 0,0 -287.3,-25.9 -391.9,-52 -431.8,-108 -1050.8,-1012.4 -1057.6,-284.1 0,0 -118,31.4 -183.4,-7.8 0,0 -301.1,-1328.7 980.6,-645.2 0,0 114.9,-860.1 184,-1026.1 0,0 568.7,-159.4 1019.1,-23.3 0,0 104.4,662.4 202,938.7 0,0 66.6,-96.7 304.3,-286.9 0,0 152.1,-247.1 456.3,-817.5 0,0 57,9.5 114.1,47.5 0,0 -34.4,468.7 -171.1,903.1 -161.7,513.4 -391.9,1178.1 -1456.4,1253.6"
         style="fill:#cc2276;fill-opacity:1;fill-rule:nonzero;stroke:none"
         id="path308" /><path
         d="m 12042.5,8128.1 c -20.6,-67.8 -55.7,-407.4 181.9,-445.5 231.1,-36.9 448.3,332.4 463.6,408.9 l -0.1,0.5 c -137.6,45.4 -250.5,54.9 -389.3,64.7 0,0 -130.8,-4 -256.1,-28.6"
         style="fill:#f27461;fill-opacity:1;fill-rule:nonzero;stroke:none"
         id="path310" /><path
         d="m 12849.4,6118.2 c 0,0 102.7,651.5 199.6,931.8 -54.6,62.3 -64.1,43.2 -168.6,242.9 0,0 152.5,-782.2 -603.7,-913.2 -270.9,-47 -467.5,78.1 -545.6,221.6 33.2,-198.9 70.2,-390.3 99.2,-459.8 0,0 568.7,-159.4 1019.1,-23.3"
         style="fill:#b5106b;fill-opacity:1;fill-rule:nonzero;stroke:none"
         id="path312" /><path
         d="m 12430.1,6159.9 c -299,0 -580.8,50.5 -625.5,58.9 -7,1.3 -11.7,8.1 -10.4,15.2 1.4,7.1 8.1,11.7 15.2,10.4 66.1,-12.4 656.9,-118.2 1043,-11.2 6.9,1.9 14,-2.2 16,-9.1 1.9,-6.9 -2.2,-14.1 -9.1,-16 -129.6,-35.9 -281.5,-48.2 -429.2,-48.2"
         style="fill:#81034f;fill-opacity:1;fill-rule:nonzero;stroke:none"
         id="path314" /><path
         d="m 12875.4,7313.2 c 6,2.7 13,0.1 15.8,-5.8 39.5,-85.6 116.9,-195.7 159.3,-253.3 -3.1,-8.8 -6.2,-18 -9.3,-27.5 -39.5,52.9 -127.3,174.9 -171.6,270.8 -2.8,6 -0.2,13 5.8,15.8"
         style="fill:#81034f;fill-opacity:1;fill-rule:nonzero;stroke:none"
         id="path316" /><path
         d="m 13442.4,8806 c -242.6,252.9 -542.1,-299.4 -753.7,-289.1 l -78,10.6 c 35.9,73.9 47.3,167.2 -4.6,278.5 -145.7,312.2 -609.2,216.8 -671.1,-20.7 -62,-237.4 149.7,-299.4 149.7,-299.4 l 320.1,-160 c 0,0 100.6,49.6 170.7,144 l 56.4,-30.4 c 0,0 20.6,-253 294.3,-268.5 273.6,-15.5 320,278.8 485.2,41.3 0,0 273.6,340.7 31,593.7"
         style="fill:#aa3b30;fill-opacity:1;fill-rule:nonzero;stroke:none"
         id="path318" /><path
         d="m 13403.7,8612.4 c -191.5,80.1 -242.7,-134.2 -475,-216.8 -232.3,-82.6 -309.7,77.4 -309.7,77.4 l 24.8,50 -33.1,4.5 c 35.9,73.9 47.3,167.2 -4.6,278.5 -37.4,80 -95.7,133.2 -162.7,164.2 63,-53.8 104.8,-132.3 56.9,-223.6 -80.1,-152.3 -322.7,-18 -322.7,-18 2.3,-116.5 140.3,-325.8 179.7,-379 l 47.5,-23.7 c 0,0 100.6,49.6 170.7,144 l 56.4,-30.4 c 0,0 20.6,-253 294.3,-268.5 273.6,-15.5 320,278.8 485.2,41.3 l 1,1.3 c 71.3,138.1 133.2,339.4 -8.7,398.8"
         style="fill:#891a1a;fill-opacity:1;fill-rule:nonzero;stroke:none"
         id="path320" /><path
         d="m 12515.5,8403.4 c 0,0 106.1,92.8 125.9,246.8 0,0 140.2,-35.2 67.9,-179.8 -65.1,-130.3 -193.8,-67 -193.8,-67"
         style="fill:#ffb002;fill-opacity:1;fill-rule:nonzero;stroke:none"
         id="path322" /><path
         d="m 12593.2,8505 c -36,-65.1 -77.7,-101.6 -77.7,-101.6 0,0 128.7,-63.3 193.8,67 6.3,12.5 10.9,24.2 14.2,35 -50.6,-44.3 -116.7,-8.6 -130.3,-0.4"
         style="fill:#ef9500;fill-opacity:1;fill-rule:nonzero;stroke:none"
         id="path324" /><path
         d="m 12048.6,8635.6 c 0,0 -36.2,-325.2 123.9,-314.9 160,10.4 237.4,123.9 237.4,123.9 0,0 118.8,-20.6 118.8,77.5 0,98 -93,118.7 -123.9,51.6 0,0 -160.1,5.1 -227.2,154.9 0,0 -51.6,-72.3 -129,-93"
         style="fill:#f27461;fill-opacity:1;fill-rule:nonzero;stroke:none"
         id="path326" /><path
         d="m 12208.3,8114.4 12.1,300.6 194.7,45.1 17.7,-343.3 c -74.9,-1.6 -149.7,-2.2 -224.5,-2.4"
         style="fill:#f27461;fill-opacity:1;fill-rule:nonzero;stroke:none"
         id="path328" /><path
         d="m 12347.2,8404.7 c -0.1,-0.1 -10.7,-17.5 -36.6,-36.5 -18.8,-13.8 -49.2,-30.6 -93.2,-40.9 l -4.8,-134.4 c 160.5,42.5 138.2,217.9 134.6,211.8"
         style="fill:#e55857;fill-opacity:1;fill-rule:nonzero;stroke:none"
         id="path330" /><path
         d="m 12109.7,8460.2 c 0,0 61.5,-30.8 113.6,6.8 0,0 -54.3,-150.7 -113.6,-6.8"
         style="fill:#ffffff;fill-opacity:1;fill-rule:nonzero;stroke:none"
         id="path332" /><path
         d="m 12399.6,8568.5 -1.3,0.1 c -134.7,16.8 -200.5,114.6 -222,154.6 -56.9,-78.1 -162.1,-101.8 -166.8,-102.8 -5.6,-1.2 -11.1,2.3 -12.3,7.9 -1.2,5.5 2.3,11 7.9,12.3 1.1,0.2 115,26 163.6,108.7 l 10.8,18.3 7.7,-19.8 c 0.6,-1.4 56.8,-139.1 213.7,-158.7 5.6,-0.7 9.6,-5.9 8.9,-11.5 -0.6,-5.3 -5.1,-9.1 -10.2,-9.1"
         style="fill:#891a1a;fill-opacity:1;fill-rule:nonzero;stroke:none"
         id="path334" /><path
         d="m 10849.1,7820.6 c 0,0 -118,31.4 -183.4,-7.8 0,0 -301,-1328.1 979.9,-645.6 -22.6,212.9 -57,748 145.3,893 -418.6,-207.9 -935.6,-904.9 -941.8,-239.6"
         style="fill:#b5106b;fill-opacity:1;fill-rule:nonzero;stroke:none"
         id="path336" /><path
         d="m 7981.68,6742.1 c 0,0 -151.68,119.7 -178.82,91.7 -27.15,-28 59.32,-70.9 36.11,-84.2 -23.2,-13.4 -185.45,53.9 -211.9,14 -22.52,-34 156.91,-58 150.3,-68 -6.61,-10 -161.3,-31 -171.85,-55.6 -10.55,-24.6 45.27,-35.8 144.13,-3.6 0,0 42.47,12.1 40.5,4.8 -1.97,-7.3 -132.62,-70.1 -121.94,-88.7 10.68,-18.6 45.84,-4.5 145.97,46.9 0,0 18.56,10.7 11.95,0.7 -6.61,-10 -105.34,-85.3 -59.5,-89.8 45.84,-4.5 254.55,158.8 254.55,158.8 l -39.5,73"
         style="fill:#e55857;fill-opacity:1;fill-rule:nonzero;stroke:none"
         id="path338" /><path
         d="m 9982.44,2281 -55.6,528.1 -101.56,-25.4 76.17,-492.5 80.99,-10.2"
         style="fill:#f27461;fill-opacity:1;fill-rule:nonzero;stroke:none"
         id="path340" /><path
         d="m 9986.46,2209.4 c -9.99,-2.9 -20.19,-4.7 -30.56,-5.4 -70.63,-5 -441.34,-28.4 -450.53,31.3 -10.16,66 105.39,218.8 385.92,111.7 223.21,-85.2 138.21,-125 95.17,-137.6"
         style="fill:#562f5e;fill-opacity:1;fill-rule:nonzero;stroke:none"
         id="path342" /><path
         d="m 9891.29,2347 c -12.76,4.9 -25.19,9.2 -37.27,13.1 53.98,-55.2 -46.94,-124.8 -206.47,-124.8 -98.04,0 -126.93,24.9 -132.15,48.7 -8.88,-17.9 -12.11,-35.1 -10.03,-48.7 9.19,-59.7 379.9,-36.3 450.53,-31.3 10.37,0.7 20.57,2.5 30.56,5.4 43.04,12.6 128.04,52.4 -95.17,137.6"
         style="fill:#371443;fill-opacity:1;fill-rule:nonzero;stroke:none"
         id="path344" /><path
         d="m 10892.3,3013.7 -350.3,399.2 -68.3,-79.3 346.6,-358.3 72,38.4"
         style="fill:#e55857;fill-opacity:1;fill-rule:nonzero;stroke:none"
         id="path346" /><path
         d="m 10927.9,2977.4 c -5.3,-9 -11.6,-17.2 -18.6,-24.9 -48.1,-51.9 -302.6,-322.5 -350.2,-285.2 -52.5,41.2 -72.7,231.7 205.2,345.4 221.2,90.5 186.4,3.3 163.6,-35.3"
         style="fill:#562f5e;fill-opacity:1;fill-rule:nonzero;stroke:none"
         id="path348" /><path
         d="m 10764.3,3012.7 c -12.6,-5.2 -24.6,-10.5 -36.1,-16 77.2,-3.3 51.1,-123.1 -65.3,-232.2 -71.6,-67 -109.7,-68.6 -129.8,-54.8 5.8,-19.1 15.2,-33.9 26,-42.4 47.6,-37.3 302.1,233.3 350.2,285.2 7,7.7 13.3,15.9 18.6,24.9 22.8,38.6 57.6,125.8 -163.6,35.3"
         style="fill:#371443;fill-opacity:1;fill-rule:nonzero;stroke:none"
         id="path350" /><path
         d="M 9509.08,6191.4 9365.42,4465.1 c -1.17,-18.2 5.34,-36.1 17.96,-49.4 l 1224.92,-1284.1 121,128.2 -956.56,1162.7 334.36,1741.1 -598.02,27.8"
         style="fill:#1279a9;fill-opacity:1;fill-rule:nonzero;stroke:none"
         id="path352" /><path
         d="M 10440.1,6159.6 9817.67,4203 l 162.49,-1558.9 -182.81,-20.3 -265.86,1638.8 164.31,1941.1 744.3,-44.1"
         style="fill:#2f8ac2;fill-opacity:1;fill-rule:nonzero;stroke:none"
         id="path354" /><path
         d="m 9928.43,2638.3 51.73,5.8 -162.49,1558.9 622.43,1956.6 -744.3,44.1 -30.98,-371.7 c 52.8,62.1 226.98,230.3 404.18,39.1 193,-208.2 -355.44,-1670.6 -355.44,-1670.6 l 214.87,-1562.2"
         style="fill:#1279a9;fill-opacity:1;fill-rule:nonzero;stroke:none"
         id="path356" /><path
         d="m 9531.53,4260.5 149.45,1654.4 c 0.19,2.3 -0.21,4.5 -1.18,6.5 l -46.17,97.3 c -3,6.4 -10.57,9.1 -16.91,6.1 -6.33,-3.1 -9.03,-10.6 -6.03,-17 l 44.72,-94.2 -149.03,-1626.8 25.15,-26.3"
         style="fill:#085d77;fill-opacity:1;fill-rule:nonzero;stroke:none"
         id="path358" /><path
         d="m 9924.26,8178.3 c 0,0 -288,-26 -392.77,-52.2 -279.06,-69.8 -424.59,-379 -743.46,-740.3 -200.12,-226.8 -413.58,-400.3 -813.82,-600.4 0,0 0,-80 26.68,-160.1 0,0 853.85,80.1 1307.45,306.9 0,0 77.29,-607.1 146.58,-773.5 0,0 569.88,-159.7 1021.28,-23.3 0,0 104.7,663.8 202.5,940.7 0,0 105.3,-172.2 392.4,-275.3 0,0 -197.1,-347.4 -431.3,-461.9 0,0 3.6,-87.8 79.8,-151 0,0 958.2,199.6 883.6,649.9 -74.5,450.2 -612.2,1264.8 -1678.94,1340.5"
         style="fill:#ffb002;fill-opacity:1;fill-rule:nonzero;stroke:none"
         id="path360" /><path
         d="m 10476.2,6135.4 c 0,0 103,652.9 200.1,933.7 -54.1,85.7 -121.7,220 -192,427.4 0,0 54.5,-996.9 -581.99,-1099.1 -312.25,-50.1 -468.53,78.3 -546.76,222.1 33.27,-199.3 70.34,-391.1 99.37,-460.8 0,0 569.88,-159.7 1021.28,-23.3"
         style="fill:#ef9500;fill-opacity:1;fill-rule:nonzero;stroke:none"
         id="path362" /><path
         d="m 9593.13,8138.4 c -14.02,-37.7 -36.6,-115.7 -28.13,-211.7 15.01,-170 215.19,-253.4 347.28,-145.4 120.92,98.9 205.82,244.7 203.52,374.7 l -0.7,0.1 c -30.7,5 -61.8,9.4 -93.5,13.1 -1.6,0.2 -3.2,0.3 -4.8,0.5 -14.3,1.6 -28.78,3.2 -43.35,4.5 -16.27,1.6 -32.66,2.9 -49.19,4.1 0,0 -83.2,-9.1 -202.75,-21.7 -44.66,-5.5 -90.02,-11.7 -128.38,-18.2"
         style="fill:#f27461;fill-opacity:1;fill-rule:nonzero;stroke:none"
         id="path364" /><path
         d="m 10678.7,7076.1 c -149.5,255.2 -226.6,579 -227.4,582.6 -1.7,6.9 -8.6,11.2 -15.5,9.6 -7,-1.7 -11.3,-8.6 -9.6,-15.5 0.8,-3.7 82.6,-347.4 241.6,-608.9 3.6,11.2 7.3,22 10.9,32.2"
         style="fill:#d57300;fill-opacity:1;fill-rule:nonzero;stroke:none"
         id="path366" /><path
         d="m 10719.8,6232.6 c 0,0 -44.5,-112.2 -102.4,-119.3 -13.5,-1.7 -28,-2.2 -41.1,2.2 -4.1,1.5 -8.3,3.3 -11.4,6.4 -5.4,5.4 -4.5,13.2 -8.7,19.2 -5.7,8 -18.9,7.1 -24.7,14.9 -5.2,6.9 -2.1,17.4 -6.5,24.9 -3.7,6.2 -11.9,9 -15,15.6 -2.5,5.4 -0.8,11.8 -2.6,17.5 -2.2,6.8 -9.3,11.6 -10.5,18.6 -0.4,2.8 0.1,5.6 1,8.2 2.9,8 33.7,25.3 33.7,25.3 0,0 -18.8,23.2 2.8,42.8 18.2,16.4 161.2,5.7 161.2,5.7 l 24.2,-82"
         style="fill:#f27461;fill-opacity:1;fill-rule:nonzero;stroke:none"
         id="path368" /><path
         d="m 10544.9,6288.9 c -8.2,-3.6 -13.5,-12.1 -13.3,-21.1 0,-1.1 0,-1.7 0,-1.7 0,0 0,0 66.3,36.5 0,0 -30.5,-3.7 -53,-13.7"
         style="fill:#e55857;fill-opacity:1;fill-rule:nonzero;stroke:none"
         id="path370" /><path
         d="m 10998.9,6688.4 c -78,-111.9 -211.1,-277.1 -359.1,-349.5 0,0 3.6,-87.8 79.8,-151 0,0 337,70.2 595.8,221.3 -104.3,94.5 -210.2,187 -316.5,279.2"
         style="fill:#ffb002;fill-opacity:1;fill-rule:nonzero;stroke:none"
         id="path372" /><path
         d="m 11309.2,7454.4 c -84.2,23.9 -220.3,56.3 -244.9,24.7 -36.1,-46.3 45.9,-259.2 3,-250.6 -42.9,8.7 -272.8,64 -290.1,-21.8 -12.5,-62.1 -3.5,-180.1 2.4,-240.5 17.5,-15 37.4,-30.7 60,-46.6 -8.1,39.6 -52.4,273.2 37.2,271.5 97.8,-1.9 217.8,-70.7 252.2,-10.7 34.5,60 -45.9,259.2 38.2,255.7 66.3,-2.9 163.3,-45.1 201.4,-62.9 -18.7,27.1 -38.5,54.2 -59.4,81.2"
         style="fill:#562f5e;fill-opacity:1;fill-rule:nonzero;stroke:none"
         id="path374" /><path
         d="m 11447.1,7248.5 c -71,27.1 -147.7,49.3 -168.9,28.7 -42,-41 10.4,-263.1 -30.9,-248.7 -41.3,14.4 -261.6,100.3 -290.4,17.7 -15.5,-44.5 -23.3,-121.1 -27.3,-182.4 15.3,-8.3 2.8,-17 19.7,-25 1.9,81.8 44.3,187.8 104.1,178.4 96.7,-15.1 206.3,-99.6 248.5,-44.8 42.2,54.8 -10.4,263.1 72.5,248.2 33.9,-6.2 74.6,-24 110.8,-42.9 -11.8,23.4 -24.5,47 -38.1,70.8"
         style="fill:#562f5e;fill-opacity:1;fill-rule:nonzero;stroke:none"
         id="path376" /><path
         d="m 9493.68,8559.1 c 0,0 -360.82,124.2 -264.54,452.3 96.28,328.1 531.75,225 707.32,-66.4 0,0 38.34,94.6 89.84,22.3 51.5,-72.2 -27.27,-429.5 -27.27,-429.5 0,0 -176.06,-90.1 -505.35,21.3"
         style="fill:#562f5e;fill-opacity:1;fill-rule:nonzero;stroke:none"
         id="path378" /><path
         d="m 10036.6,8943.3 c 5.8,-184.9 -210.84,-11.8 -210.84,-11.8 0,0 -97.79,-191 -353.37,-168.8 -226,19.6 -233.95,230.7 -232.76,279.4 -3.83,-9.8 -7.36,-20 -10.49,-30.7 -96.28,-328.1 264.54,-452.3 264.54,-452.3 329.29,-111.4 505.35,-21.3 505.35,-21.3 0,0 65.97,299.6 37.57,405.5"
         style="fill:#481f52;fill-opacity:1;fill-rule:nonzero;stroke:none"
         id="path380" /><path
         d="m 9995.32,8038.8 -60.04,445.5 -188.98,-59.7 9.81,-404.6 c 72.32,5.7 166.79,14.6 239.21,18.8"
         style="fill:#f27461;fill-opacity:1;fill-rule:nonzero;stroke:none"
         id="path382" /><path
         d="m 9750.81,8238.5 c 167.63,52.8 173.27,195.9 173.27,195.9 l -177.42,-24.9 4.15,-171"
         style="fill:#e55857;fill-opacity:1;fill-rule:nonzero;stroke:none"
         id="path384" /><path
         d="m 9566.62,8635.6 c 0,0 -10.96,-341 154.52,-317.2 165.49,23.9 236.69,148.3 236.69,148.3 0,0 125.07,-11.8 117.07,90.1 -8,102 -106.29,115.8 -133,43.6 0,0 -14.71,240.4 -375.28,35.2"
         style="fill:#f27461;fill-opacity:1;fill-rule:nonzero;stroke:none"
         id="path386" /><path
         d="m 9950.1,8597.1 c -7.38,-0.5 -14.23,4.4 -15.82,11.8 -8.23,38.3 -35.2,102.6 -123.42,102.4 -123.82,-0.1 -281.8,-109.4 -283.38,-110.5 -6.8,-4.8 -16.15,-3.1 -20.88,3.7 -4.75,6.8 -3.09,16.1 3.69,20.9 6.76,4.7 166.88,115.7 300.53,115.9 116.59,0.2 146.42,-96.4 152.78,-126.1 1.74,-8.1 -3.41,-16 -11.51,-17.8 l -1.99,-0.3"
         style="fill:#371443;fill-opacity:1;fill-rule:nonzero;stroke:none"
         id="path388" /><path
         d="m 9279.79,7113.7 v 0 0 z"
         style="fill:#b5106b;fill-opacity:1;fill-rule:nonzero;stroke:none"
         id="path390" /><path
         d="m 9393.55,8063 c 3.99,3.6 7.48,7.1 10.71,10.5 -203.9,-119.6 -349.39,-385.3 -616.23,-687.7 -200.12,-226.8 -413.58,-400.3 -813.82,-600.4 0,0 0,-80 26.68,-160.1 0,0 853.85,80.1 1307.45,306.9 0,0 -83.05,980.9 85.21,1130.8"
         style="fill:#ef9500;fill-opacity:1;fill-rule:nonzero;stroke:none"
         id="path392" /><path
         d="m 9113.82,7396.7 c -18.57,-97.7 -108.1,-206.4 -53.79,-251.1 43.9,-36.2 191.71,-12.7 237.36,-46.6 -1.33,25 -2.64,52 -3.84,80.8 -79.51,3.9 -185.8,-9.4 -174.69,19.4 15.99,41.6 110.68,262.7 27.59,294.7 -58.28,22.4 -172.34,33.5 -235.37,38.2 -13.64,-16.9 -27.63,-34 -41.95,-51.3 71.7,0.7 259.75,-4.8 244.69,-84.1"
         style="fill:#481f52;fill-opacity:1;fill-rule:nonzero;stroke:none"
         id="path394" /><path
         d="m 9301.15,7033.8 c -17.37,-48.8 -50.18,-103.3 -73.34,-138.7 27.95,11.9 54.9,24.3 80.53,37.1 0,0 -3.27,38.6 -7.19,101.6"
         style="fill:#481f52;fill-opacity:1;fill-rule:nonzero;stroke:none"
         id="path396" /><path
         d="m 9018.54,6819.4 c 24.14,7.5 47.93,15.3 71.35,23.3 32.17,58 56.46,115.4 41.75,136.7 -33.91,49.2 -265.6,34.5 -244.12,73.5 21.48,39 145.26,245.2 67.28,288.2 -37.59,20.7 -102.05,39.7 -158.79,53.8 -2.67,-3 -5.28,-6.1 -7.98,-9.1 -9.95,-11.3 -19.94,-22.4 -29.97,-33.4 78.94,-16.7 169.69,-48.1 151.24,-103.1 -31.65,-94.4 -135.08,-189.9 -87.33,-241.6 47.74,-51.7 265.59,-34.5 236.47,-115 -8.37,-23.2 -23.15,-48.7 -39.9,-73.3"
         style="fill:#481f52;fill-opacity:1;fill-rule:nonzero;stroke:none"
         id="path398" /><path
         d="m 11939.8,8523.8 c 9,-16.5 19.4,-24.8 30.8,-24.7 53.4,0.6 125.2,6.1 132.4,47.4 5.4,30.9 4.3,91.4 3.5,117 -0.1,3.3 12.2,4.1 12.7,0.9 4.6,-26.4 16.1,-91.9 20.9,-114.8 2.4,-11 9.3,-20.4 20.2,-27 20.2,-12.2 51.8,-14.3 90.1,-6.2 6.2,1.3 12.6,2.9 19.1,4.7 25.1,7.1 40.4,37.6 45.7,90.7 1.5,15.9 1.9,31.4 1.9,44.1 0,5.2 98.2,-60.5 98.2,-60.5 1.7,-1.4 3.9,-1.8 5.9,-1.3 1.6,0.3 3.2,1.2 4.3,2.7 2.4,3.2 1.8,7.8 -1.4,10.2 l -109,82.6 -0.5,0.2 c -1.3,2 -3.5,3.3 -6,3.2 -1,0 -94.8,-2.1 -188.8,-6.3 -193.7,-8.6 -199.1,-16.9 -202.7,-22.5 -11.6,-17.8 2.2,-103.1 22.7,-140.4"
         style="fill:#4a1c53;fill-opacity:1;fill-rule:nonzero;stroke:none"
         id="path400" /><path
         d="m 12067.6,8525.2 -81.2,138.9 -19.9,-4.2 41,-95.7 -6.7,-1.4 -28.3,35.7 36.8,-75.6 28,-1.1 -16.5,45.2 31.2,-49 15.6,7.2"
         style="fill:#5a2960;fill-opacity:1;fill-rule:nonzero;stroke:none"
         id="path402" /><path
         d="m 12266.2,8539.3 -81.1,138.9 -20,-4.2 41,-95.7 -6.6,-1.4 -28.4,35.7 36.8,-75.6 28,-1 -16.4,45.1 31.2,-49 15.5,7.2"
         style="fill:#5a2960;fill-opacity:1;fill-rule:nonzero;stroke:none"
         id="path404" /><path
         d="m 10911.5,6873.4 c 5.2,21.5 28.1,111.7 53.1,122.3 28.3,12 34.9,-36.8 -1.7,-118.9 0,0 -1.3,-11.7 4.6,-3.1 5.9,8.5 60.7,129.5 87.2,116.7 30.5,-14.8 -55.4,-138.7 -55.4,-138.7 0,0 -3,-4.3 4.5,-3.1 7.5,1.1 66.5,105.2 87.4,97.6 19.4,-7 17.1,-43.3 -52.7,-115.3 0,0 -5.9,-8.5 4.6,-3.1 10.4,5.4 55.1,56.7 72.2,44.9 12.8,-8.8 -12.7,-73.3 -82,-107.6 -91.3,-45.2 -186.7,95.2 -196.7,159.3 l 74.9,-51"
         style="fill:#e15857;fill-opacity:1;fill-rule:nonzero;stroke:none"
         id="path406" /></g></g></svg>
