<?xml version="1.0" encoding="UTF-8" standalone="no"?>
<!-- Created with Inkscape (http://www.inkscape.org/) -->

<svg
   version="1.1"
   id="svg2"
   xml:space="preserve"
   width="600"
   height="600"
   viewBox="0 0 600 600"
   sodipodi:docname="iStock-868669034.eps"
   xmlns:inkscape="http://www.inkscape.org/namespaces/inkscape"
   xmlns:sodipodi="http://sodipodi.sourceforge.net/DTD/sodipodi-0.dtd"
   xmlns="http://www.w3.org/2000/svg"
   xmlns:svg="http://www.w3.org/2000/svg"><defs
     id="defs6"><clipPath
       clipPathUnits="userSpaceOnUse"
       id="clipPath62"><path
         d="m 3511.93,3471.26 c 0,0 -72.1,82.96 9.97,171.62 30.09,32.51 88.65,60.73 149.24,74.81 l 167.75,-34.73 c 0.35,-11.92 -5.82,-25.57 -19.25,-40.08 -82.07,-88.66 -307.71,-171.62 -307.71,-171.62 m 205.97,222.56 c -49.65,0 -111,-22.81 -137.03,-50.94 -26.05,-28.13 -6.91,-50.94 42.76,-50.94 49.64,0 110.99,22.81 137.03,50.94 26.03,28.13 6.89,50.94 -42.76,50.94"
         id="path60" /></clipPath><linearGradient
       x1="0"
       y1="0"
       x2="1"
       y2="0"
       gradientUnits="userSpaceOnUse"
       gradientTransform="matrix(233.777,249.525,249.525,-233.777,3514.01,3475.57)"
       spreadMethod="pad"
       id="linearGradient68"><stop
         style="stop-opacity:1;stop-color:#809f51"
         offset="0"
         id="stop64" /><stop
         style="stop-opacity:1;stop-color:#aed86e"
         offset="1"
         id="stop66" /></linearGradient><clipPath
       clipPathUnits="userSpaceOnUse"
       id="clipPath78"><path
         d="m 3838.89,3682.96 -167.75,34.73 c 26.24,6.1 52.85,9.54 77.7,9.54 56.61,0 89.27,-17.9 90.05,-44.27"
         id="path76" /></clipPath><linearGradient
       x1="0"
       y1="0"
       x2="1"
       y2="0"
       gradientUnits="userSpaceOnUse"
       gradientTransform="matrix(233.777,249.525,249.525,-233.777,3514.01,3475.57)"
       spreadMethod="pad"
       id="linearGradient84"><stop
         style="stop-opacity:1;stop-color:#b0b0b0"
         offset="0"
         id="stop80" /><stop
         style="stop-opacity:1;stop-color:#f0f0f0"
         offset="1"
         id="stop82" /></linearGradient><clipPath
       clipPathUnits="userSpaceOnUse"
       id="clipPath98"><path
         d="m 1505.79,4017.68 c 0,0 -32.16,37 -16.72,83.77 l 138.79,-29.09 c -60.74,-32.13 -122.07,-54.68 -122.07,-54.68 m 142.82,66.08 -153.35,32.08 c 4.22,7.93 9.94,16.05 17.49,24.23 l 60.57,38.77 c 31.75,13.23 68.87,21.64 101.67,21.64 23.74,0 41.59,-4.41 52.38,-11.87 l -37.28,-25.07 c -4.37,8 -17.38,13.08 -37.2,13.08 -35.46,0 -79.28,-16.29 -97.86,-36.38 -18.61,-20.09 -4.94,-36.38 30.53,-36.38 31.03,0 68.46,12.48 89.79,29.06 0.01,0 0.02,0 0.04,0 6.4,0 12.62,1.28 15.86,3.47 l 48.04,32.41 c 0.23,-8.5 -4.18,-18.23 -13.74,-28.56 -18.32,-19.79 -46.64,-39.17 -76.94,-56.48"
         id="path96" /></clipPath><linearGradient
       x1="0"
       y1="0"
       x2="1"
       y2="0"
       gradientUnits="userSpaceOnUse"
       gradientTransform="matrix(166.953,178.199,178.199,-166.953,1507.29,4020.75)"
       spreadMethod="pad"
       id="linearGradient104"><stop
         style="stop-opacity:1;stop-color:#9d9b96"
         offset="0"
         id="stop100" /><stop
         style="stop-opacity:1;stop-color:#d7d3cc"
         offset="1"
         id="stop102" /></linearGradient><clipPath
       clipPathUnits="userSpaceOnUse"
       id="clipPath114"><path
         d="m 1627.86,4072.36 -138.79,29.09 c 1.55,4.71 3.59,9.51 6.19,14.39 l 153.35,-32.08 c -6.84,-3.91 -13.79,-7.72 -20.75,-11.4 m 47.53,60.56 c -0.02,0 -0.03,0 -0.04,0 3.04,2.37 5.75,4.81 8.07,7.32 8.21,8.87 10.13,16.99 6.67,23.3 l 37.28,25.07 c 7.61,-5.25 11.71,-12.02 11.92,-19.81 l -48.04,-32.41 c -3.24,-2.19 -9.46,-3.47 -15.86,-3.47 m -162.64,7.15 c 0.06,0.06 0.11,0.11 0.16,0.17 13.59,14.69 35.32,28.15 60.41,38.6 l -60.57,-38.77"
         id="path112" /></clipPath><linearGradient
       x1="0"
       y1="0"
       x2="1"
       y2="0"
       gradientUnits="userSpaceOnUse"
       gradientTransform="matrix(166.953,178.199,178.199,-166.953,1507.29,4020.75)"
       spreadMethod="pad"
       id="linearGradient120"><stop
         style="stop-opacity:1;stop-color:#b0b0b0"
         offset="0"
         id="stop116" /><stop
         style="stop-opacity:1;stop-color:#f0f0f0"
         offset="1"
         id="stop118" /></linearGradient><clipPath
       clipPathUnits="userSpaceOnUse"
       id="clipPath134"><path
         d="m 540.258,2704.97 c 2.597,3.39 5.191,6.77 7.781,10.14 l 9.32,-2.26 c -5.785,-2.7 -11.5,-5.33 -17.101,-7.88 m 47.523,22.4 -25.593,6.2 1.664,2.17 c 20.293,26.49 40.738,53.19 61.32,79.98 43.793,11.29 85.238,31.95 107.09,55.55 9.746,10.54 14.508,20.49 14.758,29.27 l 69.996,-17.37 c -2.852,-3.91 -6.129,-7.87 -9.852,-11.9 -49.047,-52.98 -138.449,-104.35 -219.383,-143.9 m 239.805,174.34 -97.82,24.22 c -4.223,2.28 -9.188,4.21 -14.852,5.76 11.715,15 23.477,29.99 35.258,44.92 63.375,-7.35 92.832,-36.67 77.414,-74.9"
         id="path132" /></clipPath><linearGradient
       x1="0"
       y1="0"
       x2="1"
       y2="0"
       gradientUnits="userSpaceOnUse"
       gradientTransform="matrix(296.871,316.869,316.869,-296.871,419.058,2658.8)"
       spreadMethod="pad"
       id="linearGradient140"><stop
         style="stop-opacity:1;stop-color:#9d9b96"
         offset="0"
         id="stop136" /><stop
         style="stop-opacity:1;stop-color:#d7d3cc"
         offset="1"
         id="stop138" /></linearGradient><clipPath
       clipPathUnits="userSpaceOnUse"
       id="clipPath150"><path
         d="m 557.359,2712.85 -9.32,2.26 c 3.641,4.75 7.27,9.49 10.883,14.2 l 3.266,4.26 25.593,-6.2 c -10.308,-5.04 -20.488,-9.89 -30.422,-14.52 m 259.657,170.32 -69.996,17.37 c 0.296,10.4 -5.715,19.18 -17.254,25.39 l 97.82,-24.22 c -2.41,-5.98 -5.922,-12.18 -10.57,-18.54"
         id="path148" /></clipPath><linearGradient
       x1="0"
       y1="0"
       x2="1"
       y2="0"
       gradientUnits="userSpaceOnUse"
       gradientTransform="matrix(296.871,316.869,316.869,-296.871,419.058,2658.8)"
       spreadMethod="pad"
       id="linearGradient156"><stop
         style="stop-opacity:1;stop-color:#b0b0b0"
         offset="0"
         id="stop152" /><stop
         style="stop-opacity:1;stop-color:#f0f0f0"
         offset="1"
         id="stop154" /></linearGradient><clipPath
       clipPathUnits="userSpaceOnUse"
       id="clipPath166"><path
         d="m 406.891,2712.85 c -7.547,1.45 -15.051,2.9 -22.5,4.33 -5.977,22.68 -7.993,50.04 0.64,79.81 l 76.942,-13.13 c -2.446,-3.15 -4.879,-6.29 -7.321,-9.43 l -3.144,-4.05 c -14.442,-18.64 -29.367,-37.89 -44.617,-57.53 m 68.918,88.84 -83.895,14.28 c 7.82,17.93 19.762,36.52 37.152,55.3 27.743,29.98 74.559,57.09 127.579,76.53 l 27.777,-6.9 c -8.527,-10.84 -17.043,-21.69 -25.539,-32.54 -22.707,-10.5 -42.16,-23.29 -54.922,-37.09 -16.336,-17.63 -18.684,-33.61 -9.285,-45.28 -6.301,-8.11 -12.594,-16.22 -18.867,-24.3 m 122.472,156.81 -4.976,1.23 c 2.531,0.72 5.074,1.43 7.617,2.11 -0.879,-1.11 -1.762,-2.23 -2.641,-3.34"
         id="path164" /></clipPath><linearGradient
       x1="0"
       y1="0"
       x2="1"
       y2="0"
       gradientUnits="userSpaceOnUse"
       gradientTransform="matrix(296.871,316.869,316.869,-296.871,419.058,2658.8)"
       spreadMethod="pad"
       id="linearGradient172"><stop
         style="stop-opacity:1;stop-color:#9d9b96"
         offset="0"
         id="stop168" /><stop
         style="stop-opacity:1;stop-color:#d7d3cc"
         offset="1"
         id="stop170" /></linearGradient><clipPath
       clipPathUnits="userSpaceOnUse"
       id="clipPath182"><path
         d="m 461.973,2783.86 -76.942,13.13 c 1.809,6.23 4.082,12.56 6.883,18.98 l 83.895,-14.28 c -4.618,-5.95 -9.235,-11.9 -13.836,-17.83 m 122.449,157.04 -27.777,6.9 c 11.953,4.38 24.218,8.38 36.66,11.93 l 4.976,-1.23 c -4.625,-5.86 -9.246,-11.73 -13.859,-17.6"
         id="path180" /></clipPath><linearGradient
       x1="0"
       y1="0"
       x2="1"
       y2="0"
       gradientUnits="userSpaceOnUse"
       gradientTransform="matrix(296.871,316.869,316.869,-296.871,419.058,2658.8)"
       spreadMethod="pad"
       id="linearGradient188"><stop
         style="stop-opacity:1;stop-color:#b0b0b0"
         offset="0"
         id="stop184" /><stop
         style="stop-opacity:1;stop-color:#f0f0f0"
         offset="1"
         id="stop186" /></linearGradient><clipPath
       clipPathUnits="userSpaceOnUse"
       id="clipPath198"><path
         d="m 502.059,2688.05 c 15.472,20.15 30.812,40.15 45.914,59.85 15.73,20.53 31.476,41.1 47.254,61.65 9.968,1.53 20.015,3.61 29.945,6.17 -20.582,-26.79 -41.027,-53.49 -61.32,-79.98 l -1.664,-2.17 -3.266,-4.26 c -3.613,-4.71 -7.242,-9.45 -10.883,-14.2 -2.59,-3.37 -5.184,-6.75 -7.781,-10.14 -13.403,-6.1 -26.227,-11.76 -38.199,-16.92 m -86.914,2.82 c -7.848,1.51 -15.637,3.01 -23.383,4.5 -2.746,6.65 -5.297,13.95 -7.371,21.81 7.449,-1.43 14.953,-2.88 22.5,-4.33 15.25,19.64 30.175,38.89 44.617,57.53 l 3.144,4.05 c 2.442,3.14 4.875,6.28 7.321,9.43 4.601,5.93 9.218,11.88 13.836,17.83 6.273,8.08 12.566,16.19 18.867,24.3 3.683,-4.58 9.176,-8.49 16.336,-11.58 -14.582,-18.76 -29.149,-37.54 -43.692,-56.28 -17.148,-22.13 -34.57,-44.6 -52.175,-67.26 m 143.738,217.49 c 8.496,10.85 17.012,21.7 25.539,32.54 4.613,5.87 9.234,11.74 13.859,17.6 0.879,1.11 1.762,2.23 2.641,3.34 10.391,2.8 20.871,5.28 31.367,7.42 -12.363,-15.6 -24.707,-31.24 -37.031,-46.93 -12.656,-3.96 -24.93,-8.68 -36.375,-13.97 m 156.031,23.33 c -6.566,1.78 -14.074,3.05 -22.465,3.72 11.18,14.33 22.364,28.62 33.578,42.87 8.52,-0.23 16.575,-0.79 24.145,-1.67 -11.781,-14.93 -23.543,-29.92 -35.258,-44.92"
         id="path196" /></clipPath><linearGradient
       x1="0"
       y1="0"
       x2="1"
       y2="0"
       gradientUnits="userSpaceOnUse"
       gradientTransform="matrix(296.871,316.869,316.869,-296.871,419.058,2658.8)"
       spreadMethod="pad"
       id="linearGradient204"><stop
         style="stop-opacity:1;stop-color:#8b5d21"
         offset="0"
         id="stop200" /><stop
         style="stop-opacity:1;stop-color:#bd7f2d"
         offset="1"
         id="stop202" /></linearGradient><clipPath
       clipPathUnits="userSpaceOnUse"
       id="clipPath214"><path
         d="m 416.406,2653.34 c 0,0 -13.847,15.94 -24.644,42.03 7.746,-1.49 15.535,-2.99 23.383,-4.5 17.605,22.66 35.027,45.13 52.175,67.26 14.543,18.74 29.11,37.52 43.692,56.28 11.574,-4.98 27.508,-7.82 47.242,-7.82 11.926,0 24.383,1.04 36.973,2.96 -15.778,-20.55 -31.524,-41.12 -47.254,-61.65 -15.102,-19.7 -30.442,-39.7 -45.914,-59.85 -50.344,-21.73 -85.653,-34.71 -85.653,-34.71 m 178.852,268.99 c 12.324,15.69 24.668,31.33 37.031,46.93 28.824,5.88 57.734,9.14 84.965,9.14 2.976,0 5.902,-0.04 8.773,-0.12 -11.214,-14.25 -22.398,-28.54 -33.578,-42.87 -4.566,0.36 -9.398,0.55 -14.48,0.55 -26.43,0 -55.461,-5.09 -82.711,-13.63"
         id="path212" /></clipPath><linearGradient
       x1="0"
       y1="0"
       x2="1"
       y2="0"
       gradientUnits="userSpaceOnUse"
       gradientTransform="matrix(296.871,316.869,316.869,-296.871,419.058,2658.8)"
       spreadMethod="pad"
       id="linearGradient220"><stop
         style="stop-opacity:1;stop-color:#b09037"
         offset="0"
         id="stop216" /><stop
         style="stop-opacity:1;stop-color:#f0c44a"
         offset="1"
         id="stop218" /></linearGradient><clipPath
       clipPathUnits="userSpaceOnUse"
       id="clipPath234"><path
         d="m 1324.9,1683.18 c 0,0 -14.63,16.84 -26.63,44.62 l 90.11,110.05 c 39.13,-8.5 77.67,-16.91 115.47,-25.16 l -67.95,-84.11 c -64.34,-28.24 -111,-45.4 -111,-45.4 m 191.28,82.49 30.28,37.71 c 10.25,-2.24 20.44,-4.47 30.56,-6.68 -20.38,-10.91 -40.85,-21.29 -60.84,-31.03 m -229.15,70.38 c 1.67,7.31 3.9,14.77 6.76,22.34 3.32,-0.72 6.64,-1.44 9.96,-2.16 l -16.72,-20.18 m 381.87,14.7 c -23.7,5.15 -47.66,10.35 -71.86,15.61 l 13.82,17.2 c 29.39,12.53 54.78,28.46 70.82,45.79 19.41,20.96 21.31,39.87 8.67,53.19 l 22.44,27.94 79.95,-14.79 c 4.45,-19.05 -3.79,-41.85 -26.46,-66.34 -24.91,-26.92 -59.05,-53.47 -97.38,-78.6 m -313.47,67.85 c -7.22,1.56 -14.45,3.11 -21.69,4.67 1.77,2.02 3.59,4.05 5.46,6.08 17,18.36 40.34,35.78 67.69,51.37 l -51.46,-62.12 m 148.46,60.32 46.78,57.12 c 3.55,0.85 7.13,1.66 10.69,2.44 l 108.69,-20.1 -15.39,-19.05 c -9.91,2.01 -21.39,3.08 -34.31,3.08 -37.45,0 -79.54,-9.04 -116.46,-23.49 m 271.86,43.15 -46.73,8.62 8.51,10.61 c 16.05,-4.77 28.88,-11.29 38.22,-19.23 m -89.4,16.49 -56.06,10.35 c 11.67,0.95 23.18,1.44 34.44,1.44 10.63,0 20.68,-0.44 30.1,-1.29 l -8.48,-10.5"
         id="path232" /></clipPath><linearGradient
       x1="0"
       y1="0"
       x2="1"
       y2="0"
       gradientUnits="userSpaceOnUse"
       gradientTransform="matrix(335.332,357.92,357.92,-335.332,1327.9,1689.34)"
       spreadMethod="pad"
       id="linearGradient240"><stop
         style="stop-opacity:1;stop-color:#9d9b96"
         offset="0"
         id="stop236" /><stop
         style="stop-opacity:1;stop-color:#d7d3cc"
         offset="1"
         id="stop238" /></linearGradient><clipPath
       clipPathUnits="userSpaceOnUse"
       id="clipPath250"><path
         d="m 1298.27,1727.8 c -11.81,27.36 -21.05,65.31 -11.24,108.25 l 16.72,20.18 c -3.32,0.72 -6.64,1.44 -9.96,2.16 7.9,20.94 20.64,42.75 39.95,64.88 7.24,-1.56 14.47,-3.11 21.69,-4.67 l 51.46,62.12 c 41.41,23.6 92,43.04 143.78,55.32 l -46.78,-57.12 c -33.29,-13.03 -62.39,-30.44 -80.09,-49.57 -37.38,-40.36 -9.92,-73.07 61.33,-73.07 40.61,0 86.7,10.65 125.73,27.28 l -13.82,-17.2 c 24.2,-5.26 48.16,-10.46 71.86,-15.61 -28.95,-18.97 -60.3,-37.14 -91.88,-54.05 -10.12,2.21 -20.31,4.44 -30.56,6.68 l -30.28,-37.71 c -28.28,-13.77 -55.58,-26.25 -80.28,-37.09 l 67.95,84.11 c -37.8,8.25 -76.34,16.66 -115.47,25.16 l -90.11,-110.05 m 392.08,254.74 c -7.27,7.67 -19.35,13.49 -35.69,16.79 l 15.39,19.05 -108.69,20.1 c 23.09,5.02 46.3,8.58 68.93,10.43 l 56.06,-10.35 8.48,10.5 c 16.06,-1.45 30.34,-4.09 42.7,-7.76 l -8.51,-10.61 46.73,-8.62 c 8.93,-7.59 14.68,-16.48 16.99,-26.38 l -79.95,14.79 -22.44,-27.94"
         id="path248" /></clipPath><linearGradient
       x1="0"
       y1="0"
       x2="1"
       y2="0"
       gradientUnits="userSpaceOnUse"
       gradientTransform="matrix(335.332,357.92,357.92,-335.332,1327.9,1689.34)"
       spreadMethod="pad"
       id="linearGradient256"><stop
         style="stop-opacity:1;stop-color:#b0b0b0"
         offset="0"
         id="stop252" /><stop
         style="stop-opacity:1;stop-color:#f0f0f0"
         offset="1"
         id="stop254" /></linearGradient><clipPath
       clipPathUnits="userSpaceOnUse"
       id="clipPath270"><path
         d="m 3278.69,637.789 c -3.99,13.16 -7.11,27.57 -8.64,42.981 l 37.59,1.96 11.57,-38.488 c -13.48,-2.242 -26.99,-4.39 -40.52,-6.453 m -9.56,70.91 c 0.68,19.762 4.23,40.731 11.92,62.512 l 18.31,-60.941 -30.23,-1.571 m 48.66,129.949 c 6.56,8.774 13.89,17.582 22.09,26.434 77.84,84.117 261.29,152.308 409.74,152.308 148.46,0 205.69,-68.191 127.86,-152.308 -1.85,-2 -3.72,-3.98 -5.65,-5.973 l -111.14,-4.097 c 3.7,3.308 7.13,6.66 10.28,10.07 47.01,50.797 12.47,91.977 -77.17,91.977 -89.66,0 -200.45,-41.18 -247.43,-91.977 -7.11,-7.684 -12.35,-15.133 -15.83,-22.262 l -112.75,-4.172"
         id="path268" /></clipPath><linearGradient
       x1="0"
       y1="0"
       x2="1"
       y2="0"
       gradientUnits="userSpaceOnUse"
       gradientTransform="matrix(422.094,450.527,450.527,-422.094,3325.65,562.98)"
       spreadMethod="pad"
       id="linearGradient276"><stop
         style="stop-opacity:1;stop-color:#9d9b96"
         offset="0"
         id="stop272" /><stop
         style="stop-opacity:1;stop-color:#d7d3cc"
         offset="1"
         id="stop274" /></linearGradient><clipPath
       clipPathUnits="userSpaceOnUse"
       id="clipPath286"><path
         d="m 3368.82,652.879 -48.41,158.68 105.64,3.91 c 5.28,-25.469 40.09,-42.348 97.5,-42.348 65.2,0 141.59,21.789 196.48,53.211 l 121.79,4.5 c -11.03,-9.57 -22.83,-19.062 -35.26,-28.453 -104.84,-64.551 -238.3,-111.02 -406.67,-143.649 -10.34,-2 -20.7,-3.96 -31.07,-5.851"
         id="path284" /></clipPath><linearGradient
       x1="0"
       y1="0"
       x2="1"
       y2="0"
       gradientUnits="userSpaceOnUse"
       gradientTransform="matrix(422.094,450.527,450.527,-422.094,3325.65,562.98)"
       spreadMethod="pad"
       id="linearGradient292"><stop
         style="stop-opacity:1;stop-color:#809f51"
         offset="0"
         id="stop288" /><stop
         style="stop-opacity:1;stop-color:#aed86e"
         offset="1"
         id="stop290" /></linearGradient><clipPath
       clipPathUnits="userSpaceOnUse"
       id="clipPath302"><path
         d="m 3319.21,644.242 -11.57,38.488 -37.59,-1.96 c -0.89,8.992 -1.25,18.32 -0.92,27.929 l 30.23,1.571 -18.31,60.941 c 7.69,21.809 19.53,44.449 36.74,67.437 l 112.75,4.172 c -4.79,-9.84 -6.21,-19.058 -4.49,-27.351 l -105.64,-3.91 48.41,-158.68 c -16.49,-3.008 -33.03,-5.891 -49.61,-8.637 m 400.82,182.09 c 15.52,8.879 29.32,18.527 40.66,28.68 l 111.14,4.097 c -9.17,-9.48 -19.22,-18.918 -30.01,-28.277 l -121.79,-4.5"
         id="path300" /></clipPath><linearGradient
       x1="0"
       y1="0"
       x2="1"
       y2="0"
       gradientUnits="userSpaceOnUse"
       gradientTransform="matrix(422.094,450.527,450.527,-422.094,3325.65,562.98)"
       spreadMethod="pad"
       id="linearGradient308"><stop
         style="stop-opacity:1;stop-color:#b0b0b0"
         offset="0"
         id="stop304" /><stop
         style="stop-opacity:1;stop-color:#f0f0f0"
         offset="1"
         id="stop306" /></linearGradient><clipPath
       clipPathUnits="userSpaceOnUse"
       id="clipPath318"><path
         d="m 3284.92,619.77 c -2.22,5.699 -4.33,11.71 -6.23,18.019 13.53,2.063 27.04,4.211 40.52,6.453 16.58,2.746 33.12,5.629 49.61,8.637 10.37,1.891 20.73,3.851 31.07,5.851 168.37,32.629 301.83,79.098 406.67,143.649 -45.29,-34.199 -98.92,-67.008 -153.7,-96.899 -70.87,-25.3 -150.39,-46.3 -239.41,-63.589 -42.56,-8.262 -85.43,-15.602 -128.53,-22.121"
         id="path316" /></clipPath><linearGradient
       x1="0"
       y1="0"
       x2="1"
       y2="0"
       gradientUnits="userSpaceOnUse"
       gradientTransform="matrix(422.094,450.527,450.527,-422.094,3325.65,562.98)"
       spreadMethod="pad"
       id="linearGradient324"><stop
         style="stop-opacity:1;stop-color:#8b5d21"
         offset="0"
         id="stop320" /><stop
         style="stop-opacity:1;stop-color:#bd7f2d"
         offset="1"
         id="stop322" /></linearGradient><clipPath
       clipPathUnits="userSpaceOnUse"
       id="clipPath334"><path
         d="m 3321.88,555.23 c 0,0 -21.39,24.61 -36.96,64.54 43.1,6.519 85.97,13.859 128.53,22.121 89.02,17.289 168.54,38.289 239.41,63.589 -160.51,-87.582 -330.98,-150.25 -330.98,-150.25"
         id="path332" /></clipPath><linearGradient
       x1="0"
       y1="0"
       x2="1"
       y2="0"
       gradientUnits="userSpaceOnUse"
       gradientTransform="matrix(422.094,450.527,450.527,-422.094,3325.65,562.98)"
       spreadMethod="pad"
       id="linearGradient340"><stop
         style="stop-opacity:1;stop-color:#b09037"
         offset="0"
         id="stop336" /><stop
         style="stop-opacity:1;stop-color:#f0c44a"
         offset="1"
         id="stop338" /></linearGradient></defs><sodipodi:namedview
     id="namedview4"
     pagecolor="#ffffff"
     bordercolor="#666666"
     borderopacity="1.0"
     inkscape:pageshadow="2"
     inkscape:pageopacity="0.0"
     inkscape:pagecheckerboard="0" /><g
     id="g8"
     inkscape:groupmode="layer"
     inkscape:label="ink_ext_XXXXXX"
     transform="matrix(1.3333333,0,0,-1.3333333,0,600)"><g
       id="g10"
       transform="scale(0.1)"><path
         d="M 0,0 H 4500 V 4500 H 0 Z"
         style="fill:#69ade4;fill-opacity:1;fill-rule:nonzero;stroke:none"
         id="path12" /><path
         d="M 4500,941.891 V 3458.56 c -90.51,53.2 -176.66,112.34 -230.62,173.79 C 4124.32,3797.56 4054.84,3885 4054.84,3885 l 229.24,-14.43 -165.74,52.72 -104.85,-2.37 -10.61,80.22 396.49,-63.55 c 0,0 -111.35,460.3 -97.19,562.41 H 0 V 230.852 c 625.738,60.457 1206.04,116.339 1206.04,116.339 l 40.79,-108.601 1960.19,118.32 -8.28,63.11 c 0,0 890.14,14.429 1063.72,185.351 80.06,78.879 162.57,200.82 237.54,336.52"
         style="fill:#e4e0d9;fill-opacity:1;fill-rule:nonzero;stroke:none"
         id="path14" /><path
         d="m 4349.61,3490.39 -148.77,134.15 -1172.56,245.03 -476.26,-379.18 1458.07,-320.45 339.52,320.45"
         style="fill:#b9e675;fill-opacity:1;fill-rule:nonzero;stroke:none"
         id="path16" /><path
         d="M 149.645,561.461 50.5234,714.648 0,711.551 v -165.34 l 149.645,15.25"
         style="fill:#b9e675;fill-opacity:1;fill-rule:nonzero;stroke:none"
         id="path18" /><path
         d="m 764.281,1140.98 464.559,24.68 3.16,81.78 127.1,54.71 -366.284,105.15 -228.535,-266.32"
         style="fill:#b9e675;fill-opacity:1;fill-rule:nonzero;stroke:none"
         id="path20" /><path
         d="m 3193.52,1500.86 -443.57,91.91 -91.18,-150.02 433.26,-88.86 101.49,146.97"
         style="fill:#b9e675;fill-opacity:1;fill-rule:nonzero;stroke:none"
         id="path22" /><path
         d="M 0,1556.56 900.453,2556.34 738.188,2596.95 0,1803.08 v -246.52"
         style="fill:#b9e675;fill-opacity:1;fill-rule:nonzero;stroke:none"
         id="path24" /><path
         d="m 3149.65,2978.97 -502.28,126.05 -256.6,-214.32 514.08,-128.81 244.8,217.08"
         style="fill:#b9e675;fill-opacity:1;fill-rule:nonzero;stroke:none"
         id="path26" /><path
         d="m 4061.68,2882.67 -82.31,-82.32 261.77,-61.79 84.55,75.21 -264.01,68.9"
         style="fill:#b9e675;fill-opacity:1;fill-rule:nonzero;stroke:none"
         id="path28" /><path
         d="m 1112.54,3911.45 155.25,99.46 -230.47,54.21 -305.41,-175.26 201.121,-43.89 179.509,65.48"
         style="fill:#b9e675;fill-opacity:1;fill-rule:nonzero;stroke:none"
         id="path30" /><path
         d="m 2779.51,3984.81 -161.48,33.43 -70.83,-67.5 144.2,-31.71 88.11,65.78"
         style="fill:#b9e675;fill-opacity:1;fill-rule:nonzero;stroke:none"
         id="path32" /><path
         d="M 4159.58,3307.36 4500,3249.03 v 155.44 c -84.12,48.5 -147.19,85.92 -147.19,85.92 l -193.23,-183.03"
         style="fill:#b9e675;fill-opacity:1;fill-rule:nonzero;stroke:none"
         id="path34" /><path
         d="m 3921.74,1592.83 265.89,-50.88 123.28,214.71 -273.69,36.27 -115.48,-200.1"
         style="fill:#b9e675;fill-opacity:1;fill-rule:nonzero;stroke:none"
         id="path36" /><path
         d="m 4500,2491.6 c -58.84,-115.92 -29.26,-369.76 -37.25,-563.01 -9.74,-233.8 -120.78,-490.27 -278.7,-827.36 -48.62,-103.761 -132.17,-191.628 -226.37,-264.179 l -666.81,-12.973 76.01,-250.988 c 47.49,5.57 93.15,14.051 136.76,24.551 -45.65,-16.442 -73.74,-24.551 -73.74,-24.551 l -94.64,-148.281 c 256.55,11.793 796.46,51.793 927.2,180.562 80.06,78.879 162.57,200.82 237.54,336.52 V 2491.6"
         style="fill:#b9e675;fill-opacity:1;fill-rule:nonzero;stroke:none"
         id="path38" /><path
         d="m 3402.49,4368.38 -123.11,17.16 -140.24,-95.66 124.27,-24.43 140.87,95.03 -1.79,7.9"
         style="fill:#b9e675;fill-opacity:1;fill-rule:nonzero;stroke:none"
         id="path40" /><path
         d="m 1610.68,4500 h -365.63 l -61.47,-38.99 285.51,-52.14 141.59,91.13"
         style="fill:#b9e675;fill-opacity:1;fill-rule:nonzero;stroke:none"
         id="path42" /><path
         d="m 86.6563,2217.03 c 7.8906,0 15.8787,1.92 20.5277,5.39 6.757,5 3.769,11.31 -6.661,14.08 L 0.00390625,2263.11 v -24.65 L 75.9609,2218.3 c 3.3204,-0.88 7.0118,-1.27 10.6954,-1.27"
         style="fill:#ffffff;fill-opacity:1;fill-rule:nonzero;stroke:none"
         id="path44" /><path
         d="m 3426.61,1161.47 -383.51,76.51 150.12,231.37 c 89.38,-17.37 182.99,-35.54 280.31,-54.45 31.12,-6.04 62.73,-12.19 94.72,-18.4 l -141.64,-235.03 m -190.58,-73.28 -18.9,61.96 235.39,-47.19 -216.49,-14.77 m 63.33,-377.92 -750.31,-38.989 -60.01,339.549 705.5,48.23 104.82,-348.79 m -1025.11,-53.282 -53.63,335.492 218.54,14.94 58.32,-338.83 -223.23,-11.602 m -75.46,472.032 60.82,89.85 471.94,28.61 432.4,-86.67 22.83,-75.98 -970.35,-66.18 -17.64,110.37 m -31.1,109.68 -512.96,-31.04 91.07,237.42 495.44,-99.31 -73.55,-107.07 m -428.4,-547.259 -50.53,264.68 431.76,29.52 41.7,-276.231 -422.93,-17.969 m -846.345,-35.992 16.379,247.391 729.186,49.851 49.08,-263.449 -794.645,-33.793 m -21.113,271.492 -18.223,206.659 352.011,21.35 32.68,-203.009 -366.468,-25 M 840.652,651.75 332.324,597.461 c -2.07,15.051 -4.199,30.461 -6.383,46.269 -9.656,69.668 -19.933,143.872 -29.539,217.211 L 858.148,899.352 840.652,651.75 m -570.898,432.69 c 244.078,13.67 438.324,25.4 501.578,31.4 l 26.582,2.5 6.387,7.07 16.816,-201.922 -528.164,-36.027 c -8.828,68.469 -16.918,135.609 -23.199,196.979 m -9.32,106.47 507.187,13.97 c -15.691,-17.69 -28.308,-31.74 -36.719,-41.05 -79.265,-6.17 -253.132,-16.51 -466.047,-28.35 -1.726,19.33 -3.214,37.85 -4.421,55.43 m -2.629,46.79 c 18.265,18.6 41.859,43.39 69.64,73.12 l 217.493,-45.23 -38.821,-42.75 -247.262,-6.8 c -0.414,7.45 -0.757,14.65 -1.05,21.66 m -180.512,152.29 140.164,149.72 140.258,-26.33 c -52.863,-57.46 -100.883,-109.12 -141.52,-152.21 l -138.902,28.82 m -20.7149,205.67 143.6949,159.22 141.411,-28.34 -147.422,-156.65 -137.6839,25.77 m 18.3477,234.44 216.0662,233.57 c 37.992,-6.87 77.813,-14.29 119.192,-22.17 L 196.391,1805.87 74.9258,1830.1 M 456.656,2242.76 573.23,2221.21 464.918,2101.83 c -40.988,7.73 -80.578,15.04 -118.445,21.82 l 110.183,119.11 m 151.621,163.91 114.422,-20.72 -131.801,-145.27 -116.32,21.46 133.699,144.53 m 168.536,182.19 71.16,53.46 442.217,-107.31 -23.64,-18.56 c -21.96,-2.27 -41,-9.55 -48.66,-19.9 -27.07,-36.5 -70.79,-90.37 -125.56,-155.48 l -106.572,19.26 150.382,160.62 c 4.72,5 -0.45,10.69 -11.55,12.67 -11.04,1.98 -23.8,-0.48 -28.54,-5.49 l -150.999,-160.45 -164.848,29.79 140.328,155.49 c 4.571,5.05 -0.742,10.61 -11.836,12.46 -11.043,1.84 -23.769,-0.7 -28.328,-5.7 l -140.582,-154.94 -114.176,20.63 151.204,163.45 m 304.447,228.72 432.09,-107.26 -201.47,-158.26 -441.708,106.94 211.088,158.58 m -768.737,211.68 97.071,57.73 285.742,-84.64 c 3.469,-1.01 7.414,-1.49 11.406,-1.49 6.672,0 13.332,1.36 17.578,3.91 6.809,4.03 4.836,9.51 -4.336,12.23 l -286.019,84.48 379.887,225.89 211.758,-49.65 c 6.09,-1.39 12.8,-2.11 19.39,-2.11 14.13,0 27.98,3.08 35.69,8.56 11.33,7.98 5.05,18.03 -13.99,22.5 l -206.575,48.22 67.281,40 634.704,-146.87 -157.61,-117.5 -441.242,102.78 c -9.563,2.2 -21.934,0.75 -27.676,-3.33 -5.664,-4.04 -2.551,-9.17 7.059,-11.41 l 441.659,-103.1 -158.42,-118.1 -427.134,117.83 c -9.25,2.64 -21.965,1.41 -28.457,-2.59 -6.496,-4.04 -4.219,-9.33 5.078,-11.93 l 429.703,-118.82 -174.82,-130.33 -717.727,177.74 m -69.519,17.22 -181.6446,44.98 112.3516,65.39 170.586,-50.52 -101.293,-59.85 m -224.9024,174.77 187.7964,110 115.883,-32.51 -188.601,-109.08 -115.0784,31.59 m 48.6445,169.38 145.5269,77.78 129.399,-30.33 L 197.66,3354 66.7461,3390.63 m 79.4809,130.89 65.453,38.99 407.144,-94.21 -71.84,-38.32 -400.757,93.54 m 176.914,105.38 406.086,-92.85 -6.301,-12.22 -79.668,-42.5 -409.235,94.49 89.118,53.08 m -296.184,85.72 178.395,111.59 292.996,-66.46 -185.758,-110.31 -285.633,65.18 m 372.574,233.06 303.492,-66.38 -183.285,-108.85 -293.957,66.54 173.75,108.69 m 119.918,75.01 309.559,-66.58 -84.465,-50.16 -305.379,66.52 80.285,50.22 m 174.762,109.32 317.349,-67.49 -162.111,-96.27 -310.5,66.64 155.262,97.12 m -552.145,133.1 152.036,88.78 L 798.238,4246.23 651.445,4155 142.066,4263.11 m 328.668,191.91 497.645,-103.04 -151.606,-94.23 -503.515,105.32 157.476,91.95 m 558.256,-115.59 99.85,-20.68 -50.21,-115.77 -200.665,41.97 151.025,94.48 m 149.33,93.41 -43.5,-100.3 -87.82,18.15 131.32,82.15 m 41.79,15.17 216.52,-43.92 c 2.84,-2.59 7.93,-4.87 15.17,-6.32 5.35,-1.11 11.23,-1.62 16.95,-1.62 1.92,0 3.79,0.15 5.68,0.27 l 271.21,-55.01 -160.34,-101.96 -417.65,86.31 52.46,122.25 m 587.53,-119.18 227.65,-46.18 -155.17,-104.12 -232.29,48 159.81,102.3 m 186.22,113.48 199.11,-37.94 -139.8,-95.78 -196.02,39.61 136.71,94.11 m 404.47,48.45 656.9,-129.61 -129.62,-96.63 -391.61,76.71 c -8.72,1.72 -19.39,0.57 -23.73,-2.54 -4.39,-3.15 -0.83,-7.05 7.94,-8.77 l 391.95,-76.92 -124.1,-92.52 -670.13,135.42 282.4,194.86 m 859.84,-37.73 380.53,-73.14 -52.87,-41.53 -175.67,35.55 -0.17,0.03 -0.01,0.01 -0.14,0.01 c -7.71,1.51 -16.62,0.87 -21.52,-1.36 l -0.17,-0.1 -1.58,-0.88 -0.06,-0.05 -0.04,-0.03 -139.28,-102.84 c -4.21,-3.15 -0.44,-7.16 8.52,-8.95 2.89,-0.61 5.99,-0.88 9.02,-0.88 6.18,0 11.97,1.18 14.86,3.34 l 131.3,97.38 160.53,-32.55 -192.61,-151.3 -388.45,76.1 267.81,201.19 m -16.09,-384.7 -390.84,78.98 123.74,92.97 388.84,-76.32 -121.74,-95.63 m -172.61,-135.6 -395.16,81.67 145.3,109.15 391.64,-79.44 -141.78,-111.38 m -146.95,-115.43 -399.37,83.54 134.83,101.29 395.57,-81.9 -131.03,-102.93 m -144.66,-113.64 -403.25,85.59 131.78,99 399.79,-83.79 -128.32,-100.8 m -85.25,-66.96 -401.22,90.02 65.99,49.58 403.66,-85.85 -68.43,-53.75 m -77.49,-60.88 -402.05,92.06 60.86,45.73 401.65,-90.3 -60.46,-47.49 m 345.42,-190.28 -158.09,-131.77 -392.89,88.94 161.62,127.99 389.36,-85.16 m 501.18,-109.61 -154.26,-136.46 -468.78,106.11 157.83,132.1 465.21,-101.75 m 498.54,-109.04 -151.44,-140.9 -464.26,105.08 153.96,136.81 461.74,-100.99 m -303.61,-282.5 -469.2,107.06 140.18,124.57 464.68,-105.4 -135.66,-126.23 m 309.26,-90.48 c 1.37,-0.54 2.84,-1.04 4.51,-1.45 2.14,-0.53 4.29,-0.85 6.44,-1.05 l 233.66,-53.44 -208.18,-212.55 -506.27,117.92 220.87,207.5 248.97,-56.93 m 191.4,143.66 205.21,-44.4 -135.96,-138.82 -218.33,49.82 149.08,133.4 m -235.77,-494.66 -509.34,121.65 66.12,62.11 507.22,-118.41 -64,-65.35 m -84.78,-86.55 -507.82,129.97 65.21,61.27 510.3,-122.14 -67.69,-69.1 m -157.55,-160.87 -522.19,129.32 153.55,144.27 508.76,-130.52 -140.12,-143.07 m -1077.54,-869.45 149.32,229.19 c 118.44,-23 251.28,-48.8 396.15,-76.94 l -150.96,-230.95 -394.51,78.7 m -268.61,1.32 301.39,-60.42 -356.91,-21.59 55.52,82.01 m -385.76,388.51 c 117.75,-25.5 213.02,-45.71 278.09,-58.41 62.35,-12.17 161.14,-31.4 289.56,-56.36 l -175.69,-222.71 -567.23,113.15 175.27,224.33 m -585.54,-142.48 184.7,229.99 c 37.4,-8.17 73.96,-16.17 109.46,-23.95 89.74,-19.63 172.88,-37.82 248.08,-54.17 l -176.72,-224.79 -365.52,72.92 m -751.17,-294.03 144.094,159.52 183.679,-34.49 C 886.855,1341.88 837.582,1284.56 798.832,1240.3 l -188.242,39.06 m -20.86,-23.09 132.184,-27.5 -161.016,-4.42 28.832,31.92 m -99.363,232.21 219.574,-41.21 -144.074,-158.64 -217.137,45.05 c 40.723,43.87 88.809,96.44 141.637,154.8 m -105.996,229.51 135.293,-27.12 C 470.449,1636.53 422.738,1584.19 378.035,1535.5 l -139.984,26.2 146.32,156.29 m 218.219,285.79 -221.02,-234.85 -142.898,28.5 213.074,236.1 c 48.586,-9.39 99.024,-19.35 150.844,-29.75 m 169.933,180.58 -113.222,-120.32 c -52.555,10.47 -103.696,20.48 -153.016,29.92 l 107.992,119.65 158.246,-29.25 m 18.293,19.43 -158.941,29.33 131.313,145.49 164.171,-29.73 -136.543,-145.09 m 158.789,-29.3 -117.531,21.69 136.055,145.31 108.061,-19.57 c -38.02,-44.94 -80.737,-94.65 -126.585,-147.43 M 1443.82,2255.34 1310,2108 l -235.7,43.48 c 45.25,52.95 87.46,102.9 125.09,148.13 l 244.43,-44.27 m 143.93,436.52 416.44,-103.37 -189.71,-158.12 -426.51,103.27 199.78,158.22 m 100.98,156.24 -154.52,-121.39 -431.63,106.89 171.81,129.08 414.34,-114.58 m 105.06,82.53 -84.71,-66.56 -413.95,114.19 72.39,54.39 426.27,-102.02 m 87.59,68.8 -67.64,-53.14 -425.82,101.68 67.69,50.85 425.77,-99.39 m -248.86,232.3 420.67,-97.34 -152.15,-119.52 -425.32,99.07 156.8,117.79 m -672.418,182.61 0.621,0.46 2.281,1.68 1.375,1.23 1.113,1.42 1.016,1.64 0.207,0.32 21.027,53.84 672.468,-153.77 -78.49,-58.51 -631.505,145.81 9.887,5.88 m -151.668,119.96 69.578,137.34 100.097,-22.71 -56.171,-140.53 -113.504,25.9 m -0.082,153.14 -70.668,-136.99 -392.539,89.57 185.39,110.43 277.817,-63.01 m 78.246,151.7 -70.078,-135.86 -264.625,59.9 183.168,109.11 151.535,-33.15 m 156.532,216.66 189.85,-40.37 -149.51,-95.07 -135.782,-49.41 c -2.043,0.28 -4.141,0.52 -6.364,0.67 -11.75,0.79 -23.199,-0.73 -31.644,-3.64 l -133.16,29 266.61,158.82 m -19.57,20.21 -310.361,65.87 146.289,91.51 212.972,-44.63 -48.9,-112.75 m 374.65,44.49 -146.21,-92.98 -194.61,41.31 48.46,112.93 292.36,-61.26 m 18.51,11.77 -304.76,63.74 49.76,115.93 405.53,-83.96 -150.53,-95.71 m 168.01,-175.37 141.51,94.85 713.41,-149.51 -132.38,-98.7 -722.54,153.36 m -80.04,-53.64 61.6,41.28 723.67,-153.9 -65.57,-48.88 -719.7,161.5 m 641.24,-220 -722.61,165.46 62.7,42.02 720.84,-162.05 -60.93,-45.43 m -19.35,-80.36 68.72,51.64 402.46,-92.36 -61.71,-48.47 -409.47,89.19 m 212.18,-244.17 -412.82,93.44 164.6,123.65 410.34,-89.74 -162.12,-127.35 m 299.34,-241.92 -398.86,91.01 152.21,120.54 393.42,-89.23 -146.77,-122.32 m 511.73,-116.77 -475.01,108.39 146.33,122.47 469.32,-106.45 -140.64,-124.41 m -208.67,-227.45 228.81,203.33 469.63,-107.39 -222.3,-206.84 -476.14,110.9 m -84.75,-75.3 66.44,59.03 476.59,-111.25 -66.26,-61.65 -476.77,113.87 m -262.28,-233.07 243.67,216.53 477.22,-114.22 -238.38,-221.81 -482.51,119.5 m -59.56,-582.16 117.14,154.51 180.89,-32.76 -121.7,-154.28 -176.33,32.53 m -230.38,19.05 170.42,-31.51 -124.19,-162.58 c -29.14,5.64 -54.46,10.54 -75.51,14.62 -22.17,4.3 -48.57,9.62 -78.48,15.79 l 107.76,163.68 m -185.37,34.28 141.65,-26.19 -107.85,-162.66 c -45.98,9.63 -98.33,20.79 -155.5,33.09 l 121.7,155.76 m -406.03,75.09 362.7,-67.07 -121.46,-154.5 c -74.23,16.02 -155.34,33.64 -240.3,52.11 -38.16,8.29 -77.12,16.74 -116.69,25.34 l 115.75,144.12 m -273.16,-110.04 114.17,139.43 116.25,-21.49 -115.4,-142.83 c -37.9,8.21 -76.28,16.52 -115.02,24.89 m -51.25,-62.59 c 39.13,-8.5 77.67,-16.91 115.47,-25.16 l -186.22,-230.49 -119.13,23.76 189.88,231.89 m -438.052,-182.38 209.432,231.84 c 48.38,-10.39 96.48,-20.78 143.99,-31.08 l -192.87,-232.79 -160.552,32.03 m -38.949,-43.13 164.811,-33.03 c -37.92,-50.89 -78.913,-102.82 -119.186,-152.19 l -182.141,34.09 136.516,151.13 m -262.559,52.63 218.973,-43.89 -137.594,-151.5 -219.738,41.12 c 43.742,48.45 90.324,100.38 138.359,154.27 m 120.852,304.76 C 699.883,1891.06 628.066,1810.86 558.359,1733.66 l -134.238,26.78 219.984,234.97 c 41.188,-8.34 83.106,-16.91 125.567,-25.68 m 54.039,61.06 c -41.625,8.54 -82.719,16.89 -123.082,24.99 l 113.219,120.93 118.601,-21.93 C 897.59,2114.76 861.137,2073.2 823.711,2030.79 m 294.059,-134.46 -210.879,-232.2 -219.813,43.85 c 68.485,77.08 138.996,157.12 207.59,235.7 73.949,-15.53 148.712,-31.41 223.102,-47.35 m 55.63,61.25 c -75.44,16.05 -150.89,31.98 -225.291,47.49 37.594,43.29 74.221,85.74 109.241,126.61 l 234.75,-43.41 -118.7,-130.69 m 295.51,98 -113.48,-136.98 c -46.5,10.01 -93.33,20.05 -140.25,30.07 l 119.06,131.81 134.67,-24.9 m 16.61,20.04 -133.43,24.61 133.31,147.58 124.15,-22.49 -124.03,-149.7 m 322.67,113.73 -121.84,-150.79 -116.09,21.42 122.98,150.19 114.95,-20.82 m 283.34,-225.54 -362.51,66.88 121.29,151.03 361.12,-65.4 -119.9,-152.51 m 162.61,144.77 354.07,-64.13 -117.84,-154.24 -355.58,65.61 119.35,152.76 m -211.83,470.44 493.16,-122.41 -184.88,-163.54 -0.49,-0.56 -0.64,-0.62 -122.52,-155.85 -360.93,65.23 126.63,157.68 c 1.44,1.77 1.61,3.63 0.84,5.39 l 299.85,-72.76 c 3.46,-0.83 7.05,-1.23 10.65,-1.23 7.94,0 15.53,1.97 19.3,5.39 5.47,5 1,11.18 -10,13.87 l -459.83,111.33 188.86,158.08 m 233.87,236.15 -251.8,-209.85 -415.86,102.99 258.56,204.77 409.1,-97.91 m 86.33,71.95 -67.05,-55.87 -408.52,97.55 67.61,53.55 407.96,-95.23 m -237.09,230.56 402.08,-93.05 -145.99,-121.68 -407.39,94.9 151.3,119.83 m -395.18,187.46 418.49,-95.7 -76.46,-60.06 -420.21,97.03 78.18,58.73 m -680.85,327.63 788.81,-178.92 -158.7,-118.31 -685.141,156.33 55.031,140.9 m -8.73,172.68 -56.043,-140.22 -98.551,22.31 69.2,136.59 85.394,-18.68 m 29.07,27.66 -73.835,16.09 76.935,28.13 -3.1,-44.22 m 1097.77,-608.92 -418.05,95.39 157.86,118.59 413.26,-93.73 -153.07,-120.25 m 378.45,-184.18 -401.53,92.71 76.14,60.3 399.4,-91.33 -74.01,-61.68 m -127.03,-145.77 237.8,199.04 475.57,-108.75 -229.49,-203 -483.88,112.71 m -85.96,-71.95 67.02,56.09 484.46,-113.09 -66.5,-58.82 -484.98,115.82 m 375.86,-212.34 -153.8,-136.05 -492.55,121.98 155.33,130.02 491.02,-115.95 m -471.45,132.34 76.35,63.9 485.57,-116.22 -71.5,-63.24 -490.42,115.56 M 1254.44,3758.7 c 1.55,-1.38 4.13,-2.57 7.69,-3.39 2.94,-0.65 6.14,-0.91 9.34,-0.96 l 2.29,0.12 748.18,-163.64 -165.04,-123.04 -801.12,181.33 55.06,140.98 143.6,-31.4 m 117.73,84.72 -86.01,-57.45 -142.08,30.95 4.79,77.74 223.3,-51.24 m 32.21,-7.39 723.71,-166.07 -69.95,-52.15 -739.13,161 85.37,57.22 m 49.48,61.94 -62.71,-41.88 -237.19,54.31 63.58,40.7 236.32,-53.13 m -138.08,116.01 145.68,93.26 232.7,-48.77 -141.79,-94.7 -236.59,50.21 m 218.12,-62.55 -61.34,-40.96 -235.83,52.91 60.09,38.47 237.08,-50.42 m 284.6,-1559.75 14,11.73 130.34,-31.63 c -5.28,-1.03 -9.67,-2.99 -11.82,-5.65 l -127.06,-157.26 -114.8,20.74 129.82,158.54 -20.48,3.53 m 887.09,-827.63 -150.11,-228.8 -170.38,34 174.88,223.09 c 45.36,-8.8 93.97,-18.25 145.61,-28.29 m -310.28,134.29 123.61,163.07 175.71,-32.49 -128.95,-163.49 c -64.57,12.46 -121.65,23.49 -170.37,32.91 m 537.61,464.51 c 7.19,-1.8 14.87,-2.67 22.28,-2.67 l 0.75,0.02 -107.62,-136.44 -181.47,32.79 117.7,155.27 c 4.07,5.33 -2.19,11.4 -13.91,13.53 -11.71,2.15 -24.57,-0.43 -28.63,-5.74 l -118.58,-155.22 -168.29,30.41 117,156.16 c 3.96,5.36 -2.27,11.32 -13.99,13.39 -11.71,2.05 -24.42,-0.57 -28.46,-5.88 l -117.58,-155.89 -142.54,25.76 121.35,155.32 183.69,163.23 482.97,-119.89 -145.77,-135.63 c -10.83,-10.08 -1.44,-22.85 21.1,-28.52 m -1021.08,2009.12 154.89,104.3 687.57,-139.46 -145.92,-108.79 -696.54,143.95 m -245.22,-38.22 c 2.8,-0.57 5.83,-0.83 8.77,-0.83 6.4,0 12.62,1.28 15.86,3.47 l 74.76,50.44 112.52,-23.31 v 0 l 128.08,-26.51 -71.07,-52.03 c -4.6,-3.37 -1.01,-7.54 7.98,-9.3 2.72,-0.56 5.66,-0.78 8.51,-0.82 6.58,0 12.9,1.35 16.1,3.68 l 70.49,51.84 553.37,-114.58 -135.5,-101.01 -712.31,148.98 69.93,46.86 c 4.86,3.3 1.71,7.43 -7.02,9.3 -8.81,1.85 -19.92,0.71 -24.78,-2.59 l -70.18,-46.87 -232.22,48.58 149.93,95.97 104.59,-21.66 -74.87,-50.36 c -4.87,-3.29 -1.71,-7.4 7.06,-9.25 m -956.015,-669.97 85.29,45.77 4.199,8.29 115.097,-26.32 -25.062,-62.72 -7.875,-4.65 -171.649,39.63 m -96.082,-51.56 71.711,38.48 173.141,-40.07 -67.426,-39.83 -177.426,41.42 m -268.82,-99.64 -116.176,32.5 145.438,85.19 123.965,-29.06 -153.227,-88.63 m 220.699,72.81 179.145,-42.01 -376.836,-222.63 -170.496,50.36 368.187,214.28 m 775.888,-887.93 24.08,19.06 427.12,-103.64 -15.3,-12.75 -1.2,-1.3 -20.73,3.57 -130.65,-157.69 -122.95,22.21 142.07,157.28 c 4.61,5.09 -0.75,10.88 -12.01,12.98 -11.23,2.07 -24.08,-0.35 -28.69,-5.44 l -142.88,-157.32 -245.81,44.42 c 55.57,67.15 99.86,122.66 127.09,160.1 4.58,6.29 4.17,12.74 -0.14,18.52 m 291.34,-1518.55 -344.9,-23.531 -33.57,202.571 341.26,20.7 37.21,-199.74 m -30.57,225.62 -769.646,-46.58 c 58.035,65.46 209.916,239.65 330.826,403.71 l 535.77,-107.4 -96.95,-249.73 m 513.5,-192.68 -432.8,-29.53 -38.04,199.32 503.76,30.55 -48.28,-70.3 -0.03,-0.05 c -1.08,-1.57 -1.86,-3.2 -2.31,-4.89 l -0.04,-0.07 c -0.27,-1.06 -0.21,-2.14 -0.22,-3.23 l -0.09,-1.93 -0.01,-0.22 18.06,-119.65 m 1451.8,1070.47 -1.64,0.38 c -12.14,2.18 -24.82,-0.53 -28.41,-6.02 l -347.65,-531.82 c -225.94,43.58 -422.68,81.52 -580.17,111.92 l 399.89,510.11 c 3.49,4.43 -0.27,9.41 -8.38,12.29 l 136.08,127.85 523.17,-129.87 -92.89,-94.84 M 47.6289,843.941 l 95.4531,6.52 c 7.215,-61.59 14.891,-123.719 22.313,-183.313 C 131.074,720.738 92.1992,779.66 47.6289,843.941 M 4500,1215.55 v 76.79 c -198.09,38.22 -390.03,75.24 -572.25,110.39 l 35,107.07 0.04,0.35 0.15,1.35 -0.02,0.99 -0.35,1.2 -0.49,1.18 -0.62,0.91 -1.24,1.47 -0.2,0.23 -181.85,171.13 222.6,308.44 c 3.94,5.47 -2.67,11.88 -14.83,14.34 -12.18,2.46 -25.13,0 -29.07,-5.49 l -227,-312.42 -0.05,-0.11 -0.8,-1.6 -0.25,-0.6 -0.08,-1.43 -0.01,-0.81 0.43,-1.23 0.4,-1.02 0.76,-1.01 0.98,-1.18 0.15,-0.19 182.24,-172.22 -33.23,-100.22 c -126.71,24.43 -248.54,47.92 -364.2,70.23 -97.14,18.73 -190.54,36.74 -279.72,53.95 l 339.35,522.98 c 2.53,-0.4 5.09,-0.66 7.59,-0.66 8.07,0 15.52,2.01 19,5.57 l 109.21,112.1 0.03,0.02 0.04,0.05 233.44,239.62 518.35,-124.06 c 3.68,-0.88 7.54,-1.31 11.22,-1.31 7.8,0.05 14.86,1.89 17.99,5.22 4.6,4.96 -1.06,11.18 -12.55,13.94 l -517.98,123.7 72.19,74.09 0.13,0.1 0.09,0.14 215.65,221.35 249.76,-57.11 v 20.17 l -233.77,53.35 143.39,147.2 0.11,0.08 0.07,0.1 73.6,75.55 c 4.26,4.3 -1.09,9.7 -11.93,12.06 -10.69,2.33 -22.88,0.79 -27.05,-3.5 l -66.41,-67.81 -223.96,48.37 -1.92,0.33 -1.61,0.27 -2.39,0.24 -1.75,0.14 -2.06,0.03 h -2.06 l -1.59,-0.11 -2.33,-0.21 -1.21,-0.19 -2.34,-0.44 -1.04,-0.29 -2.08,-0.64 -1,-0.43 -1.57,-0.75 -0.97,-0.67 -0.88,-0.61 -158.21,-140.91 -235.15,53.66 317.68,298.46 0.07,0.04 0.02,0.04 337.81,317.36 c 8.15,7.62 -1.67,17.27 -21.94,21.53 -20.2,4.21 -43.15,1.48 -51.35,-6.14 l -324.07,-301.53 -1385.92,301.9 440.16,348.6 1103.75,-228.49 c 6.31,-1.28 12.89,-1.93 19.2,-1.93 13.65,0 26.02,2.89 31.54,7.93 8.11,7.41 -1.4,16.71 -21.23,20.79 l -1101.18,227.1 199.66,158.12 649.04,-131.65 c 6.11,-1.23 12.5,-1.79 18.7,-1.84 13.1,0.05 25.11,2.67 30.6,7.42 8.12,6.88 -0.75,15.61 -19.82,19.46 l -647.84,130.91 121.34,96.11 516.5,-101.37 c 2.94,-0.57 6.05,-0.83 9.08,-0.83 6.44,0 12.36,1.27 15.04,3.59 3.94,3.34 -0.53,7.55 -9.92,9.38 l -515.78,101.04 258.44,204.67 290.6,-55.85 c 2.83,-0.57 5.91,-0.84 8.85,-0.84 6.19,0 11.89,1.23 14.51,3.33 3.86,3.13 -0.38,7.11 -9.51,8.82 l -290.36,55.71 55.47,43.93 416.18,-79.38 c 2.94,-0.52 5.98,-0.78 8.87,-0.78 6.22,0 11.84,1.18 14.38,3.28 3.78,3.11 -0.57,7.02 -9.64,8.73 l -415.87,79.17 83.89,66.44 h -79.25 l -68.99,-54.19 -284.65,54.19 h -71.1 l 341.77,-65.18 -55.75,-43.8 -380.15,72.94 47.97,36.04 h -79.21 l -32.05,-23.89 -124.52,23.89 h -71.14 l 181.04,-34.79 -124.53,-92.85 -648.01,127.64 h -89.72 l -123.41,-84.55 -199.23,37.91 67.76,46.64 h -118.11 l -42.53,-28.97 -152.25,28.97 h -73.66 l 209.76,-39.97 -136.62,-93.06 -243.68,49.24 129.72,83.79 h -79.19 l -111.41,-71.48 -217.89,44.03 43.88,27.45 h -79.15 l -24.68,-15.34 -75.89,15.34 H 963.781 L 1146.8,4462.88 986.445,4363.21 489.41,4465.92 547.773,4500 H 468.344 L 430.582,4478.08 324.516,4500 h -71.02 l 158.356,-32.79 -158.02,-91.71 -253.82809375,53.09 v -15.07 L 234.625,4364.35 82.1211,4275.84 0.00390625,4293.26 v -15.61 L 62.3789,4264.38 0.00390625,4228.18 v -48.02 L 122.383,4251.62 632.395,4143.15 476.539,4046.29 0.00390625,4148.57 V 4132.4 L 456.973,4034.12 l -80.453,-50 -376.51609375,82.01 v -33.07 L 336.758,3959.41 162.754,3851.25 0.00390625,3888.09 v -17.3 L 142.262,3838.52 0.00390625,3750.1 v -54.34 L 5.90234,3699.45 290.551,3634.36 201.324,3581.37 0.00390625,3627.85 v -18.36 L 178.949,3568.09 113.43,3529.18 0.00390625,3555.65 v -37.47 L 179.156,3476.18 35.1719,3399.46 0.00390625,3409.3 v -20.31 L 10.1719,3386.14 0.00390625,3380.72 v -25.77 L 41.7734,3377.28 174.008,3340.19 0.00390625,3238.6 v -33.32 L 108.551,3175.42 0.00390625,3112.64 v -56.88 L 36.3984,3076.94 218.18,3031.82 0.00390625,2902.92 v -84.66 L 33.6953,2856.92 149.395,2837.19 0.00390625,2656.62 v -54.4 L 187.906,2830.62 317.445,2808.52 34.5547,2475.54 0.00390625,2484.98 V 2461.1 L 18.0898,2456.15 0.00390625,2434.86 V 2380.4 L 55.375,2445.94 224.801,2399.55 c 3.34,-0.92 7.109,-1.37 10.879,-1.37 7.636,0 15.261,1.76 19.824,5.01 6.785,4.78 4.082,10.88 -6.047,13.64 l -177.6718,48.54 284.3278,336.55 165.512,-28.24 c 2.453,-0.38 4.992,-0.61 7.5,-0.61 8.555,0 16.887,2.24 20.527,5.97 4.727,4.77 -0.097,10.09 -10.839,11.93 L 51.3164,2873.95 287.766,3014.54 1008.84,2835.56 796.078,2676.94 507.543,2746.8 c -10.039,2.46 -23.105,0.75 -29.297,-3.81 -6.094,-4.56 -2.937,-10.22 7.16,-12.68 l 288.387,-69.98 -72.539,-54.08 -0.965,-0.91 -2.023,-1.68 -153.028,-163.73 -245,44.27 c -10.925,2.01 -23.992,-0.48 -29.121,-5.58 -5.176,-5.08 -0.39,-10.79 10.567,-12.8 l 246.097,-44.57 -134.656,-144.08 -225.953,41.69 c -11.094,2.01 -24.473,-0.53 -29.734,-5.79 -5.305,-5.22 -0.567,-11.19 10.625,-13.24 L 375.07,2257.85 263.227,2138.18 c -81.641,13.85 -152.938,24.62 -210.477,31.37 -2.9687,1.16 -6.1914,2.21 -9.9531,2.97 l -42.79299375,8.6 V 2109.2 C 54.5352,2103.12 125.113,2092.47 207.359,2078.41 L 118.586,1983.42 0.00390625,2017 v -52.47 L 79.7266,1941.85 0.00390625,1856.54 V 1749.11 L 35.8438,1787.85 157.852,1763.39 6.75391,1596.86 c -1.9336,-2.12 -2.47266,-4.32 -1.9375,-6.39 -3.10938,-5.57 2.15625,-11.26 13.03129,-13.3 L 173.598,1547.94 33.5117,1399.07 0.00390625,1406.03 v -27.09 L 12.1719,1376.41 0.00390625,1363.48 v -56.04 L 56.0313,1367.29 194.684,1338.44 c -31.688,-33.36 -57.789,-60.28 -76.711,-78.98 -2.45,-2.37 -4.453,-4.87 -5.922,-7.47 l -0.258,-0.54 c -0.539,-0.99 -1.047,-2 -1.422,-3.02 -0.383,-1.02 -0.629,-2.03 -0.844,-3.05 l -0.16,-0.59 c -0.246,-1.35 -0.34,-2.7 -0.293,-4.04 0.196,-9.2 0.496,-18.81 0.903,-28.8 L 0.00390625,1208.94 v -25.21 L 111.184,1186.8 c 1.007,-18.85 2.324,-38.74 3.894,-59.55 -37.7147,-2.05 -76.1639,-4.14 -115.07409375,-6.23 v -51.39 C 40.332,1071.81 80.1992,1073.97 119.285,1076.12 124.781,1014 132.027,946.16 139.988,877.031 L 29.7734,869.512 C 20.1406,883.238 10.1719,897.289 0.00390625,911.48 V 661.93 C 20.9844,628.789 40.332,597.531 58.2383,568.18 L 0.00390625,561.961 V 533.539 L 74.457,541.5 c 13.3985,-22.121 26.004,-43.129 37.902,-62.961 34.938,-58.238 65.418,-109.008 93.817,-151.25 l 0.433,-0.66 0.563,-0.848 C 311.402,170.941 332.477,139.641 417.203,0 H 594.73 C 490.336,168.492 473.227,193.57 362.41,354.691 359.313,397.43 349.277,473.871 336.168,569.52 L 838.641,623.309 821.598,382.09 c -0.528,-8.07 10.925,-14.61 25.652,-14.61 14.699,0 27.07,6.54 27.59,14.571 l 16.25,245.418 801.65,34.16 35.55,-190.809 c 1.39,-7.422 12.93,-12.949 26.38,-12.992 l 2.6,0.082 c 14.51,0.801 25.08,7.809 23.59,15.699 l -36.3,190.231 421.82,17.98 30.85,-204.379 c 2.29,-15.312 26.18,-27.152 54.02,-27.113 1.02,-0.039 2.04,0 3.08,0 29.12,0.922 50.66,14.512 48.11,30.352 l -23.72,148.41 136.7,7.129 14.57,-101.137 c 1.13,-7.641 13.14,-13.621 27.17,-13.621 l 1.11,0.059 c 14.47,0.32 25.3,6.921 24.12,14.789 l -15.22,102.613 49.93,2.59 c 3.09,-0.653 6.43,-1.02 9.89,-1.02 l 1.39,0.039 c 4.66,0.117 8.85,0.957 12.44,2.219 l 766.82,39.98 33.31,-110.832 c 2.2,-7.367 14.47,-12.937 27.94,-12.937 l 2.24,0.039 c 14.34,0.672 24.03,7.469 21.67,15.262 l -72.39,237.297 724.25,26.761 c 13.95,0.532 23.26,6.969 20.71,14.379 -2.54,7.383 -16.1,13.262 -29.91,12.461 l -723.25,-26.711 -68.32,223.991 306.33,20.94 L 4135.81,966 c 6.49,-1.328 13.01,-1.941 19.29,-1.941 20.04,0 37.63,6.23 43.24,16.492 7.37,13.469 -8.6,28.669 -35.61,34.079 l -688.39,137.32 140.73,235.47 c 271,-52.62 570.55,-110.8 884.93,-171.87"
         style="fill:#ffffff;fill-opacity:1;fill-rule:nonzero;stroke:none"
         id="path46" /><path
         d="m 4319.12,3436.01 c 52.94,-34.39 106.4,-63.21 158.4,-91.23 7.6,-4.1 15.09,-8.14 22.48,-12.14 v 136.89 c -2.28,1.44 -4.63,2.78 -6.91,4.23 -180.51,115.38 -568.19,392.99 -438.07,580.17 26.4,38.07 57.97,75.84 88.25,112.02 55.11,65.99 111.21,133.09 138.53,203.96 9.39,24.43 17.45,49.74 25.44,74.74 5.89,18.47 11.83,36.97 18.36,55.35 h -188.59 c -4.84,-13.38 -9.47,-26.79 -14.06,-40.18 -8.63,-25.17 -16.83,-49.08 -26.58,-72.89 -26.88,-65.65 -79.86,-127.09 -136.83,-193.18 -31.57,-36.67 -64.52,-74.91 -92.88,-114.3 -154.24,-214.14 258.62,-517.41 452.46,-643.44"
         style="fill:#c98730;fill-opacity:1;fill-rule:nonzero;stroke:none"
         id="path48" /><path
         d="m 4500,2674.57 c -63.13,-87.9 -120.36,-180.84 -137.38,-283.1 -16.66,-99.98 -12.49,-204.44 -8.37,-307.54 1.17,-28.99 2.35,-58.39 3.06,-88.06 -175.07,24.93 -434.68,67.3 -774.79,126.47 -927.54,161.37 -2227.85,408.27 -3054.157,567.13 10.211,13.31 20.461,26.66 30.559,39.84 l 4.93,6.43 c 89.054,116.28 181.109,236.47 274.421,350.79 L 2818.35,4500 H 2670.12 L 740.465,3132.6 l -0.621,-0.5 -1.242,-0.99 c -1.989,-1.59 -3.813,-3.28 -5.344,-5.11 l -0.274,-0.26 C 638.91,3011.9 545.238,2891.18 454.652,2774.43 l -3.144,-4.05 c -14.442,-18.64 -29.367,-37.89 -44.617,-57.53 C 246.762,2743.69 108.719,2770.4 0,2791.48 v -103.83 c 95.7422,-18.68 209.027,-40.72 336.277,-65.4 -28.242,-36.07 -57.058,-72.64 -85.968,-108.87 l -13.164,-16.5 C 162.805,2403.65 86.1875,2307.6 0,2211.17 v -173.94 c 24.8672,32.52 50.668,64.82 78.5391,95.41 100.3629,110.11 187.0119,219.98 270.8009,326.22 l 14.57,18.57 c 32.043,40.61 63.512,81.06 94.504,121.15 830.336,-160.73 2139.916,-411.07 3079.426,-575.59 364.07,-63.76 638.78,-108.63 819.23,-133.84 -1.91,-54.4 -7.19,-108.97 -18.75,-162.7 -18.28,-84.85 -64.9,-166.43 -115.11,-254.5 -46.97,-82.3 -96.27,-168.75 -121.93,-261.21 C 4015.77,902.012 3812.72,738.73 3399.89,658.73 3073.7,595.449 2727.98,587.461 2393.27,579.672 1977.87,569.961 1573.03,530.02 1178.85,491.109 926.059,466.172 663.539,440.23 402.465,422.871 267.891,413.93 133.762,404.641 0,394.41 V 238.871 c 139.641,10.918 279.859,20.801 420.66,30.289 272.313,18.379 542.41,45.352 802.75,71.41 389.7,38.981 789.97,78.961 1191.74,88.45 359.49,8.5 730.69,17.269 1098.16,89.5 634.12,124.64 786.16,409.062 849.31,659.25 21.41,84.63 64.69,164.01 109.87,246.82 9.21,16.93 18.45,33.91 27.51,50.97 v 1199.01"
         style="fill:#c98730;fill-opacity:1;fill-rule:nonzero;stroke:none"
         id="path50" /><path
         d="m 4500,2631.49 c -51.39,-76.04 -94.83,-156.09 -108.95,-242.55 -16.32,-99.37 -11.85,-203.59 -7.42,-306.48 1.58,-36.44 3.18,-73.55 3.86,-111.01 -175.05,24.18 -447.04,68.32 -808.39,131.19 -941.5,163.79 -2261.9,414.69 -3086.346,573.29 18.633,24.26 37.094,48.32 55.219,71.97 91.187,119.07 183.113,239.03 276.507,353.36 L 2783.94,4500 h -79.23 L 752.035,3116.29 l -0.047,-0.05 -1.543,-1.38 -2.015,-1.84 -0.028,-0.02 C 653.453,2998.11 560.043,2877.63 467.32,2758.13 450.172,2736 432.75,2713.53 415.145,2690.87 251.918,2722.31 111.035,2749.57 0,2771.1 v -63.07 c 104.48,-20.38 230.105,-44.82 372.168,-72.36 -34.789,-44.57 -70.25,-89.68 -106.227,-134.77 l -13.164,-16.49 C 174.723,2386.51 92.3555,2283.45 0,2181.4 v -111.36 c 20.2734,25.88 41.3125,51.44 63.7539,76.07 100.5271,110.29 188.3321,221.73 271.4841,327.16 l 12.969,16.54 c 34.523,43.75 68.555,87.52 101.93,130.76 829.983,-160.69 2148.313,-412.78 3091.143,-577.87 381.85,-66.88 666.84,-113.2 846.24,-137.56 -1.18,-60.72 -6.18,-121.83 -18.94,-181.98 -18.28,-86.05 -64.94,-168.24 -115.16,-256.69 -46.49,-82.02 -95.38,-168.15 -120.55,-259.75 -86.4,-315.2 -294.58,-482.341 -719.42,-564.829 -330.98,-64.25 -679.82,-72.403 -1017.6,-80.27 C 1982.08,551.949 1577.81,511.988 1184.16,473.09 930.355,448.012 666.781,421.949 404.613,404.488 269.309,395.48 134.465,386.102 0,375.789 v -117.84 c 138.922,10.84 278.395,20.653 418.434,30.082 270.937,18.18 540.175,45.078 799.456,70.989 390.27,38.949 791.11,78.992 1194.37,88.46 356.5,8.418 724.68,17.051 1087.2,88.239 619.06,121.429 768.66,400.41 831.41,646.081 21.89,85.52 65.66,165.39 111.26,248.63 19.91,36.3 39.91,72.86 57.87,109.8 v 1091.26"
         style="fill:#ffd04f;fill-opacity:1;fill-rule:nonzero;stroke:none"
         id="path52" /><path
         d="m 4340.3,3440.65 c 52.22,-33.9 105.3,-62.45 157.01,-90.3 0.91,-0.49 1.79,-0.97 2.69,-1.45 v 103.21 c -9.34,5.63 -18.69,11.26 -27.87,17.14 -182.22,116.61 -572.94,397.33 -440.01,587.8 26.63,38.24 58.37,76.05 88.77,112.27 55.09,65.66 111.13,132.4 138.36,202.65 9.52,24.57 17.73,50.05 25.62,74.53 5.74,17.84 11.53,35.72 17.85,53.5 h -142.87 c -5.03,-13.96 -9.82,-27.96 -14.57,-41.93 -8.61,-25.26 -16.76,-49.25 -26.5,-73.19 -26.92,-66.27 -79.99,-128.07 -137.04,-194.51 -31.4,-36.58 -64.25,-74.82 -92.32,-114.02 -151.26,-210.86 258.61,-511.02 450.88,-635.7"
         style="fill:#ffd04f;fill-opacity:1;fill-rule:nonzero;stroke:none"
         id="path54" /><g
         id="g56"><g
           id="g58"
           clip-path="url(#clipPath62)"><path
             d="m 3511.93,3471.26 c 0,0 -72.1,82.96 9.97,171.62 30.09,32.51 88.65,60.73 149.24,74.81 l 167.75,-34.73 c 0.35,-11.92 -5.82,-25.57 -19.25,-40.08 -82.07,-88.66 -307.71,-171.62 -307.71,-171.62 m 205.97,222.56 c -49.65,0 -111,-22.81 -137.03,-50.94 -26.05,-28.13 -6.91,-50.94 42.76,-50.94 49.64,0 110.99,22.81 137.03,50.94 26.03,28.13 6.89,50.94 -42.76,50.94"
             style="fill:url(#linearGradient68);fill-opacity:1;fill-rule:nonzero;stroke:none"
             id="path70" /></g></g><g
         id="g72"><g
           id="g74"
           clip-path="url(#clipPath78)"><path
             d="m 3838.89,3682.96 -167.75,34.73 c 26.24,6.1 52.85,9.54 77.7,9.54 56.61,0 89.27,-17.9 90.05,-44.27"
             style="fill:url(#linearGradient84);fill-opacity:1;fill-rule:nonzero;stroke:none"
             id="path86" /></g></g><path
         d="m 3422.01,3774.15 c 0,49.64 40.23,89.9 89.89,89.9 49.65,0 89.89,-40.26 89.89,-89.9 0,-49.65 -40.24,-89.9 -89.89,-89.9 -49.66,0 -89.89,40.25 -89.89,89.9 z m 89.89,-302.89 c 0,0 148.87,146.41 148.87,302.89 0,82.22 -66.65,148.88 -148.87,148.88 -82.23,0 -148.87,-66.66 -148.87,-148.88 0,-156.48 148.87,-302.89 148.87,-302.89"
         style="fill:#cf4623;fill-opacity:1;fill-rule:nonzero;stroke:none"
         id="path88" /><path
         d="m 3422.01,3774.15 c 0,49.64 40.23,89.9 89.89,89.9 v 58.98 c -82.23,0 -148.87,-66.66 -148.87,-148.88 0,-156.48 148.87,-302.89 148.87,-302.89 v 212.99 c -49.66,0 -89.89,40.25 -89.89,89.9"
         style="fill:#d95225;fill-opacity:1;fill-rule:nonzero;stroke:none"
         id="path90" /><g
         id="g92"><g
           id="g94"
           clip-path="url(#clipPath98)"><path
             d="m 1505.79,4017.68 c 0,0 -32.16,37 -16.72,83.77 l 138.79,-29.09 c -60.74,-32.13 -122.07,-54.68 -122.07,-54.68 m 142.82,66.08 -153.35,32.08 c 4.22,7.93 9.94,16.05 17.49,24.23 l 60.57,38.77 c 31.75,13.23 68.87,21.64 101.67,21.64 23.74,0 41.59,-4.41 52.38,-11.87 l -37.28,-25.07 c -4.37,8 -17.38,13.08 -37.2,13.08 -35.46,0 -79.28,-16.29 -97.86,-36.38 -18.61,-20.09 -4.94,-36.38 30.53,-36.38 31.03,0 68.46,12.48 89.79,29.06 0.01,0 0.02,0 0.04,0 6.4,0 12.62,1.28 15.86,3.47 l 48.04,32.41 c 0.23,-8.5 -4.18,-18.23 -13.74,-28.56 -18.32,-19.79 -46.64,-39.17 -76.94,-56.48"
             style="fill:url(#linearGradient104);fill-opacity:1;fill-rule:nonzero;stroke:none"
             id="path106" /></g></g><g
         id="g108"><g
           id="g110"
           clip-path="url(#clipPath114)"><path
             d="m 1627.86,4072.36 -138.79,29.09 c 1.55,4.71 3.59,9.51 6.19,14.39 l 153.35,-32.08 c -6.84,-3.91 -13.79,-7.72 -20.75,-11.4 m 47.53,60.56 c -0.02,0 -0.03,0 -0.04,0 3.04,2.37 5.75,4.81 8.07,7.32 8.21,8.87 10.13,16.99 6.67,23.3 l 37.28,25.07 c 7.61,-5.25 11.71,-12.02 11.92,-19.81 l -48.04,-32.41 c -3.24,-2.19 -9.46,-3.47 -15.86,-3.47 m -162.64,7.15 c 0.06,0.06 0.11,0.11 0.16,0.17 13.59,14.69 35.32,28.15 60.41,38.6 l -60.57,-38.77"
             style="fill:url(#linearGradient120);fill-opacity:1;fill-rule:nonzero;stroke:none"
             id="path122" /></g></g><path
         d="m 1441.57,4233.99 c 0,35.45 28.73,64.2 64.2,64.2 35.46,0 64.2,-28.75 64.2,-64.2 0,-35.46 -28.74,-64.2 -64.2,-64.2 -35.47,0 -64.2,28.74 -64.2,64.2 z m 64.2,-216.31 c 0,0 106.31,104.55 106.31,216.31 0,58.72 -47.59,106.32 -106.31,106.32 -58.72,0 -106.32,-47.6 -106.32,-106.32 0,-111.76 106.32,-216.31 106.32,-216.31"
         style="fill:#cf4623;fill-opacity:1;fill-rule:nonzero;stroke:none"
         id="path124" /><path
         d="m 1441.57,4233.99 c 0,35.45 28.73,64.2 64.2,64.2 v 42.12 c -58.72,0 -106.32,-47.6 -106.32,-106.32 0,-111.76 106.32,-216.31 106.32,-216.31 v 152.11 c -35.47,0 -64.2,28.74 -64.2,64.2"
         style="fill:#d95225;fill-opacity:1;fill-rule:nonzero;stroke:none"
         id="path126" /><g
         id="g128"><g
           id="g130"
           clip-path="url(#clipPath134)"><path
             d="m 540.258,2704.97 c 2.597,3.39 5.191,6.77 7.781,10.14 l 9.32,-2.26 c -5.785,-2.7 -11.5,-5.33 -17.101,-7.88 m 47.523,22.4 -25.593,6.2 1.664,2.17 c 20.293,26.49 40.738,53.19 61.32,79.98 43.793,11.29 85.238,31.95 107.09,55.55 9.746,10.54 14.508,20.49 14.758,29.27 l 69.996,-17.37 c -2.852,-3.91 -6.129,-7.87 -9.852,-11.9 -49.047,-52.98 -138.449,-104.35 -219.383,-143.9 m 239.805,174.34 -97.82,24.22 c -4.223,2.28 -9.188,4.21 -14.852,5.76 11.715,15 23.477,29.99 35.258,44.92 63.375,-7.35 92.832,-36.67 77.414,-74.9"
             style="fill:url(#linearGradient140);fill-opacity:1;fill-rule:nonzero;stroke:none"
             id="path142" /></g></g><g
         id="g144"><g
           id="g146"
           clip-path="url(#clipPath150)"><path
             d="m 557.359,2712.85 -9.32,2.26 c 3.641,4.75 7.27,9.49 10.883,14.2 l 3.266,4.26 25.593,-6.2 c -10.308,-5.04 -20.488,-9.89 -30.422,-14.52 m 259.657,170.32 -69.996,17.37 c 0.296,10.4 -5.715,19.18 -17.254,25.39 l 97.82,-24.22 c -2.41,-5.98 -5.922,-12.18 -10.57,-18.54"
             style="fill:url(#linearGradient156);fill-opacity:1;fill-rule:nonzero;stroke:none"
             id="path158" /></g></g><g
         id="g160"><g
           id="g162"
           clip-path="url(#clipPath166)"><path
             d="m 406.891,2712.85 c -7.547,1.45 -15.051,2.9 -22.5,4.33 -5.977,22.68 -7.993,50.04 0.64,79.81 l 76.942,-13.13 c -2.446,-3.15 -4.879,-6.29 -7.321,-9.43 l -3.144,-4.05 c -14.442,-18.64 -29.367,-37.89 -44.617,-57.53 m 68.918,88.84 -83.895,14.28 c 7.82,17.93 19.762,36.52 37.152,55.3 27.743,29.98 74.559,57.09 127.579,76.53 l 27.777,-6.9 c -8.527,-10.84 -17.043,-21.69 -25.539,-32.54 -22.707,-10.5 -42.16,-23.29 -54.922,-37.09 -16.336,-17.63 -18.684,-33.61 -9.285,-45.28 -6.301,-8.11 -12.594,-16.22 -18.867,-24.3 m 122.472,156.81 -4.976,1.23 c 2.531,0.72 5.074,1.43 7.617,2.11 -0.879,-1.11 -1.762,-2.23 -2.641,-3.34"
             style="fill:url(#linearGradient172);fill-opacity:1;fill-rule:nonzero;stroke:none"
             id="path174" /></g></g><g
         id="g176"><g
           id="g178"
           clip-path="url(#clipPath182)"><path
             d="m 461.973,2783.86 -76.942,13.13 c 1.809,6.23 4.082,12.56 6.883,18.98 l 83.895,-14.28 c -4.618,-5.95 -9.235,-11.9 -13.836,-17.83 m 122.449,157.04 -27.777,6.9 c 11.953,4.38 24.218,8.38 36.66,11.93 l 4.976,-1.23 c -4.625,-5.86 -9.246,-11.73 -13.859,-17.6"
             style="fill:url(#linearGradient188);fill-opacity:1;fill-rule:nonzero;stroke:none"
             id="path190" /></g></g><g
         id="g192"><g
           id="g194"
           clip-path="url(#clipPath198)"><path
             d="m 502.059,2688.05 c 15.472,20.15 30.812,40.15 45.914,59.85 15.73,20.53 31.476,41.1 47.254,61.65 9.968,1.53 20.015,3.61 29.945,6.17 -20.582,-26.79 -41.027,-53.49 -61.32,-79.98 l -1.664,-2.17 -3.266,-4.26 c -3.613,-4.71 -7.242,-9.45 -10.883,-14.2 -2.59,-3.37 -5.184,-6.75 -7.781,-10.14 -13.403,-6.1 -26.227,-11.76 -38.199,-16.92 m -86.914,2.82 c -7.848,1.51 -15.637,3.01 -23.383,4.5 -2.746,6.65 -5.297,13.95 -7.371,21.81 7.449,-1.43 14.953,-2.88 22.5,-4.33 15.25,19.64 30.175,38.89 44.617,57.53 l 3.144,4.05 c 2.442,3.14 4.875,6.28 7.321,9.43 4.601,5.93 9.218,11.88 13.836,17.83 6.273,8.08 12.566,16.19 18.867,24.3 3.683,-4.58 9.176,-8.49 16.336,-11.58 -14.582,-18.76 -29.149,-37.54 -43.692,-56.28 -17.148,-22.13 -34.57,-44.6 -52.175,-67.26 m 143.738,217.49 c 8.496,10.85 17.012,21.7 25.539,32.54 4.613,5.87 9.234,11.74 13.859,17.6 0.879,1.11 1.762,2.23 2.641,3.34 10.391,2.8 20.871,5.28 31.367,7.42 -12.363,-15.6 -24.707,-31.24 -37.031,-46.93 -12.656,-3.96 -24.93,-8.68 -36.375,-13.97 m 156.031,23.33 c -6.566,1.78 -14.074,3.05 -22.465,3.72 11.18,14.33 22.364,28.62 33.578,42.87 8.52,-0.23 16.575,-0.79 24.145,-1.67 -11.781,-14.93 -23.543,-29.92 -35.258,-44.92"
             style="fill:url(#linearGradient204);fill-opacity:1;fill-rule:nonzero;stroke:none"
             id="path206" /></g></g><g
         id="g208"><g
           id="g210"
           clip-path="url(#clipPath214)"><path
             d="m 416.406,2653.34 c 0,0 -13.847,15.94 -24.644,42.03 7.746,-1.49 15.535,-2.99 23.383,-4.5 17.605,22.66 35.027,45.13 52.175,67.26 14.543,18.74 29.11,37.52 43.692,56.28 11.574,-4.98 27.508,-7.82 47.242,-7.82 11.926,0 24.383,1.04 36.973,2.96 -15.778,-20.55 -31.524,-41.12 -47.254,-61.65 -15.102,-19.7 -30.442,-39.7 -45.914,-59.85 -50.344,-21.73 -85.653,-34.71 -85.653,-34.71 m 178.852,268.99 c 12.324,15.69 24.668,31.33 37.031,46.93 28.824,5.88 57.734,9.14 84.965,9.14 2.976,0 5.902,-0.04 8.773,-0.12 -11.214,-14.25 -22.398,-28.54 -33.578,-42.87 -4.566,0.36 -9.398,0.55 -14.48,0.55 -26.43,0 -55.461,-5.09 -82.711,-13.63"
             style="fill:url(#linearGradient220);fill-opacity:1;fill-rule:nonzero;stroke:none"
             id="path222" /></g></g><path
         d="m 302.219,3037.97 c 0,63.04 51.094,114.16 114.148,114.16 63.047,0 114.156,-51.12 114.156,-114.16 0,-63.05 -51.109,-114.16 -114.156,-114.16 -63.054,0 -114.148,51.11 -114.148,114.16 z m 114.148,-384.63 c 0,0 189.043,185.92 189.043,384.63 0,104.41 -84.64,189.06 -189.043,189.06 -104.414,0 -189.043,-84.65 -189.043,-189.06 0,-198.71 189.043,-384.63 189.043,-384.63"
         style="fill:#cf4623;fill-opacity:1;fill-rule:nonzero;stroke:none"
         id="path224" /><path
         d="m 302.219,3037.97 c 0,63.04 51.094,114.16 114.148,114.16 v 74.9 c -104.414,0 -189.043,-84.65 -189.043,-189.06 0,-198.71 189.043,-384.63 189.043,-384.63 v 270.47 c -63.054,0 -114.148,51.11 -114.148,114.16"
         style="fill:#d95225;fill-opacity:1;fill-rule:nonzero;stroke:none"
         id="path226" /><g
         id="g228"><g
           id="g230"
           clip-path="url(#clipPath234)"><path
             d="m 1324.9,1683.18 c 0,0 -14.63,16.84 -26.63,44.62 l 90.11,110.05 c 39.13,-8.5 77.67,-16.91 115.47,-25.16 l -67.95,-84.11 c -64.34,-28.24 -111,-45.4 -111,-45.4 m 191.28,82.49 30.28,37.71 c 10.25,-2.24 20.44,-4.47 30.56,-6.68 -20.38,-10.91 -40.85,-21.29 -60.84,-31.03 m -229.15,70.38 c 1.67,7.31 3.9,14.77 6.76,22.34 3.32,-0.72 6.64,-1.44 9.96,-2.16 l -16.72,-20.18 m 381.87,14.7 c -23.7,5.15 -47.66,10.35 -71.86,15.61 l 13.82,17.2 c 29.39,12.53 54.78,28.46 70.82,45.79 19.41,20.96 21.31,39.87 8.67,53.19 l 22.44,27.94 79.95,-14.79 c 4.45,-19.05 -3.79,-41.85 -26.46,-66.34 -24.91,-26.92 -59.05,-53.47 -97.38,-78.6 m -313.47,67.85 c -7.22,1.56 -14.45,3.11 -21.69,4.67 1.77,2.02 3.59,4.05 5.46,6.08 17,18.36 40.34,35.78 67.69,51.37 l -51.46,-62.12 m 148.46,60.32 46.78,57.12 c 3.55,0.85 7.13,1.66 10.69,2.44 l 108.69,-20.1 -15.39,-19.05 c -9.91,2.01 -21.39,3.08 -34.31,3.08 -37.45,0 -79.54,-9.04 -116.46,-23.49 m 271.86,43.15 -46.73,8.62 8.51,10.61 c 16.05,-4.77 28.88,-11.29 38.22,-19.23 m -89.4,16.49 -56.06,10.35 c 11.67,0.95 23.18,1.44 34.44,1.44 10.63,0 20.68,-0.44 30.1,-1.29 l -8.48,-10.5"
             style="fill:url(#linearGradient240);fill-opacity:1;fill-rule:nonzero;stroke:none"
             id="path242" /></g></g><g
         id="g244"><g
           id="g246"
           clip-path="url(#clipPath250)"><path
             d="m 1298.27,1727.8 c -11.81,27.36 -21.05,65.31 -11.24,108.25 l 16.72,20.18 c -3.32,0.72 -6.64,1.44 -9.96,2.16 7.9,20.94 20.64,42.75 39.95,64.88 7.24,-1.56 14.47,-3.11 21.69,-4.67 l 51.46,62.12 c 41.41,23.6 92,43.04 143.78,55.32 l -46.78,-57.12 c -33.29,-13.03 -62.39,-30.44 -80.09,-49.57 -37.38,-40.36 -9.92,-73.07 61.33,-73.07 40.61,0 86.7,10.65 125.73,27.28 l -13.82,-17.2 c 24.2,-5.26 48.16,-10.46 71.86,-15.61 -28.95,-18.97 -60.3,-37.14 -91.88,-54.05 -10.12,2.21 -20.31,4.44 -30.56,6.68 l -30.28,-37.71 c -28.28,-13.77 -55.58,-26.25 -80.28,-37.09 l 67.95,84.11 c -37.8,8.25 -76.34,16.66 -115.47,25.16 l -90.11,-110.05 m 392.08,254.74 c -7.27,7.67 -19.35,13.49 -35.69,16.79 l 15.39,19.05 -108.69,20.1 c 23.09,5.02 46.3,8.58 68.93,10.43 l 56.06,-10.35 8.48,10.5 c 16.06,-1.45 30.34,-4.09 42.7,-7.76 l -8.51,-10.61 46.73,-8.62 c 8.93,-7.59 14.68,-16.48 16.99,-26.38 l -79.95,14.79 -22.44,-27.94"
             style="fill:url(#linearGradient256);fill-opacity:1;fill-rule:nonzero;stroke:none"
             id="path258" /></g></g><path
         d="m 1195.92,2117.64 c 0,71.21 57.71,128.94 128.94,128.94 71.21,0 128.94,-57.73 128.94,-128.94 0,-71.22 -57.73,-128.96 -128.94,-128.96 -71.23,0 -128.94,57.74 -128.94,128.96 z m 128.94,-434.46 c 0,0 213.53,210.01 213.53,434.46 0,117.93 -95.6,213.55 -213.53,213.55 -117.94,0 -213.54,-95.62 -213.54,-213.55 0,-224.45 213.54,-434.46 213.54,-434.46"
         style="fill:#cf4623;fill-opacity:1;fill-rule:nonzero;stroke:none"
         id="path260" /><path
         d="m 1195.92,2117.64 c 0,71.21 57.71,128.94 128.94,128.94 v 84.61 c -117.94,0 -213.54,-95.62 -213.54,-213.55 0,-224.45 213.54,-434.46 213.54,-434.46 v 305.5 c -71.23,0 -128.94,57.74 -128.94,128.96"
         style="fill:#d95225;fill-opacity:1;fill-rule:nonzero;stroke:none"
         id="path262" /><g
         id="g264"><g
           id="g266"
           clip-path="url(#clipPath270)"><path
             d="m 3278.69,637.789 c -3.99,13.16 -7.11,27.57 -8.64,42.981 l 37.59,1.96 11.57,-38.488 c -13.48,-2.242 -26.99,-4.39 -40.52,-6.453 m -9.56,70.91 c 0.68,19.762 4.23,40.731 11.92,62.512 l 18.31,-60.941 -30.23,-1.571 m 48.66,129.949 c 6.56,8.774 13.89,17.582 22.09,26.434 77.84,84.117 261.29,152.308 409.74,152.308 148.46,0 205.69,-68.191 127.86,-152.308 -1.85,-2 -3.72,-3.98 -5.65,-5.973 l -111.14,-4.097 c 3.7,3.308 7.13,6.66 10.28,10.07 47.01,50.797 12.47,91.977 -77.17,91.977 -89.66,0 -200.45,-41.18 -247.43,-91.977 -7.11,-7.684 -12.35,-15.133 -15.83,-22.262 l -112.75,-4.172"
             style="fill:url(#linearGradient276);fill-opacity:1;fill-rule:nonzero;stroke:none"
             id="path278" /></g></g><g
         id="g280"><g
           id="g282"
           clip-path="url(#clipPath286)"><path
             d="m 3368.82,652.879 -48.41,158.68 105.64,3.91 c 5.28,-25.469 40.09,-42.348 97.5,-42.348 65.2,0 141.59,21.789 196.48,53.211 l 121.79,4.5 c -11.03,-9.57 -22.83,-19.062 -35.26,-28.453 -104.84,-64.551 -238.3,-111.02 -406.67,-143.649 -10.34,-2 -20.7,-3.96 -31.07,-5.851"
             style="fill:url(#linearGradient292);fill-opacity:1;fill-rule:nonzero;stroke:none"
             id="path294" /></g></g><g
         id="g296"><g
           id="g298"
           clip-path="url(#clipPath302)"><path
             d="m 3319.21,644.242 -11.57,38.488 -37.59,-1.96 c -0.89,8.992 -1.25,18.32 -0.92,27.929 l 30.23,1.571 -18.31,60.941 c 7.69,21.809 19.53,44.449 36.74,67.437 l 112.75,4.172 c -4.79,-9.84 -6.21,-19.058 -4.49,-27.351 l -105.64,-3.91 48.41,-158.68 c -16.49,-3.008 -33.03,-5.891 -49.61,-8.637 m 400.82,182.09 c 15.52,8.879 29.32,18.527 40.66,28.68 l 111.14,4.097 c -9.17,-9.48 -19.22,-18.918 -30.01,-28.277 l -121.79,-4.5"
             style="fill:url(#linearGradient308);fill-opacity:1;fill-rule:nonzero;stroke:none"
             id="path310" /></g></g><g
         id="g312"><g
           id="g314"
           clip-path="url(#clipPath318)"><path
             d="m 3284.92,619.77 c -2.22,5.699 -4.33,11.71 -6.23,18.019 13.53,2.063 27.04,4.211 40.52,6.453 16.58,2.746 33.12,5.629 49.61,8.637 10.37,1.891 20.73,3.851 31.07,5.851 168.37,32.629 301.83,79.098 406.67,143.649 -45.29,-34.199 -98.92,-67.008 -153.7,-96.899 -70.87,-25.3 -150.39,-46.3 -239.41,-63.589 -42.56,-8.262 -85.43,-15.602 -128.53,-22.121"
             style="fill:url(#linearGradient324);fill-opacity:1;fill-rule:nonzero;stroke:none"
             id="path326" /></g></g><g
         id="g328"><g
           id="g330"
           clip-path="url(#clipPath334)"><path
             d="m 3321.88,555.23 c 0,0 -21.39,24.61 -36.96,64.54 43.1,6.519 85.97,13.859 128.53,22.121 89.02,17.289 168.54,38.289 239.41,63.589 -160.51,-87.582 -330.98,-150.25 -330.98,-150.25"
             style="fill:url(#linearGradient340);fill-opacity:1;fill-rule:nonzero;stroke:none"
             id="path342" /></g></g><path
         d="m 3159.52,1102.1 c 0,89.63 72.64,162.3 162.31,162.3 89.65,0 162.31,-72.67 162.31,-162.3 0,-89.65 -72.66,-162.319 -162.31,-162.319 -89.67,0 -162.31,72.669 -162.31,162.319 z m 162.31,-546.87 c 0,0 268.79,264.34 268.79,546.87 0,148.44 -120.35,268.8 -268.79,268.8 -148.46,0 -268.8,-120.36 -268.8,-268.8 0,-282.53 268.8,-546.87 268.8,-546.87"
         style="fill:#cf4623;fill-opacity:1;fill-rule:nonzero;stroke:none"
         id="path344" /><path
         d="m 3159.52,1102.1 c 0,89.63 72.64,162.3 162.31,162.3 v 106.5 c -148.46,0 -268.8,-120.36 -268.8,-268.8 0,-282.53 268.8,-546.87 268.8,-546.87 v 384.551 c -89.67,0 -162.31,72.669 -162.31,162.319"
         style="fill:#d95225;fill-opacity:1;fill-rule:nonzero;stroke:none"
         id="path346" /></g></g></svg>
