<?xml version="1.0" encoding="UTF-8" standalone="no"?>
<!-- Created with Inkscape (http://www.inkscape.org/) -->

<svg
   version="1.1"
   id="svg2"
   xml:space="preserve"
   width="284.67999"
   height="482.66666"
   viewBox="0 0 284.67999 482.66666"
   sodipodi:docname="iStock-1351279724.eps"
   xmlns:inkscape="http://www.inkscape.org/namespaces/inkscape"
   xmlns:sodipodi="http://sodipodi.sourceforge.net/DTD/sodipodi-0.dtd"
   xmlns="http://www.w3.org/2000/svg"
   xmlns:svg="http://www.w3.org/2000/svg"><defs
     id="defs6" /><sodipodi:namedview
     id="namedview4"
     pagecolor="#ffffff"
     bordercolor="#666666"
     borderopacity="1.0"
     inkscape:pageshadow="2"
     inkscape:pageopacity="0.0"
     inkscape:pagecheckerboard="0" /><g
     id="g8"
     inkscape:groupmode="layer"
     inkscape:label="ink_ext_XXXXXX"
     transform="matrix(1.3333333,0,0,-1.3333333,0,482.66667)"><g
       id="g10"
       transform="scale(0.1)"><path
         d="m 868.008,2040.09 v 921.71 l 22.137,12.18 v -932.86 c 11.441,0.44 22.582,0.87 33.285,1.17 v 955.73 l 22.144,12.03 v -966.88 l 9.824,0.29 c 3.079,0.15 6.305,0.15 9.383,0.29 l 26.539,0.59 c 2.789,0.14 5.426,0.14 8.067,0.14 l 15.393,0.3 V 3124.42 L 820.938,3004.04 v -966.3 l 47.07,2.35"
         style="fill:#51ade5;fill-opacity:1;fill-rule:nonzero;stroke:none"
         id="path12" /><path
         d="m 1254.96,2041.26 v 960.28 L 1040.3,3118.41 V 2045.22 c 19.06,0.29 31.37,0.29 35.04,0.29 3.23,0 13.2,0 28.6,-0.14 v 913.36 l 114.36,-81.09 v -834.91 l 36.66,-1.47"
         style="fill:#51ade5;fill-opacity:1;fill-rule:nonzero;stroke:none"
         id="path14" /><path
         d="m 1172.92,2559.59 v -48.13 l 28.25,-20.59 v 48.14 l -28.25,20.58"
         style="fill:#51ade5;fill-opacity:1;fill-rule:nonzero;stroke:none"
         id="path16" /><path
         d="m 1211.57,2448.75 v -405.88 c -9.84,0.44 -19.22,0.74 -28.17,0.88 v 425.52 l 28.17,-20.52"
         style="fill:#51ade5;fill-opacity:1;fill-rule:nonzero;stroke:none"
         id="path18" /><path
         d="m 1172.92,2601.77 28.25,-20.58 v 48.13 l -28.25,20.59 v -48.14"
         style="fill:#51ade5;fill-opacity:1;fill-rule:nonzero;stroke:none"
         id="path20" /><path
         d="m 1151.32,2763.16 -28.25,24.08 v -58.83 l 28.25,-20.59 v 55.34"
         style="fill:#51ade5;fill-opacity:1;fill-rule:nonzero;stroke:none"
         id="path22" /><path
         d="m 1202.41,2726.4 -28.25,24.08 v -58.84 l 28.25,-20.57 v 55.33"
         style="fill:#51ade5;fill-opacity:1;fill-rule:nonzero;stroke:none"
         id="path24" /><path
         d="m 1151.32,2865.47 -28.25,24.09 v -58.84 l 28.25,-20.59 v 55.34"
         style="fill:#51ade5;fill-opacity:1;fill-rule:nonzero;stroke:none"
         id="path26" /><path
         d="m 1202.41,2828.71 -28.25,24.09 v -58.84 l 28.25,-20.58 v 55.33"
         style="fill:#51ade5;fill-opacity:1;fill-rule:nonzero;stroke:none"
         id="path28" /><path
         d="m 1151.32,2665.64 -28.25,20.58 v -48.13 l 28.25,-20.58 v 48.13"
         style="fill:#51ade5;fill-opacity:1;fill-rule:nonzero;stroke:none"
         id="path30" /><path
         d="m 1151.32,2575.32 -28.25,20.59 v -48.14 l 28.25,-20.58 v 48.13"
         style="fill:#51ade5;fill-opacity:1;fill-rule:nonzero;stroke:none"
         id="path32" /><path
         d="m 1161.7,2044.34 v 440.77 l -28.15,20.53 v -460.71 l 28.15,-0.59"
         style="fill:#51ade5;fill-opacity:1;fill-rule:nonzero;stroke:none"
         id="path34" /><path
         d="m 736.77,2916.64 -39.149,29.33 v 63.49 l 39.149,-28.16 z m 0,-90.03 -39.149,29.33 v 63.93 l 39.149,-29.18 z m 0,-90.02 -39.149,29.32 v 63.93 l 39.149,-29.18 z m 0,-90.04 -39.149,29.33 v 63.93 l 39.149,-29.33 z m 0,-90.03 -39.149,29.33 v 63.93 l 39.149,-29.33 z m 0,-90.03 -39.149,29.33 v 63.92 l 39.149,-29.32 z m 0,-90.03 -39.149,29.18 v 64.07 l 39.149,-29.32 z m 0,-274.64 h -39.149 v 277.86 l 39.149,-29.32 z m -62.614,861.75 -39.144,29.18 v 61.73 l 39.144,-28.16 z m 0,-90.04 -39.144,29.18 v 63.93 l 39.144,-29.18 z m 0,-90.17 -39.144,29.32 v 63.93 l 39.144,-29.18 z m 0,-90.03 -39.144,29.32 v 63.94 l 39.144,-29.18 z m 0,-90.04 -39.144,29.33 v 63.93 l 39.144,-29.17 z m 0,-90.03 -39.144,29.33 v 63.93 l 39.144,-29.18 z m 0,-90.03 -39.144,29.33 v 63.93 l 39.144,-29.32 z m 0,-321.41 h -39.144 v 324.64 l 39.144,-29.33 z M 596.594,3244.66 V 2018.24 c 58.066,7.19 118.039,12.47 174.929,16.27 v 1033.9 l -174.929,176.25"
         style="fill:#34368c;fill-opacity:1;fill-rule:nonzero;stroke:none"
         id="path36" /><path
         d="m 542.781,2984.54 -39.148,-29.33 v 62.9 l 39.148,28.01 z m 0,-90.04 -39.148,-29.32 v 64.07 l 39.148,29.18 z m 0,-90.03 -39.148,-29.32 v 64.07 l 39.148,29.18 z m 0,-90.03 -39.148,-29.33 v 64.08 l 39.148,29.18 z m 0,-90.03 -39.148,-29.32 v 63.93 l 39.148,29.32 z m 0,-90.03 -39.148,-29.33 v 63.93 l 39.148,29.33 z m 0,-90.03 -39.148,-29.33 v 63.93 l 39.148,29.33 z m 0,-350.74 h -39.148 v 295.31 l 39.148,29.33 z m -62.613,844.15 -39.148,-29.33 v 64.67 l 39.148,28.15 z m 0,-90.03 -39.148,-29.33 v 63.93 l 39.148,29.33 z m 0,-90.03 -39.148,-29.33 v 63.93 l 39.148,29.33 z m 0,-90.04 -39.148,-29.32 v 63.93 l 39.148,29.33 z m 0,-90.17 -39.148,-29.18 v 63.93 l 39.148,29.33 z m 0,-90.03 -39.148,-29.18 v 63.93 l 39.148,29.33 z m 0,-90.03 -39.148,-29.18 v 63.93 l 39.148,29.33 z m 0,-303.82 H 441.02 v 248.54 l 39.148,29.32 z m -73.898,994.3 V 1984.07 c 51.316,13.5 111.73,24.05 174.929,32.27 V 3236.59 L 406.27,3087.91"
         style="fill:#34368c;fill-opacity:1;fill-rule:nonzero;stroke:none"
         id="path38" /><path
         d="m 1670.2,2771.07 -41.28,20.38 v -126.63 l 41.28,-21.55 v 127.8"
         style="fill:#34368c;fill-opacity:1;fill-rule:nonzero;stroke:none"
         id="path40" /><path
         d="m 1628.92,2382.47 41.28,-21.55 v 45.04 l -41.28,21.55 v -45.04"
         style="fill:#34368c;fill-opacity:1;fill-rule:nonzero;stroke:none"
         id="path42" /><path
         d="m 1628.92,2453.05 41.28,-21.54 v 45.04 l -41.28,21.55 v -45.05"
         style="fill:#34368c;fill-opacity:1;fill-rule:nonzero;stroke:none"
         id="path44" /><path
         d="m 1628.92,2311.88 41.28,-21.55 v 45.05 l -41.28,21.54 v -45.04"
         style="fill:#34368c;fill-opacity:1;fill-rule:nonzero;stroke:none"
         id="path46" /><path
         d="m 1628.92,2568.69 v -45.05 l 41.28,-21.54 v 45.04 l -41.28,21.55"
         style="fill:#34368c;fill-opacity:1;fill-rule:nonzero;stroke:none"
         id="path48" /><path
         d="m 1628.92,2042.7 h 41.28 v 151.51 l -41.28,21.54 V 2042.7"
         style="fill:#34368c;fill-opacity:1;fill-rule:nonzero;stroke:none"
         id="path50" /><path
         d="m 1628.92,2241.29 41.28,-21.55 v 45.05 l -41.28,21.55 v -45.05"
         style="fill:#34368c;fill-opacity:1;fill-rule:nonzero;stroke:none"
         id="path52" /><path
         d="m 1670.2,2617.73 -41.28,21.54 v -45.04 l 41.28,-21.54 v 45.04"
         style="fill:#34368c;fill-opacity:1;fill-rule:nonzero;stroke:none"
         id="path54" /><path
         d="m 1628.92,2886.16 41.28,-21.55 v 45.04 l -41.28,21.55 v -45.04"
         style="fill:#34368c;fill-opacity:1;fill-rule:nonzero;stroke:none"
         id="path56" /><path
         d="m 1628.92,2947.58 41.28,-21.54 v 45.04 l -41.28,21.55 v -45.05"
         style="fill:#34368c;fill-opacity:1;fill-rule:nonzero;stroke:none"
         id="path58" /><path
         d="m 1628.92,2817.71 41.28,-21.55 v 45.05 l -41.28,21.54 v -45.04"
         style="fill:#34368c;fill-opacity:1;fill-rule:nonzero;stroke:none"
         id="path60" /><path
         d="m 1565.97,3002.42 -41.21,19.95 v 48.53 l 41.21,-19.94 z m 0,-110.71 -41.21,12.91 v 96.04 l 41.21,-19.79 z m 0,-171.55 -41.21,19.94 v 133.29 l 41.21,-14.81 z m 0,-70.09 -41.21,19.8 v 48.53 l 41.21,-19.79 z m 0,-70.23 -41.21,19.94 v 48.53 l 41.21,-19.94 z m 0,-70.09 -41.21,19.93 v 48.39 l 41.21,-19.79 z m 0,-70.09 -41.21,19.79 v 48.54 l 41.21,-19.8 z m 0,-70.24 -41.21,19.94 v 48.54 l 41.21,-19.94 z m 0,-70.09 -41.21,19.8 v 48.53 l 41.21,-19.79 z m 0,-256.6 h -41.21 v 254.84 l 41.21,-19.94 z m -68.33,1162.34 -3.09,-469.37 v -710.71 c 39.01,-3.96 77.87,-8.65 115.11,-14.23 v 1034.33 l 80.35,-60.12 v -979.48 l -80.35,15.14 v -9.87 c 36.37,-6.01 103.53,-18.47 134.61,-26.54 v 1005.59 l -246.63,215.26"
         style="fill:#34368c;fill-opacity:1;fill-rule:nonzero;stroke:none"
         id="path62" /><path
         d="m 1422.71,3021.78 -66.87,-66.87 v 47.07 l 66.87,62.76 z m 0,-88.86 -66.87,-66.86 v 47.07 l 66.87,62.6 z m 0,-102.35 -66.87,-66.86 v 46.92 l 66.87,62.76 z m 0,-102.49 -66.87,-66.87 v 47.08 l 66.87,62.75 z m 0,-102.35 -66.87,-66.87 v 47.07 l 66.87,62.77 z m 0,-102.35 -66.87,-66.86 v 47.07 l 66.87,62.76 z m 0,-111.73 -66.87,-66.86 v 47.06 l 66.87,62.76 z m 0,-102.35 -66.87,-66.86 v 47.06 l 66.87,62.76 z m -114.82,751.49 V 2038.77 c 52.06,-2.64 108.95,-6.45 165.99,-11.88 v 1175.24 l -165.99,-141.34"
         style="fill:#34368c;fill-opacity:1;fill-rule:nonzero;stroke:none"
         id="path64" /><path
         d="m 868.008,2040.09 c -15.25,-0.73 -30.945,-1.47 -47.07,-2.35"
         style="fill:#3648a3;fill-opacity:1;fill-rule:nonzero;stroke:none"
         id="path66" /><path
         d="m 923.43,2042.29 c -10.703,-0.3 -21.844,-0.73 -33.285,-1.17"
         style="fill:#3648a3;fill-opacity:1;fill-rule:nonzero;stroke:none"
         id="path68" /><path
         d="m 1014.78,2044.78 c -19.499,-0.3 -42.815,-0.73 -69.206,-1.61 l 69.206,1.61"
         style="fill:#3648a3;fill-opacity:1;fill-rule:nonzero;stroke:none"
         id="path70" /><path
         d="m 1161.7,2044.34 c -10.11,0.3 -19.5,0.44 -28.15,0.59"
         style="fill:#3648a3;fill-opacity:1;fill-rule:nonzero;stroke:none"
         id="path72" /><path
         d="m 1254.96,2041.26 c -12.76,0.59 -24.93,1.03 -36.66,1.47"
         style="fill:#3648a3;fill-opacity:1;fill-rule:nonzero;stroke:none"
         id="path74" /><path
         d="m 1729.72,1957.87 c -142.44,35.23 -382.4,58.36 -654.45,58.36 -280.239,0 -526.446,-24.54 -667.055,-61.57 -136.629,154.91 -219.57,358.3 -219.57,581.09 0,485.41 393.496,878.9 878.895,878.9 485.4,0 878.9,-393.49 878.9,-878.9 0,-221.25 -81.78,-423.38 -216.72,-577.88 z m 403.3,596.65 C 2104.84,3142.3 1655.99,3620 1067.54,3620 479.094,3620 30.2422,3142.3 2.0625,2554.52 -43.0195,1614.17 660.871,1528.46 1067.54,0 1474.21,1528.46 2178.1,1614.17 2133.02,2554.52"
         style="fill:#34368c;fill-opacity:1;fill-rule:nonzero;stroke:none"
         id="path76" /></g></g></svg>
