<?xml version="1.0" encoding="UTF-8" standalone="no"?>
<!-- Created with Inkscape (http://www.inkscape.org/) -->

<svg
   version="1.1"
   id="svg2"
   xml:space="preserve"
   width="800"
   height="800"
   viewBox="0 0 800 800"
   sodipodi:docname="iStock-947278626.eps"
   xmlns:inkscape="http://www.inkscape.org/namespaces/inkscape"
   xmlns:sodipodi="http://sodipodi.sourceforge.net/DTD/sodipodi-0.dtd"
   xmlns="http://www.w3.org/2000/svg"
   xmlns:svg="http://www.w3.org/2000/svg"><defs
     id="defs6" /><sodipodi:namedview
     id="namedview4"
     pagecolor="#ffffff"
     bordercolor="#666666"
     borderopacity="1.0"
     inkscape:pageshadow="2"
     inkscape:pageopacity="0.0"
     inkscape:pagecheckerboard="0" /><g
     id="g8"
     inkscape:groupmode="layer"
     inkscape:label="ink_ext_XXXXXX"
     transform="matrix(1.3333333,0,0,-1.3333333,0,800)"><g
       id="g10"
       transform="scale(0.1)"><path
         d="M 0,0 H 6000 V 6000 H 0 Z"
         style="fill:#039be5;fill-opacity:1;fill-rule:nonzero;stroke:none"
         id="path12" /><path
         d="m 4778.77,4882.68 h -153.88 c 2.14,0.03 4.31,0.52 6.36,1.52 7.45,3.62 10.55,12.6 6.92,20.05 -1.36,2.8 -2.67,5.61 -3.94,8.43 h 144.54 c 8.28,0 15,-6.71 15,-15 0,-8.28 -6.72,-15 -15,-15 m -154.24,0 h -210.3 c -8.28,0 -15,6.72 -15,15 0,8.29 6.72,15 15,15 h 187.4 c 2.92,-7.27 6.11,-14.45 9.57,-21.56 2.57,-5.28 7.83,-8.37 13.33,-8.44"
         style="fill:#81cdf2;fill-opacity:1;fill-rule:nonzero;stroke:none"
         id="path14" /><path
         d="m 4624.71,4882.68 c -0.06,0 -0.12,0 -0.18,0 -5.5,0.07 -10.76,3.16 -13.33,8.44 -3.46,7.11 -6.65,14.29 -9.57,21.56 -15.9,39.48 -23.94,81.27 -23.94,124.53 0,184.39 150.01,334.4 334.4,334.4 137.71,0 260.83,-84.59 310.94,-211.98 16.53,4.76 33.44,7.17 50.45,7.17 82.37,0 153.39,-54.11 176.28,-131.41 21.23,11.06 44.66,16.82 68.84,16.82 82.74,0 150.05,-67.31 150.05,-150.05 l -0.06,-4.67 c -0.1,-8.21 -6.79,-14.81 -15,-14.81 H 5341.2 c -8.28,0 -15,6.72 -15,15 0,8.29 6.72,15 15,15 h 297.01 c -5.26,61.2 -56.9,109.53 -119.61,109.53 -25.16,0 -49.35,-7.83 -69.94,-22.63 -2.59,-1.87 -5.67,-2.83 -8.76,-2.83 -1.92,0 -3.84,0.37 -5.67,1.12 -4.79,1.95 -8.22,6.23 -9.1,11.32 -12.83,73.95 -76.61,127.61 -151.65,127.61 -18.32,0 -36.58,-3.37 -54.23,-10.02 -1.7,-0.64 -3.48,-0.96 -5.27,-0.96 -2.19,0 -4.38,0.48 -6.4,1.43 -3.67,1.73 -6.49,4.86 -7.8,8.7 -42.22,123.01 -157.84,205.66 -287.69,205.66 -167.85,0 -304.4,-136.56 -304.4,-304.4 0,-43.51 8.92,-85.35 26.54,-124.53 1.27,-2.82 2.58,-5.63 3.94,-8.43 3.63,-7.45 0.53,-16.43 -6.92,-20.05 -2.05,-1 -4.22,-1.49 -6.36,-1.52 -0.06,0 -0.12,0 -0.18,0"
         style="fill:#81cdf2;fill-opacity:1;fill-rule:nonzero;stroke:none"
         id="path16" /><path
         d="m 4605.52,4792.74 h -470.87 c -8.28,0 -15,6.72 -15,15 0,8.29 6.72,15 15,15 h 470.87 c 8.28,0 15,-6.71 15,-15 0,-8.28 -6.72,-15 -15,-15"
         style="fill:#81cdf2;fill-opacity:1;fill-rule:nonzero;stroke:none"
         id="path18" /><path
         d="m 4861.06,4792.74 h -160.39 c -8.28,0 -15,6.72 -15,15 0,8.29 6.72,15 15,15 h 160.39 c 8.29,0 15,-6.71 15,-15 0,-8.28 -6.71,-15 -15,-15"
         style="fill:#81cdf2;fill-opacity:1;fill-rule:nonzero;stroke:none"
         id="path20" /><path
         d="m 5266.32,4882.68 h -68.44 c -8.28,0 -15,6.72 -15,15 0,8.29 6.72,15 15,15 h 68.44 c 8.28,0 15,-6.71 15,-15 0,-8.28 -6.72,-15 -15,-15"
         style="fill:#81cdf2;fill-opacity:1;fill-rule:nonzero;stroke:none"
         id="path22" /><path
         d="m 1851.74,4686.2 c -0.12,0 -0.24,0 -0.37,0 h 0.38 v 0 h 0.36 c -0.13,0 -0.25,0 -0.37,0 m 24.05,30 h -24.06 v 0 h -8.99 c 14.21,28.23 21.69,59.7 21.69,91.54 0,112.28 -91.34,203.62 -203.62,203.62 l -1.36,-0.07 -2.66,-0.14 c -7.72,-0.01 -14.02,5.35 -15.17,12.66 -23.9,151.85 -152.78,262.07 -306.45,262.07 -171.28,0 -310.63,-139.35 -310.63,-310.64 0,-4.14 0.28,-8.22 0.56,-12.31 l 0.35,-5.55 c 0.28,-4.85 -1.81,-9.53 -5.61,-12.56 -2.7,-2.15 -6.02,-3.27 -9.38,-3.27 -1.38,0 -2.76,0.19 -4.11,0.57 -12.772,3.66 -25.733,5.51 -38.537,5.51 -77.133,0 -139.887,-62.75 -139.887,-139.89 v 0 c 0,8.29 -6.715,15 -15,15 h -14.348 c 7.621,86.68 80.613,154.89 169.235,154.89 8.886,0 17.824,-0.73 26.722,-2.18 0.113,187.74 152.875,340.43 340.635,340.43 164.2,0 302.59,-114.74 333.83,-274.66 125.04,-4.33 225.43,-107.41 225.43,-233.48 0,-31.53 -6.4,-62.74 -18.64,-91.54"
         style="fill:#81cdf2;fill-opacity:1;fill-rule:nonzero;stroke:none"
         id="path24" /><path
         d="m 2161.15,4686.2 h -309.4 c 8.29,0 15,6.72 15,15 0,8.29 -6.71,15 -15,15 h -0.02 v 0 h 24.06 285.36 c 8.29,0 15,-6.71 15,-15 0,-8.28 -6.71,-15 -15,-15"
         style="fill:#81cdf2;fill-opacity:1;fill-rule:nonzero;stroke:none"
         id="path26" /><path
         d="M 812.926,4792.74 H 601.785 c -8.281,0 -15,6.71 -15,15 0,8.29 6.719,15 15,15 h 196.793 14.348 c 8.285,0 15,-6.71 15,-15 v 0 c 0,-8.29 -6.715,-15 -15,-15"
         style="fill:#81cdf2;fill-opacity:1;fill-rule:nonzero;stroke:none"
         id="path28" /><path
         d="m 1851.75,4686.2 h -238.99 c -8.29,0 -15,6.72 -15,15 0,8.29 6.71,15 15,15 h 229.98 8.99 0.02 c 8.29,0 15,-6.71 15,-15 0,-8.28 -6.71,-15 -15,-15 v 0"
         style="fill:#81cdf2;fill-opacity:1;fill-rule:nonzero;stroke:none"
         id="path30" /><path
         d="m 1495.55,4686.2 h -92.1 c -8.29,0 -15,6.72 -15,15 0,8.29 6.71,15 15,15 h 92.1 c 8.28,0 15,-6.71 15,-15 0,-8.28 -6.72,-15 -15,-15"
         style="fill:#81cdf2;fill-opacity:1;fill-rule:nonzero;stroke:none"
         id="path32" /><path
         d="M 707.359,4686.2 H 394.57 c -8.289,0 -15,6.72 -15,15 0,8.29 6.711,15 15,15 h 312.789 c 8.286,0 15,-6.71 15,-15 0,-8.28 -6.714,-15 -15,-15"
         style="fill:#81cdf2;fill-opacity:1;fill-rule:nonzero;stroke:none"
         id="path34" /><path
         d="M 926.223,4578.41 H 601.785 c -8.281,0 -15,6.71 -15,15 0,8.28 6.719,15 15,15 h 324.438 c 8.285,0 14.996,-6.72 14.996,-15 0,-8.29 -6.711,-15 -14.996,-15"
         style="fill:#81cdf2;fill-opacity:1;fill-rule:nonzero;stroke:none"
         id="path36" /><path
         d="m 1164.83,4578.41 h -104.65 c -8.29,0 -15,6.71 -15,15 0,8.28 6.71,15 15,15 h 104.65 c 8.29,0 15,-6.72 15,-15 0,-8.29 -6.71,-15 -15,-15"
         style="fill:#81cdf2;fill-opacity:1;fill-rule:nonzero;stroke:none"
         id="path38" /><path
         d="m 2886.14,5078.3 h -224.65 c -8.28,0 -15,6.71 -15,15 0,8.28 6.72,15 15,15 h 224.65 c 8.28,0 15,-6.72 15,-15 0,-8.29 -6.72,-15 -15,-15"
         style="fill:#81cdf2;fill-opacity:1;fill-rule:nonzero;stroke:none"
         id="path40" /><path
         d="m 3070.58,4975.46 h -243.32 c -8.29,0 -15,6.72 -15,15 0,8.29 6.71,15 15,15 h 243.32 c 8.28,0 15,-6.71 15,-15 0,-8.28 -6.72,-15 -15,-15"
         style="fill:#81cdf2;fill-opacity:1;fill-rule:nonzero;stroke:none"
         id="path42" /><path
         d="m 2859.76,4893.98 h -52.5 c -8.29,0 -15,6.72 -15,15 0,8.29 6.71,15 15,15 h 52.5 c 8.29,0 15,-6.71 15,-15 0,-8.28 -6.71,-15 -15,-15"
         style="fill:#81cdf2;fill-opacity:1;fill-rule:nonzero;stroke:none"
         id="path44" /><path
         d="m 4105.53,5577.15 h -81.07 c -8.28,0 -15,6.72 -15,15 0,41.52 -33.77,75.29 -75.28,75.29 -15.33,0 -30.11,-4.61 -42.75,-13.34 -2.55,-1.76 -5.53,-2.66 -8.53,-2.66 -2.18,0 -4.36,0.47 -6.39,1.43 -4.84,2.28 -8.09,6.97 -8.54,12.3 -4.75,55.85 -52.39,99.59 -108.47,99.59 -60.07,0 -108.93,-48.87 -108.93,-108.94 0,-8.28 -6.72,-15 -15,-15 h -96.29 c -8.28,0 -15,6.72 -15,15 0,8.29 6.72,15 15,15 h 82.09 c 7.51,69.58 66.59,123.94 138.13,123.94 64.04,0 119.45,-44.72 134.7,-105.2 12.6,5.19 26.13,7.88 39.98,7.88 52.96,0 96.91,-39.31 104.22,-90.29 h 67.13 c 8.28,0 15,-6.71 15,-15 0,-8.28 -6.72,-15 -15,-15"
         style="fill:#81cdf2;fill-opacity:1;fill-rule:nonzero;stroke:none"
         id="path46" /><path
         d="m 3569.28,5585.59 h -143.75 c -8.28,0 -15,6.72 -15,15.01 0,8.28 6.72,15 15,15 h 143.75 c 8.28,0 15,-6.72 15,-15 0,-8.29 -6.72,-15.01 -15,-15.01"
         style="fill:#81cdf2;fill-opacity:1;fill-rule:nonzero;stroke:none"
         id="path48" /><path
         d="m 3715.53,5585.59 h -49.31 c -8.28,0 -15,6.72 -15,15.01 0,8.28 6.72,15 15,15 h 49.31 c 8.28,0 15,-6.72 15,-15 0,-8.29 -6.72,-15.01 -15,-15.01"
         style="fill:#81cdf2;fill-opacity:1;fill-rule:nonzero;stroke:none"
         id="path50" /><path
         d="m 3000,553.02 c -1478.54,0 -2677.129,142.25 -2677.129,317.73 0,175.49 1198.589,317.75 2677.129,317.75 1478.53,0 2677.13,-142.26 2677.13,-317.75 0,-175.48 -1198.6,-317.73 -2677.13,-317.73"
         style="fill:#0384c3;fill-opacity:1;fill-rule:nonzero;stroke:none"
         id="path52" /><path
         d="m 3388.82,1673.12 c 0,-212.24 -172.06,-384.3 -384.31,-384.3 -212.25,0 -384.3,172.06 -384.3,384.3 0,212.25 172.05,384.31 384.3,384.31 212.25,0 384.31,-172.06 384.31,-384.31"
         style="fill:#ffffff;fill-opacity:1;fill-rule:nonzero;stroke:none"
         id="path54" /><path
         d="m 3276.26,1401.39 c -150.09,-150.09 -393.41,-150.09 -543.5,0 -150.08,150.07 -150.08,393.4 0,543.48 150.09,150.08 393.41,150.08 543.5,0 150.08,-150.08 150.08,-393.41 0,-543.48"
         style="fill:#ffffff;fill-opacity:1;fill-rule:nonzero;stroke:none"
         id="path56" /><path
         d="m 3634.71,2228.74 c -48.96,0 -97.75,19.83 -133.29,58.9 -130.08,142.96 -308.17,221.68 -501.44,221.68 -193.27,-0.01 -371.32,-78.73 -501.38,-221.67 -66.95,-73.59 -180.88,-78.97 -254.48,-12.01 -73.57,66.96 -78.95,180.89 -12,254.48 196.29,215.73 476.17,339.48 767.85,339.48 291.69,0 571.6,-123.72 767.93,-339.47 66.95,-73.59 61.59,-187.52 -12,-254.49 -34.51,-31.4 -77.93,-46.9 -121.19,-46.9"
         style="fill:#ffffff;fill-opacity:1;fill-rule:nonzero;stroke:none"
         id="path58" /><path
         d="m 4154.12,2781.17 c -48.96,0 -97.74,19.84 -133.3,58.91 -260.96,286.8 -633.06,451.3 -1020.82,451.3 -387.77,0 -759.86,-164.5 -1020.82,-451.3 -66.97,-73.61 -180.86,-78.97 -254.49,-12.01 -73.59,66.96 -78.95,180.89 -11.99,254.48 329.09,361.67 798.31,569.12 1287.3,569.12 488.99,0 958.21,-207.45 1287.3,-569.12 66.96,-73.59 61.6,-187.52 -11.99,-254.48 -34.54,-31.41 -77.94,-46.9 -121.19,-46.9"
         style="fill:#ffffff;fill-opacity:1;fill-rule:nonzero;stroke:none"
         id="path60" /><path
         d="m 1285.94,3333.61 c -43.27,0 -86.66,15.5 -121.19,46.91 -73.59,66.96 -78.95,180.9 -12,254.48 472.25,518.97 1145.6,816.65 1847.27,816.65 701.72,0 1374.98,-297.66 1847.23,-816.65 66.95,-73.59 61.59,-187.53 -12,-254.48 -73.61,-66.96 -187.52,-61.57 -254.49,12 -404.11,444.13 -980.25,698.84 -1580.73,698.84 -600.48,0.01 -1176.67,-254.7 -1580.79,-698.84 -35.55,-39.06 -84.34,-58.91 -133.3,-58.91"
         style="fill:#ffffff;fill-opacity:1;fill-rule:nonzero;stroke:none"
         id="path62" /><path
         d="m 5473.88,3025.22 c 5.21,79.94 4.15,160.25 -12.99,238.25 -16.4,74.6 -48.66,147.21 -99.27,204.98 -55.04,62.85 -129.89,89.45 -213.07,73.02 -49.66,-9.81 -95.95,-31.9 -141.31,-54.38 -53.75,-26.64 -107.07,-54.11 -159.95,-82.43 -23.58,-12.61 -48.55,-26.94 -59.86,-51.16 -11.88,-25.45 -5.68,-55.26 0.73,-82.61 16.22,-69 32.49,-138.28 58.39,-204.27 24.5,-62.41 57.55,-121.78 74.24,-186.72 19.45,-75.71 15.72,-155.16 22.24,-233.06 1.76,-21.12 5.01,-43.79 19.68,-59.09 11.06,-11.54 26.89,-16.95 42.08,-21.98 40.22,-13.3 80.44,-26.61 120.67,-39.91 51.03,-16.89 103.75,-33.99 157.34,-29.8 34.09,2.68 68.73,17.01 94.75,39.19 33.95,28.95 32.09,57.56 40.19,97.07 21.46,104.68 38.49,210.08 49.52,316.4 2.63,25.4 4.95,50.93 6.62,76.5"
         style="fill:#314a72;fill-opacity:1;fill-rule:nonzero;stroke:none"
         id="path64" /><path
         d="m 5601.61,862.328 c -79.28,-19.59 -161.47,-27.148 -242.95,-22.457 -23.67,1.348 -47.72,3.91 -70.48,10.438 -10.81,3.05 -21.3,7.011 -31.36,12.211 -38.03,19.589 -84.22,67.98 -92.77,111.609 -5.61,28.871 35.58,11.961 54.44,12.082 28.38,0.129 56.7,5.668 82.87,16.419 11.72,4.76 23.62,10.68 36.19,9.82 17.94,-1.21 31.74,-15.43 45.4,-27.091 27.83,-23.738 62.13,-39.847 98.19,-46.07 26.79,-4.578 54.87,-3.969 80.07,-14.16 19.03,-7.758 36.25,-24.59 40.58,-43.688 1.4,-6.171 1.46,-12.64 -0.18,-19.113"
         style="fill:#413131;fill-opacity:1;fill-rule:nonzero;stroke:none"
         id="path66" /><path
         d="m 5601.61,862.328 c -79.28,-19.59 -161.47,-27.148 -242.95,-22.457 -23.67,1.348 -47.72,3.91 -70.48,10.438 -1.46,1.652 -2.68,3.543 -3.6,5.55 29.29,-2.257 58.7,-3.289 88.12,-2.988 52.36,0.551 104.72,5.192 156.35,13.859 13,2.141 25.93,4.571 38.81,7.25 8,1.711 25.51,9.282 33.93,7.461 1.4,-6.171 1.46,-12.64 -0.18,-19.113"
         style="fill:#754632;fill-opacity:1;fill-rule:nonzero;stroke:none"
         id="path68" /><path
         d="m 5362.27,797.34 c -131.46,-32.469 -275.11,-20.879 -398.81,34.301 -0.79,7.5 -1.1,15.07 -0.98,22.64 0.49,33.68 9.89,67.18 27.1,96.168 28.38,-8.969 59.07,3.602 85.44,17.461 26.36,13.852 51.69,31.18 80.92,36.67 27.16,-23.31 47.78,-54.611 72.56,-80.432 20.02,-21 43.93,-38.257 70.05,-50.828 11.05,-5.308 22.47,-9.769 33.08,-15.808 10.62,-6.043 20.57,-13.864 26.91,-24.352 3.3,-5.43 5.49,-11.898 6.11,-18.418 0.66,-5.992 -0.07,-12.031 -2.38,-17.402"
         style="fill:#413131;fill-opacity:1;fill-rule:nonzero;stroke:none"
         id="path70" /><path
         d="m 5362.27,797.34 c -131.46,-32.469 -275.11,-20.879 -398.81,34.301 -0.79,7.5 -1.1,15.07 -0.98,22.64 5.86,-2.441 13.01,-7.691 17.15,-9.582 7.81,-3.66 15.75,-7.14 23.74,-10.32 32.17,-12.809 65.66,-22.027 99.72,-28.07 19.34,-3.36 38.87,-5.727 58.46,-7.079 67.92,-4.82 136.33,1.891 203.1,15.512 0.66,-5.992 -0.07,-12.031 -2.38,-17.402"
         style="fill:#754632;fill-opacity:1;fill-rule:nonzero;stroke:none"
         id="path72" /><path
         d="m 5137.69,1099.79 c -21.42,83.84 -42.96,168.55 -45.35,255.02 -2.31,83.18 13.13,165.69 28.44,247.4 25.45,135.23 50.84,270.52 76.23,405.76 0.72,-1.65 1.4,-3.23 2.19,-4.88 38.76,-87.88 82.81,-177.47 121.39,-265.28 -75.62,-137.92 -129.99,-289.69 -159.47,-445.24 -12.08,-63.9 -20.02,-128.34 -23.43,-192.78 z m 367.74,889.87 c -6.9,34.67 -14.12,69.27 -21.08,103.92 -32.67,162.54 -68.29,323.85 -71.45,490.33 -79.81,-29.52 -164.3,-35.69 -247.87,-22.25 -37.41,5.98 -74.4,14.64 -110.58,25.87 -18.06,5.61 -35.94,11.9 -53.58,18.8 -8.49,3.35 -16.85,6.77 -25.21,10.37 -6.59,2.87 -20.01,12.51 -26.97,12.39 -18.31,-0.49 -34.84,-55.41 -39.3,-71.28 -7.81,-28.32 -11.04,-57.73 -12.69,-87.02 -4.45,-79.76 1.22,-160.07 16.72,-238.43 7.57,-38.33 16.96,-75.31 22.95,-113.75 6.46,-41.32 12.51,-82.75 17.33,-124.24 8.23,-72.02 12.63,-144.64 8.42,-217.02 -5.13,-89.16 -23.19,-177.1 -32.4,-265.94 -19.9,-191.75 1.88,-387.77 63.52,-570.469 106.67,19.34 213.9,39.539 320.51,58.938 17.58,175.581 62.61,348.461 132.98,510.311 31.37,72.07 68.09,143.28 80.24,220.9 13.49,85.93 -4.02,173.38 -21.54,258.57"
         style="fill:#ad4d32;fill-opacity:1;fill-rule:nonzero;stroke:none"
         id="path74" /><path
         d="m 5351.58,1789.43 c -0.54,-105.08 -42.71,-205.28 -90.62,-298.83 -33.68,-65.74 -70.73,-130.36 -99.84,-198.03 29.48,155.55 83.85,307.32 159.47,445.24 -38.58,87.81 -82.63,177.4 -121.39,265.28 0.98,8.41 2.02,16.84 3.11,25.2 4.04,31.24 8.55,62.43 13.25,93.56 2.38,15.55 4.76,31.12 7.2,46.62 2.13,13.73 3.18,27.34 5.13,41.01 0.97,6.96 2.07,14.21 6.22,19.95 3.72,5.19 9.46,8.42 15.01,11.54 14.1,7.93 27.71,17.63 41.87,25.56 -18,-78.78 -2.63,-161.1 17.09,-239.4 19.76,-78.35 43.93,-156.9 43.5,-237.7"
         style="fill:#91412a;fill-opacity:1;fill-rule:nonzero;stroke:none"
         id="path76" /><path
         d="m 4824.8,2824.95 c -1.82,13.18 1.47,26.49 4.72,39.4 12.25,48.48 24.49,96.98 36.74,145.46 13.88,54.97 27.83,110.48 29.33,167.16 1.49,56.67 -10.51,115.4 -44.2,160.99 -13.08,17.71 -32.33,34.33 -54.24,32.2 -17.82,-1.72 -32.05,-15.42 -42.99,-29.61 -54.19,-70.27 -62.52,-164.48 -68.77,-252.99 -4.93,-69.78 -9.86,-139.55 -14.79,-209.33 -2.74,-38.56 -5.42,-77.68 2.22,-115.58 7.66,-37.89 27.09,-75.07 59.81,-95.67 13.59,-8.56 46.91,2.65 59.97,8.19 20.29,8.6 37.86,22.9 51.1,40.46 30.07,39.88 -13.35,69.12 -18.9,109.32"
         style="fill:#314a72;fill-opacity:1;fill-rule:nonzero;stroke:none"
         id="path78" /><path
         d="m 4848.61,2739.19 0.41,-1.01 c 17.01,-43.64 32.63,-87.03 59.11,-126.37 12.48,-18.53 26.53,-35.98 41.98,-52.09 14.24,-14.85 33.32,-37.13 52.51,-45.39 18.84,-8.12 43.55,-9.09 63.68,-12.92 22.31,-4.26 44.88,-9.68 64.48,-21.62 2.14,-33.77 -9.32,-68.76 -28.28,-96.81 -18.96,-28.05 -47.4,-49.56 -79.55,-60.17 -24.92,12.04 -42.77,33.46 -59.89,55.21 -5.69,7.23 -11.38,14.46 -17.06,21.7 -39.24,49.86 -78.48,99.71 -117.71,149.58 -19.62,24.93 -39.24,49.86 -58.86,74.79 -17.42,22.15 -36.3,45.78 -45.68,72.79 -5.94,17.11 -6.99,36.73 1.23,52.88 9.09,17.88 28.05,28.82 47.32,34.36 6.65,1.91 13.52,3.3 20.41,2.91 12.92,-0.73 24.84,-7.73 33.97,-16.88 8.35,-8.36 17.35,-19.88 21.93,-30.96"
         style="fill:#ffb381;fill-opacity:1;fill-rule:nonzero;stroke:none"
         id="path80" /><path
         d="m 5335.7,3486.52 c 24.26,-27.29 62.41,-36.5 94.09,-54.64 45.3,-25.92 77.44,-70.69 97.53,-118.85 20.1,-48.16 29.32,-100.04 38.07,-151.49 8.76,-51.44 17.32,-103.37 36.22,-152.01 6.13,-15.78 13.36,-31.24 17.15,-47.73 3.79,-16.5 3.86,-34.54 -3.94,-49.57 -5.41,22.71 -27.71,37.66 -51.05,38.5 -23.33,0.83 -45.68,-9.37 -65.47,-21.77 -19.79,-12.39 -38.15,-27.22 -59.19,-37.35 3.4,64.73 -13.68,130.5 -28.48,193.61 -25.94,110.6 -51.87,221.19 -77.81,331.78 -5.1,21.74 -3.12,48.01 2.88,69.52"
         style="fill:#314a72;fill-opacity:1;fill-rule:nonzero;stroke:none"
         id="path82" /><path
         d="m 5450.49,2894.56 c 12.68,56.9 18.2,115.4 16.39,173.67 14.82,-31.42 29.08,-62.69 43.9,-94.12 4.65,-9.85 9.42,-20.62 7.12,-31.29 -1.91,-8.87 -8.43,-15.98 -15.12,-22.12 -14.66,-13.43 -34.15,-17.99 -52.29,-26.14"
         style="fill:#263a59;fill-opacity:1;fill-rule:nonzero;stroke:none"
         id="path84" /><path
         d="m 5429.24,2764.97 -1.44,-1.85 c -5.74,-6.88 -13.61,-11.62 -20.05,-17.86 -7.95,-7.7 -13.72,-18.24 -13.52,-29.31 0.15,-8.63 4.54,-17.47 11.86,-22.21 3.29,-2.13 6.91,-3.15 10.23,-5.2 4.42,-2.72 9.42,-3.83 14.47,-4.79 14.34,-2.72 28.84,-5.38 43.42,-4.81 14.58,0.56 29.45,4.62 40.64,14 16.97,14.22 22.5,37.41 31.2,57.76 10.69,24.99 27.09,47.01 41.9,69.8 13.7,21.08 26.38,43.76 29.44,68.72 3.07,24.96 -5.47,52.76 -26.59,66.4 -18.92,12.22 -43.77,10.88 -65.21,4.02 -23.42,-7.49 -45.29,-21.48 -59.13,-41.8 -16.34,-23.97 -20.16,-54.05 -23.53,-82.88 -2.17,0 -3.84,-27.67 -4.04,-29.77 -1.33,-13.78 -1.26,-28.66 -9.65,-40.22"
         style="fill:#ffb381;fill-opacity:1;fill-rule:nonzero;stroke:none"
         id="path86" /><path
         d="m 5096.58,3594.14 c -5.43,-48.4 -30.99,-94.23 -69.32,-124.27 23.27,-48.84 47.67,-99.19 88.78,-134.37 14.99,-12.82 32.15,-22.9 51.72,-26.45 9.11,-1.66 13.64,-2.32 21.29,3.16 8.28,5.92 15.96,12.98 23.23,20.08 28.19,27.55 49.97,61.7 62.73,99.01 -23.72,56.32 -57.4,109.85 -99.68,153.99 -6.45,6.74 -13.34,13.46 -21.99,16.99 -18.23,7.44 -38.94,0.24 -56.76,-8.14"
         style="fill:#f1a482;fill-opacity:1;fill-rule:nonzero;stroke:none"
         id="path88" /><path
         d="m 5393.31,3692.08 c -1.16,-13.31 -2.87,-26.55 -4.71,-39.61 -7.98,-56.51 -18.91,-114.18 -41.12,-166.36 -9.89,-23.24 -22.03,-45.4 -37.11,-65.84 -8.06,-10.86 -17.64,-21.73 -30.63,-25.69 -18.31,-5.56 -37.42,4.09 -54.08,13.36 -23.97,13.36 -48.14,26.85 -68.82,44.92 -20.7,18.06 -37.85,41.25 -44.01,68.04 -1.4,6.04 -2.2,12.26 -3.11,18.43 -1.34,8.79 -2.86,17.52 -6.53,25.51 -7.14,15.56 -21.54,26.73 -29.41,41.92 -9.89,19.16 -8.18,42.05 -6.23,63.59 0.37,3.72 0.61,7.51 0.86,11.35 3.05,49.74 -1.22,106.19 25.99,148.54 26.98,41.99 73.3,72.07 123.33,76.28 69.09,5.8 139.51,-38.14 164.59,-102.83 13.68,-35.27 14.47,-73.59 10.99,-111.61"
         style="fill:#5d443f;fill-opacity:1;fill-rule:nonzero;stroke:none"
         id="path90" /><path
         d="m 5109.79,3539.45 c -1.41,8.67 -2.93,17.4 -6.6,25.39 -7.14,15.56 -21.54,26.73 -29.41,41.92 -9.89,19.16 -8.18,42.05 -6.23,63.59 0.37,3.72 0.61,7.51 0.86,11.35 11.65,4.4 24.29,3.6 35.33,-5.67 12.38,-10.44 17.64,-26.98 20.02,-42.96 4.57,-31.68 -0.31,-64.69 -13.97,-93.62"
         style="fill:#ffb381;fill-opacity:1;fill-rule:nonzero;stroke:none"
         id="path92" /><path
         d="m 5393.31,3692.08 c -1.16,-13.31 -2.87,-26.55 -4.71,-39.61 -7.98,-56.51 -18.91,-114.18 -41.12,-166.36 -10.74,-7.44 -21.73,-14.64 -29.24,-25.26 -9.82,-13.79 -13.67,-33.14 -28.55,-41.19 -16,-8.61 -35.65,0.73 -49.92,11.96 -28.08,22.03 -49.37,51.5 -67.87,82.02 -14.7,24.28 -28.25,50.71 -28.74,79.09 -0.54,28.44 15.75,58.95 43.21,66.15 -4.03,19.28 -8.06,39.48 -2.69,58.4 5.37,18.98 23.44,35.88 42.9,32.77 17.09,-2.68 28.26,-18.61 39.48,-31.79 16,-18.92 36.74,-34.97 60.97,-40.34 13.06,-2.87 27.1,-2.13 39.73,2.44 8.85,3.18 18.86,15.13 26.55,11.72"
         style="fill:#ffb381;fill-opacity:1;fill-rule:nonzero;stroke:none"
         id="path94" /><path
         d="m 5465.22,2868.8 -169.29,-216.6 116.76,-13.96 36.5,44.4 c -8.81,-0.77 -20.2,4.8 -27.43,9.11 -8.67,5.16 -16.13,13.21 -18.26,23.07 -2.9,13.46 4.62,27.18 14.44,36.84 25.06,24.62 67.16,29.14 97.19,11.18 l 67.68,82.31 v 13.6 l -117.59,10.05"
         style="fill:#ebeae7;fill-opacity:1;fill-rule:nonzero;stroke:none"
         id="path96" /><path
         d="m 703.879,873.32 c 3.051,-6.351 49.769,0.981 56.355,1.942 17.321,2.808 32.813,8.058 49.039,14.519 29.637,11.828 62.579,-5.48 78.309,29.641 15.981,35.859 28.18,73.437 36.227,111.988 7.691,36.22 6.226,63.67 1.226,100.39 -12.691,-1.34 -25.859,-2.93 -38.301,-6.22 -14.882,-3.67 -28.668,-9.76 -39.644,-20.25 -16.469,-15.74 -23.184,-38.68 -33.301,-58.92 -0.73,-1.34 -1.348,-2.69 -2.078,-4.03 -6.582,-12.32 -14.637,-23.9 -23.906,-34.27 -14.641,-16.469 -32.203,-30.13 -51.719,-40.141 -15.133,-7.68 -32.324,-14.27 -40.867,-28.91 -11.469,-20 -1.469,-45.008 8.66,-65.739"
         style="fill:#131313;fill-opacity:1;fill-rule:nonzero;stroke:none"
         id="path98" /><path
         d="m 787.805,1008.11 c 3.535,1.58 6.953,3.65 9.386,5 18.301,9.51 34.278,23.17 47.329,38.91 18.179,21.84 31.355,47.33 42.214,73.56 -14.882,-3.67 -28.668,-9.76 -39.644,-20.25 -16.469,-15.74 -23.184,-38.68 -33.301,-58.92 -0.73,-1.34 -1.348,-2.69 -2.078,-4.03 -6.582,-12.32 -14.637,-23.9 -23.906,-34.27"
         style="fill:#e8935f;fill-opacity:1;fill-rule:nonzero;stroke:none"
         id="path100" /><path
         d="m 1020.38,1458.9 c -2.94,82 -10.42,163.81 -27.79,244.09 -24.41,112.79 -60.242,228.04 -42.145,344.99 -42.664,-84.38 -83.199,-173.8 -106.527,-265.42 -30.371,-119.38 -6.793,-229.98 19.473,-346.48 12.238,-54.28 20.015,-106.63 41.027,-158.85 19.641,-48.84 45.332,-95.26 76.477,-137.7 2.765,-3.78 5.746,-7.66 9.98,-9.66 8.711,-4.11 19.495,1.71 24.215,10.1 4.73,8.4 4.97,18.49 5.09,28.12 0.34,26.02 0.67,52.04 1,78.05 0.43,33.53 0.85,67.04 0.89,100.57 0.04,37.34 -0.36,74.78 -1.69,112.19"
         style="fill:#092657;fill-opacity:1;fill-rule:nonzero;stroke:none"
         id="path102" /><path
         d="m 786.645,1413.42 c 42.527,-94.21 88.023,-187.07 136.414,-278.41 36.144,31.12 79.121,54.27 124.991,67.32 -31.1,103.68 -62.21,207.35 -93.316,311.03 -28.859,96.18 -69.187,192.3 -50.187,295.01 12.687,68.58 42.062,132.74 71.152,196.05 29.871,64.95 59.741,129.97 89.621,194.93 32.94,71.58 66.3,144.79 74.71,223.15 8.49,78.43 -12.12,164.26 -72,215.6 -74.717,-43.78 -159.846,-71.8 -246.897,-83.49 -48.406,-6.56 -97.387,-8.06 -145.512,-4.36 -31.516,-173.09 -19.035,-353.33 34.363,-521.01 5.059,-15.9 5.348,-32.08 2.852,-48.27 -6.203,-41.28 -30.16,-83.34 -39.141,-124.77 -8.054,-37.14 -16.113,-75.35 -10.05,-112.93 17.14,-106.29 68.402,-207.24 111.789,-304.82 3.711,-8.35 7.453,-16.7 11.211,-25.03"
         style="fill:#0c3983;fill-opacity:1;fill-rule:nonzero;stroke:none"
         id="path104" /><path
         d="m 709.984,2029.24 c 5.059,-15.9 5.348,-32.08 2.852,-48.27 2,8.48 3.781,16.47 5.633,23.75 22.668,89.54 43.418,179.59 62.312,269.99 12.395,59.42 36.106,113.59 6.059,173.03 -15.11,29.9 -64.559,85.53 -103.68,80.5 -28.301,-3.63 -24.023,-123.2 -24.472,-150.66 -1.918,-117.87 15.527,-236.02 51.296,-348.34"
         style="fill:#092657;fill-opacity:1;fill-rule:nonzero;stroke:none"
         id="path106" /><path
         d="m 912.328,1111.22 c 0.246,8.74 1.039,17.44 3.031,26.03 1.969,8.48 2.079,15.74 8.989,21.68 8.039,6.9 18.382,10.4 27.504,15.56 9.156,5.19 18.613,9.81 28.242,14.05 14.246,6.27 28.846,11.69 43.506,16.91 9.95,3.53 24.98,12.01 34.54,3.87 5.4,-4.59 7.82,-11.74 9.63,-18.6 17.47,-66.1 -4.17,-131.17 -36.31,-188.91 -22.94,-41.22 -47.085,-81.919 -75.429,-119.63 -8.883,-11.828 -19.144,-23.621 -34.758,-23.129 -13.484,0.418 -34.531,5.91 -41.777,18.301 -8.004,13.699 -20.902,29.847 -16.601,46.328 4.449,17.062 13.878,30.992 22.515,46.121 16.84,29.519 26.285,63.209 27.235,97.169 0.414,14.67 -0.731,29.52 -0.317,44.25"
         style="fill:#ffb381;fill-opacity:1;fill-rule:nonzero;stroke:none"
         id="path108" /><path
         d="m 1112.63,1101.72 c -25.55,-90.44 -32.91,-185.978 -21.51,-279.259 0.78,-6.422 1.33,-13.871 -3.25,-18.43 -5.25,-5.23 -13.95,-3.601 -21.08,-1.621 -4.05,38.153 -2.35,75.551 -4.05,113.86 -1.7,38.32 -8.14,77.609 -28.37,110.19 5.93,12.82 11.01,27.81 16.94,40.62 5.64,12.21 11.6,24.82 21.86,33.52 10.27,8.7 28.37,8.75 39.46,1.12"
         style="fill:#454245;fill-opacity:1;fill-rule:nonzero;stroke:none"
         id="path110" /><path
         d="m 1055.99,1212.47 c 10.23,-18.62 4.89,-41.63 -1.26,-61.97 -13.23,-43.64 -29.15,-86.48 -47.65,-128.17 -11.861,-26.709 -25.123,-53.439 -45.537,-74.361 -20.41,-20.91 -49.262,-35.418 -78.313,-32.199 -10.398,1.152 -22.328,6.562 -23.562,16.949 -28.715,-16.278 -56.664,-33.227 -82.457,-53.828 -3.402,-20.821 0.148,-43.02 8.16,-62.539 27.07,-7.711 57.461,-15.192 85.359,-18.942 27.903,-3.75 56.743,-3.398 83.657,4.86 10.14,3.101 20.086,7.402 28.25,14.171 8.164,6.77 14.437,16.25 15.781,26.758 4.422,34.692 7.282,69.5 14.772,103.653 8.06,36.699 27.92,70.718 55.93,95.778 9.58,8.56 16.46,19.4 24.67,29.27 8.9,10.72 17.95,22.03 21.21,35.57 4.56,18.94 -3.05,38.67 -12.7,55.6 -11.22,19.7 -29.78,33.88 -46.31,49.4"
         style="fill:#131313;fill-opacity:1;fill-rule:nonzero;stroke:none"
         id="path112" /><path
         d="m 542.094,3049.62 c 10.019,-23.92 26.152,-44.77 37.59,-68.05 15.343,-31.25 21.855,-66.04 34.636,-98.42 12.785,-32.38 34.254,-64.19 67.059,-75.83 -2.84,83.88 -5.672,167.77 -8.508,251.65 -0.371,11.03 -0.93,22.67 -6.898,31.95 -6.969,10.82 -19.758,16.12 -31.817,20.61 -17.496,6.52 -35.133,12.65 -52.89,18.39 -6.399,2.07 -12.996,4.11 -19.7,3.65 -37.543,-2.56 -28.679,-61.94 -19.472,-83.95"
         style="fill:#e8935f;fill-opacity:1;fill-rule:nonzero;stroke:none"
         id="path114" /><path
         d="m 670.383,2543.39 c 99.406,-7.07 204.558,9.61 296.918,47.05 3.758,53.54 7.523,107.1 11.289,160.64 1.18,16.79 2.445,33.95 9.148,49.39 4.727,10.88 11.973,20.46 17.652,30.89 12.84,23.6 17.24,50.74 21.44,77.29 7.38,46.62 14.77,93.25 22.15,139.88 3.92,24.71 8.95,51.54 27.79,68.02 13.44,11.76 32.39,16.61 43.97,30.2 8.56,10.03 11.87,23.48 13.55,36.56 7.86,61.34 -16.59,125.91 -63.12,166.65 -46.54,40.73 -113.772,56.43 -173.533,40.52 -36.313,-9.66 -71.844,-20.16 -106.606,-34.15 -31.511,-12.69 -63.652,-23.26 -88.304,-47.92 -18.024,-18.02 -29.95,-41.44 -37.336,-65.83 -7.387,-24.38 -10.465,-49.86 -12.696,-75.24 -18.144,-206.16 -17.574,-420.02 17.688,-623.95"
         style="fill:#c84c73;fill-opacity:1;fill-rule:nonzero;stroke:none"
         id="path116" /><path
         d="m 761.469,3308.49 c -15.395,-20.33 -35.551,-37.44 -46.43,-60.51 -10.879,-23.06 -8.246,-55.83 14.32,-67.69 21.618,-11.37 47.473,2.02 68.082,15.12 33.239,21.12 67.563,43.55 87.852,77.3 17.984,29.92 23.02,65.61 27.676,100.21 6.898,51.2 13.793,102.39 20.687,153.58 1.617,12 1.621,27.23 -9.238,32.56 -12.016,5.9 -24.668,-6 -33.555,-16.02 -17,-19.15 -36.996,-35.62 -58.988,-48.73 -22.309,-13.3 -46.012,-12.53 -41.902,-40.56 7.656,-52.25 4.777,-101.3 -28.504,-145.26"
         style="fill:#e8935f;fill-opacity:1;fill-rule:nonzero;stroke:none"
         id="path118" /><path
         d="m 710.027,3532.27 c 6.227,-27.65 17.86,-57.16 43.121,-70 28.665,-14.57 63.45,-2.18 91.52,13.51 36.117,20.18 69.875,46.5 91.762,81.61 21.886,35.11 30.55,80 16.015,118.74 -14.539,38.74 -55.086,68.22 -96.179,63.38 -14.879,-1.76 -29.071,-7.62 -43.985,-9.06 -14.914,-1.44 -32.066,3.01 -39.136,16.22 -8.711,16.25 -10.95,61.91 -33.418,27.75 -14.329,-21.77 -22.028,-52.11 -28.063,-77.15 -12.988,-53.93 -13.82,-110.85 -1.637,-165"
         style="fill:#ffb381;fill-opacity:1;fill-rule:nonzero;stroke:none"
         id="path120" /><path
         d="m 1518.13,2643.76 c -27.09,84.68 -70.47,163.45 -120.75,236.78 -50.29,73.32 -108.36,143.73 -165.52,211.83 -1.33,-17.96 -21.53,-27.39 -38.77,-32.58 -53.98,-16.27 -109.46,-27.59 -165.49,-33.77 -46.112,-166.83 -63.827,-343.12 -54.139,-515.93 89.789,-24.79 186.839,-29.59 277.749,-9.32 90.9,20.27 176.68,63.16 247.43,123.73 7.94,1.02 16.72,11.75 19.49,19.26"
         style="fill:#bd233f;fill-opacity:1;fill-rule:nonzero;stroke:none"
         id="path122" /><path
         d="m 1234.1,3087.51 c -40.42,77.87 -87.89,152.08 -141.63,221.44 -1.22,-17.39 9.46,-34.31 19.76,-48.37 47.03,-64.22 86.09,-134.28 115.99,-208.05 2.77,11.92 5.09,22.77 5.88,34.98"
         style="fill:#bd233f;fill-opacity:1;fill-rule:nonzero;stroke:none"
         id="path124" /><path
         d="m 770.855,3686.88 c 26.11,-2.09 52.536,1.05 78.485,-2.51 25.953,-3.56 52.867,-15.67 64.582,-39.1 11.25,-22.49 5.957,-49.38 -0.055,-73.81 -7.426,-30.15 -15.582,-60.12 -23.738,-90.08 -6.356,-23.33 -12.707,-46.67 -19.055,-70 -10.058,-36.94 -22.23,-69.77 -41.035,-103.05 -18.707,-33.09 -22.465,-70.88 -25.976,-108.25 -3.454,-36.73 -6.891,-73.89 -1.274,-110.35 7.93,-51.44 32.793,-77.23 80.574,-93.5 16.766,-5.72 37.981,-15.85 55.453,-16.47 11.93,-0.43 24.957,5.43 29.071,16.63 3.383,9.23 0.125,19.41 -2.961,28.74 -13.571,41.04 -23.91,83.15 -30.922,125.81 -6.859,41.77 -10.719,78.09 3.887,118.54 5.953,16.49 12.129,33.37 23.488,46.72 14.406,16.94 43.021,26.9 53.551,46.36 5.89,10.88 4.76,30.59 6.43,42.83 1.95,14.4 3.9,28.79 5.86,43.18 1.57,11.63 3.16,23.32 2.64,35.04 -0.81,18.09 -6.37,37.46 2.04,53.5 5.27,10.06 15.3,16.95 20.67,26.95 7.65,14.22 4.52,29.94 -0.45,44.46 -2.52,7.33 -6.78,14.89 -8.28,22.48 -1.4,7.11 0.35,15.33 0.55,22.66 0.9,34.1 -3.14,68.33 -11.98,101.28 -6.57,24.46 -16.05,48.71 -32.465,68 -24.535,28.85 -62.933,43.85 -100.789,44.69 -20.156,0.46 -40.265,-2.83 -59.511,-8.71 -16.84,-5.15 -36.696,-11.43 -49.547,-23.64 -13.188,-12.53 -27.344,-22.87 -38.993,-37.15 -11.585,-14.2 -21.332,-29.86 -29.324,-46.34 -6.449,-13.29 -19.847,-32.28 -8.234,-45.17 12.652,-14.06 39.637,-18.31 57.308,-19.74"
         style="fill:#5d4043;fill-opacity:1;fill-rule:nonzero;stroke:none"
         id="path126" /><path
         d="m 571.012,3303.32 -182.707,44.75 107.703,-338.47 129.008,-40.26 -54.004,333.98"
         style="fill:#ebeae7;fill-opacity:1;fill-rule:nonzero;stroke:none"
         id="path128" /><path
         d="m 979.281,2785.42 c -49.957,1.37 -102.093,44.59 -133.578,79.75 -35.531,39.66 -63.308,85.59 -96.273,127.43 -32.965,41.83 -72.852,80.67 -122.981,98.67 -29.344,10.53 -61.094,13.51 -89.984,25.24 -32.301,13.11 -60.012,37.24 -77.445,67.42 -5.348,9.25 -9.86,19.6 -9.032,30.25 0.828,10.65 8.551,21.4 19.192,22.4 98.511,9.28 198.015,-31.29 275.062,-93.37 31.953,-25.74 60.016,-55.95 90.879,-82.99 30.871,-27.04 65.445,-51.33 105.035,-62.13 22.36,67.75 -12.359,149.45 38.629,207.32 12.176,13.82 26.705,25.35 41.405,36.46 9.28,7.03 18.8,14 29.63,18.3 10.82,4.3 23.24,5.71 34.09,1.45 41.51,-16.3 44.97,-90.83 44.21,-127.41 -0.69,-32.84 -6.14,-65.37 -11.62,-97.75 -9.68,-57.32 -19.64,-115.14 -41.45,-169.02 -8.56,-21.12 -19.19,-41.94 -35.56,-57.79 -18.55,-17.97 -39.18,-24.81 -60.209,-24.23"
         style="fill:#ffb381;fill-opacity:1;fill-rule:nonzero;stroke:none"
         id="path130" /><path
         d="m 2262.12,1745.39 c 23.64,-39.26 51.05,-76.44 70.74,-117.98 9.57,-20.2 17.23,-41.44 20.99,-63.53 2.67,-15.76 2.91,-18.64 17.2,-8.75 11.11,7.67 22.23,15.33 33.33,22.99 8.83,6.09 18.33,13.15 20.68,23.61 2.3,10.27 -3.06,20.58 -8.56,29.56 -22.7,37.07 -50.83,70.39 -79.31,103.08 -29.33,33.68 -50.94,75.83 -74.87,113.52 -8.62,13.57 -15.28,28.4 -23.48,42.23 -10.76,18.15 -21.96,34.79 -28.66,55.09 -1.27,3.83 -3.08,8.35 -7.05,9.15 -3.19,0.63 -6.24,-1.57 -8.44,-3.96 -8.59,-9.34 -10.97,-23.17 -8.81,-35.67 1.92,-11.05 7.79,-19.31 11.88,-29.38 2.81,-6.9 4.1,-14.36 6.8,-21.47 6.34,-16.74 13.67,-33.11 21.36,-49.26 11.16,-23.44 22.8,-46.96 36.2,-69.23"
         style="fill:#df8d0d;fill-opacity:1;fill-rule:nonzero;stroke:none"
         id="path132" /><path
         d="m 2077.66,1560.19 c 41.03,-13.9 75.61,-41.73 113.42,-62.88 13.79,-7.71 28.53,-14.69 44.31,-15.7 15.78,-1 32.86,5.12 41.08,18.62 7.71,12.67 6.2,29.19 0.36,42.83 -5.83,13.64 -15.45,25.23 -24,37.36 -19.09,27.06 -33.15,57.29 -47.1,87.32 -14.33,30.87 -26.31,65.3 -43.84,94.43 -21.96,36.5 -22.02,-16.55 -23.44,-33.36 -5.09,-60.21 -26.06,-119.12 -60.79,-168.62"
         style="fill:#ffb381;fill-opacity:1;fill-rule:nonzero;stroke:none"
         id="path134" /><path
         d="m 2339.54,1515.05 c -23.48,-28.62 -70.94,-25.27 -100.35,-2.79 -29.4,22.48 -45.1,58.11 -59.3,92.31 -30.08,72.47 -59.17,146.67 -71.96,224.47 -5.96,36.31 -17.34,198.49 37.18,105.99 38.06,-64.59 57.5,-147.77 89.36,-216.42 9.36,-20.15 111.11,-196.19 105.07,-203.56"
         style="fill:#df8d0d;fill-opacity:1;fill-rule:nonzero;stroke:none"
         id="path136" /><path
         d="m 2165.95,1952.14 c 11.54,-8.04 21.52,-18.91 29.15,-30.67 18.58,-28.65 25.81,-60.39 36.9,-91.8 11.08,-31.42 29.37,-59.76 48.16,-87.02 23.14,-33.57 47.84,-66.63 63.17,-104.41 11.45,-28.24 21.67,-69.21 10.33,-99.14 -14.5,-38.25 -40.75,26.84 -48.85,41.94 -33.6,62.58 -62.39,127.57 -93.25,191.53 -17.25,35.74 -36.63,70.46 -58.01,103.89 -8.74,13.69 -17.87,27.24 -24.17,42.2 -3.55,8.39 -14.52,38.28 -6.42,46.4 7.91,7.94 36.24,-8.23 42.99,-12.92"
         style="fill:#655b5a;fill-opacity:1;fill-rule:nonzero;stroke:none"
         id="path138" /><path
         d="m 4713.1,1356.97 -233.72,-36.73 -207,-544.209 270.44,73.449 170.28,507.49"
         style="fill:#d7d6d4;fill-opacity:1;fill-rule:nonzero;stroke:none"
         id="path140" /><path
         d="m 4479.38,1320.24 -28.37,13.36 241.23,34.22 20.86,-10.85 -233.72,-36.73"
         style="fill:#e8e7e5;fill-opacity:1;fill-rule:nonzero;stroke:none"
         id="path142" /><path
         d="M 4451.01,1333.6 4238.6,776.031 h 33.78 l 207,544.209 -28.37,13.36"
         style="fill:#f2f1ef;fill-opacity:1;fill-rule:nonzero;stroke:none"
         id="path144" /><path
         d="m 4542.82,849.48 v -46.75 l -270.44,-87.628 v 60.929 l 270.44,73.449"
         style="fill:#565654;fill-opacity:1;fill-rule:nonzero;stroke:none"
         id="path146" /><path
         d="m 4272.38,715.102 -540.78,16.769 c -13.54,0.418 -24.3,11.52 -24.3,25.059 0,13.961 11.4,25.23 25.36,25.082 l 539.72,-5.981 v -60.929"
         style="fill:#565654;fill-opacity:1;fill-rule:nonzero;stroke:none"
         id="path148" /><path
         d="m 4280.18,849.48 -242.62,11.141 -310.75,-79.301 524.43,-18.64 28.94,86.8"
         style="fill:#afb3b9;fill-opacity:1;fill-rule:nonzero;stroke:none"
         id="path150" /><path
         d="m 3748.26,1332.12 c 5.95,-20.2 16.12,-39.52 17.17,-60.54 1.33,-26.43 -11.96,-51.51 -13.86,-77.91 -1.79,-25.17 6.83,-49.79 10.25,-74.8 5.24,-38.5 -1.92,-77.48 -9.06,-115.68 -3.44,-18.448 -6.89,-36.909 -10.34,-55.37 -2.09,-11.16 -4.79,-23.371 -13.86,-30.218 -9.49,-7.18 -22.66,-6.02 -34.47,-4.512 -21.39,2.711 -43.78,5.812 -61.32,18.371 -20.41,14.621 -30.54,39.328 -39.68,62.73 -20.55,52.569 -41.26,105.829 -48.11,161.849 -2.88,23.53 -3.5,48.17 -14.55,69.13 -6.89,13.07 -17.9,25.1 -18.05,39.87 -0.11,12.54 7.73,23.57 15.23,33.61 28.59,38.3 57.19,76.59 85.8,114.89 9.8,13.14 20.28,26.82 35.29,33.42 13.83,6.09 29.77,5.28 44.49,1.9 22.49,-5.16 50.92,-19.98 58.86,-43.51 5.16,-15.3 -1.43,-16.98 -5.74,-31.5 -3.99,-13.41 -1.93,-28.56 1.95,-41.73"
         style="fill:#5d4043;fill-opacity:1;fill-rule:nonzero;stroke:none"
         id="path152" /><path
         d="m 3577.96,1271.79 c -5.25,-13.12 -9.62,-26.85 -18.03,-38.21 -8.41,-11.34 -22.06,-20.1 -36.05,-18.13 -23.32,3.3 -32.75,31.32 -37.3,54.42 -6.97,35.44 -13.95,70.88 -20.93,106.32 -8.49,43.12 -15.36,93.04 13.18,126.46 19.06,22.34 49.42,31.11 78.36,36.14 22.79,3.96 47.04,6.15 68.4,-2.76 23,-9.6 39.4,-31.07 48.48,-54.28 7.01,-17.91 16.94,-48.19 14.06,-67.61 -2.64,-17.94 -23.36,-26.06 -36.53,-37.8 -32.1,-28.61 -57.64,-64.61 -73.64,-104.55"
         style="fill:#e8935f;fill-opacity:1;fill-rule:nonzero;stroke:none"
         id="path154" /><path
         d="m 4130.78,933.41 c 42.21,-12.512 78.23,-44.449 95.71,-84.851 3.34,-7.7 5.96,-16.899 1.81,-24.2 -4.82,-8.48 -16.11,-10.168 -25.85,-10.73 -34.77,-1.988 -69.7,-1.469 -104.4,1.543 -20.64,1.789 -42.25,4.867 -58.8,17.328 -14.72,11.07 -22.87,27.789 -28.23,44.992 -6.21,19.86 -12.43,32.84 5.78,44.379 31.98,20.27 78.64,22.02 113.98,11.539"
         style="fill:#e8935f;fill-opacity:1;fill-rule:nonzero;stroke:none"
         id="path156" /><path
         d="m 3633.29,988.461 c 6.55,-13.852 13.98,-27.84 25.89,-37.469 18.44,-14.91 43.89,-16.64 67.56,-17.73 70.18,-3.242 140.37,-6.473 210.55,-9.711 12.62,-0.582 27.2,-2.219 34.08,-12.832 7.54,-11.617 0.65,-28.149 -10.89,-35.809 -11.54,-7.648 -26.07,-8.789 -39.88,-9.699 -61.72,-4.051 -123.43,-8.102 -185.15,-12.148 -102.53,-6.731 -205.89,-13.434 -307.7,0.476 -16.22,2.211 -36.41,9.191 -37.08,25.563 -0.27,6.75 3.19,13.007 6.55,18.859 38.95,67.969 77.9,135.939 116.85,203.909 8.64,15.07 39.07,89.19 56.32,90.46 13.98,1.03 19.01,-73.72 22.5,-88.47 9.4,-39.74 22.93,-78.5 40.4,-115.399"
         style="fill:#a84060;fill-opacity:1;fill-rule:nonzero;stroke:none"
         id="path158" /><path
         d="m 4039.57,908.75 c -15.58,11.141 -32.8,21.332 -51.87,23.02 -25.84,2.281 -50.04,-11.149 -74.11,-20.848 -46.12,-18.602 -91.35,-18.652 -140.17,-18.871 -4.61,-0.031 -9.44,-0.102 -13.47,-2.321 -5.95,-3.269 -8.63,-10.3 -10.47,-16.832 -5.44,-19.367 -7.5,-39.687 -6.06,-59.769 0.72,-10.008 2.81,-20.91 10.52,-27.367 6.7,-5.61 16.12,-6.5 24.86,-6.383 14.47,0.223 27.52,3.684 41.51,6.601 11.93,2.5 23.3,3.192 35.28,6.79 28.7,8.652 57.88,19.601 88.37,17.519 27.73,-1.887 53.57,-14.527 80.91,-19.598 20.53,-3.812 108.61,-3.75 102.44,28.95 -2.76,14.648 -27.81,35.699 -37.87,46.089 -15.28,15.79 -31.99,30.231 -49.87,43.02"
         style="fill:#ffb381;fill-opacity:1;fill-rule:nonzero;stroke:none"
         id="path160" /><path
         d="m 1682.58,916.91 c 2.68,-41.129 36.6,-74.781 74.79,-90.012 38.33,-15.359 80.67,-15.757 121.8,-16.429 217.95,-2.938 435.77,-14.008 652.92,-32.989 48.22,-4.269 98.57,-8.531 143.31,10.02 45.41,18.961 78.12,59.031 108.97,97.5 28.85,36.051 58.1,72.91 75.32,115.78 15.5,38.6 20.31,83.74 4.28,122.87 -13.49,33.25 -53.55,47.14 -84.8,61.56 -80.27,37 -168.68,56.64 -257.22,56.5 -119.13,-0.14 -237.99,-36.07 -337.22,-102.04 42.07,114.72 94.02,225.44 155.19,330.95 -36.59,-2.94 -73.59,2.4 -108.18,14.96 -57.96,20.82 -108.84,61.29 -139.69,114.58 -124.6,-195.92 -249.34,-391.84 -373.94,-587.76 -18.56,-29.111 -37.8,-60.9 -35.53,-95.49"
         style="fill:#0c3983;fill-opacity:1;fill-rule:nonzero;stroke:none"
         id="path162" /><path
         d="m 3530.23,1218.12 c -43.66,26.26 -60.09,80.6 -71.06,130.35 -10.97,49.75 -22.39,104.05 -61.54,136.65 -40,33.31 -100.31,33.64 -147.49,11.65 -47.18,-22 -83.09,-62.68 -112.22,-105.82 -29.12,-43.15 -52.94,-89.83 -84.17,-131.48 -31.22,-41.65 -71.6,-78.98 -121.51,-93.76 -47.1,-13.94 -97.82,-6.59 -146.33,-14.29 -81.88,-13 -154.82,-72.16 -184.44,-149.59 -29.61,-77.439 -14.76,-170.182 37.54,-234.502 261.57,-23.496 529.39,16.754 777.57,102.621 28.44,9.84 57.54,20.922 79.14,41.891 29.21,28.34 40.18,70.058 49.92,109.59 12.18,49.38 24.37,98.77 36.55,148.16 3.9,15.84 7.84,32.05 6.23,48.29 -1.62,16.23 -9.88,32.76 -24.58,39.85 -5.27,-18.22 -17.71,-29.25 -33.61,-39.61"
         style="fill:#c84c73;fill-opacity:1;fill-rule:nonzero;stroke:none"
         id="path164" /><path
         d="m 1955.03,1012.8 c 33.52,11.49 66.24,25.38 97.76,41.54 28.31,14.56 55.69,30.98 82,48.87 15.89,10.95 34.99,22.57 49.94,36.46 42.07,114.72 94.02,225.44 155.19,330.95 -36.59,-2.94 -73.59,2.4 -108.18,14.96 -21.1,-20.57 -34.86,-47.95 -47.14,-74.94 -31.92,-70.38 -58.76,-143.02 -93.35,-212.2 -34.46,-69.18 -77.46,-135.42 -136.22,-185.64"
         style="fill:#092657;fill-opacity:1;fill-rule:nonzero;stroke:none"
         id="path166" /><path
         d="m 3773.24,888.059 c -29.69,19.332 -68.52,11.41 -103.46,5.55 -59.35,-9.949 -120.04,-11.8 -179.89,-5.5 -19.85,2.09 -41.31,5.922 -54.72,20.711 -11.02,12.129 -14.33,29.192 -17.19,45.321 -17.35,97.589 -34.73,197.179 -20.64,295.279 5.33,37.04 15.12,73.63 15.53,111.03 0.42,37.41 -10.19,77.25 -38.66,101.53 -32.1,27.39 -77.53,40.31 -117.34,26.34 -39.82,-13.96 -70.3,-47.99 -87.78,-86.39 -17.49,-38.39 -23.34,-81.04 -25.87,-123.15 -11.3,-187.75 42.2,-380.311 156.21,-529.909 127.65,-22.609 261.31,-3.211 390.91,0.039 22.37,0.559 46.03,1 64.98,12.871 19.21,12.028 30.3,34.328 33.17,56.809 2.87,22.48 -9.11,47.652 -15.25,69.469"
         style="fill:#db5881;fill-opacity:1;fill-rule:nonzero;stroke:none"
         id="path168" /><path
         d="m 3548.75,1451.27 c -17.8,28.48 -19.98,63.84 -19.06,97.41 1.12,41.11 6.13,82.11 14.95,122.28 6.41,29.24 15.33,58.97 34.58,81.88 37.39,44.5 108.4,51.15 159.24,22.96 50.83,-28.19 81.83,-84.51 90.31,-142.01 8.47,-57.51 -3.08,-116.25 -20.9,-171.57 -8.88,-27.58 -20.01,-55.7 -41.29,-75.35 -40.27,-37.22 -68.03,-10.54 -108.72,1.75 -41.68,12.6 -84.32,22.98 -109.11,62.65"
         style="fill:#ffb381;fill-opacity:1;fill-rule:nonzero;stroke:none"
         id="path170" /><path
         d="m 3739.02,1836.08 c 70.4,-43.36 118.16,-121.53 124.59,-203.96 0.91,-11.58 -0.83,-26.17 -11.75,-30.11 -7.94,-2.87 -16.94,2.06 -21.77,8.98 -4.84,6.92 -6.62,15.45 -8.97,23.55 -18.08,62.62 -78.63,110.46 -143.72,113.58 -0.77,-36.34 -17.19,-72.08 -44.27,-96.34 -27.08,-24.26 -64.4,-36.67 -100.61,-33.47 -5.17,-110.83 -1.69,-219.35 -16.4,-329.97 -4.13,-31.07 -9.08,-62.26 -19.43,-91.85 -15.38,-43.95 -42.75,-83.65 -78.38,-113.65 -1.46,-5.31 -9.74,-5.54 -13.48,-1.5 -3.74,4.03 -4.15,10.04 -4.36,15.54 -3.91,100.94 -7.81,201.88 -11.71,302.82 -3.55,91.61 -19.61,190.28 -4.79,280.85 20.81,127.02 121.96,208.67 251.12,191.91 36.67,-4.75 72.42,-16.97 103.93,-36.38"
         style="fill:#5d4043;fill-opacity:1;fill-rule:nonzero;stroke:none"
         id="path172" /><path
         d="m 3532.1,1541.44 c -12.74,9.1 -26.14,19.06 -30.36,32.87 -2.94,9.65 -0.78,20.47 5.78,28.97 5.87,7.59 17.08,15.27 27.99,15.81 1.11,-11.95 -3.22,-25.82 -3.87,-38.07 -0.68,-13.22 -0.54,-26.43 0.46,-39.58"
         style="fill:#ebbda0;fill-opacity:1;fill-rule:nonzero;stroke:none"
         id="path174" /><path
         d="m 4488.71,1092.15 c -6.8,-21.25 -2.1,-41.74 10.48,-45.77 12.59,-4.03 28.3,9.94 35.1,31.2 6.79,21.25 2.11,41.74 -10.48,45.77 -12.59,4.02 -28.3,-9.94 -35.1,-31.2"
         style="fill:#ffffff;fill-opacity:1;fill-rule:nonzero;stroke:none"
         id="path176" /><path
         d="m 2206.51,1952.96 c 18.41,-6.31 30.62,-23.37 41.59,-39.44 57.39,-84.17 114.79,-168.35 172.18,-252.52 7.86,-11.54 16,-23.83 16.88,-37.78 0.87,-13.93 -8.68,-29.54 -22.64,-29.9 -14.05,-0.35 -23.73,13.49 -30.68,25.7 -33.04,58.02 -66.09,116.04 -99.13,174.06 -16.52,29 -33.04,58 -49.56,87.02 -11.92,20.92 -32.17,47.28 -28.64,72.86"
         style="fill:#655b5a;fill-opacity:1;fill-rule:nonzero;stroke:none"
         id="path178" /><path
         d="m 5853.85,4134.18 h -86.66 c -8.28,0 -15,6.72 -15,15.01 0,8.28 6.72,14.99 15,14.99 h 86.66 c 8.28,0 15,-6.71 15,-14.99 0,-8.29 -6.72,-15.01 -15,-15.01"
         style="fill:#81cdf2;fill-opacity:1;fill-rule:nonzero;stroke:none"
         id="path180" /><path
         d="m 5791.35,4025.02 h -252.5 c -8.28,0 -15,6.71 -15,15 0,8.29 6.72,15 15,15 h 252.5 c 8.28,0 15,-6.71 15,-15 0,-8.29 -6.72,-15 -15,-15"
         style="fill:#81cdf2;fill-opacity:1;fill-rule:nonzero;stroke:none"
         id="path182" /><path
         d="m 506.66,4107.53 h -92.812 c -8.285,0 -15,6.71 -15,15 0,8.29 6.715,15 15,15 h 92.812 c 8.285,0 15,-6.71 15,-15 0,-8.29 -6.715,-15 -15,-15"
         style="fill:#81cdf2;fill-opacity:1;fill-rule:nonzero;stroke:none"
         id="path184" /><path
         d="M 764.004,4022.52 H 486.348 c -8.285,0 -15,6.71 -15,15 0,8.29 6.715,15 15,15 h 277.656 c 8.285,0 15,-6.71 15,-15 0,-8.29 -6.715,-15 -15,-15"
         style="fill:#81cdf2;fill-opacity:1;fill-rule:nonzero;stroke:none"
         id="path186" /><path
         d="M 550.961,3947.52 H 276.348 c -8.285,0 -15,6.71 -15,15 0,8.29 6.715,15 15,15 h 274.613 c 8.285,0 15,-6.71 15,-15 0,-8.29 -6.715,-15 -15,-15"
         style="fill:#81cdf2;fill-opacity:1;fill-rule:nonzero;stroke:none"
         id="path188" /></g></g></svg>
